<svg width="12" height="16" viewBox="0 0 12 16" fill="none" xmlns="http://www.w3.org/2000/svg">
<path d="M0.5 6.15385C0.5 3.03336 2.988 0.5 6 0.5C9.012 0.5 11.5 3.03336 11.5 6.15385C11.5 8.5723 10.2309 10.8473 8.8764 12.5763C7.61478 14.1867 6.32725 15.2623 6.08886 15.4539C6.04966 15.4737 6.02361 15.486 6.00051 15.4949C6.00034 15.4949 6.00017 15.495 6 15.4951C5.99983 15.495 5.99966 15.4949 5.99949 15.4949C5.97639 15.486 5.95034 15.4737 5.91114 15.4539C5.67275 15.2623 4.38522 14.1867 3.1236 12.5763C1.76912 10.8473 0.5 8.5723 0.5 6.15385ZM3.1 6.15385C3.1 7.77183 4.392 9.11539 6 9.11539C7.608 9.11539 8.9 7.77183 8.9 6.15385C8.9 4.53587 7.608 3.19231 6 3.19231C4.392 3.19231 3.1 4.53587 3.1 6.15385Z" stroke="#2E6BD1"/>
</svg>
