<svg width="23" height="19" viewBox="0 0 23 19" fill="none" xmlns="http://www.w3.org/2000/svg">
<path d="M1.41007 8.27456L15.1104 2.63503C16.4628 2.04758 21.0492 0.167738 21.0492 0.167738C21.0492 0.167738 23.166 -0.654693 22.9896 1.34264C22.9308 2.16507 22.4604 5.04358 21.99 8.15707L20.52 17.38C20.52 17.38 20.4024 18.7312 19.4028 18.9662C18.4032 19.2011 16.7568 18.1437 16.4628 17.9087C16.2276 17.7325 12.0528 15.089 10.524 13.7966C10.1124 13.4441 9.64203 12.7392 10.5828 11.9168C12.6996 9.97816 15.228 7.56962 16.7568 6.04224C17.4624 5.3373 18.168 3.69244 15.228 5.68977L6.93724 11.2706C6.93724 11.2706 5.99645 11.858 4.23246 11.3293C2.46847 10.8006 0.410477 10.0957 0.410477 10.0957C0.410477 10.0957 -1.00072 9.21448 1.41007 8.27456Z" fill="#2E6BD1"/>
</svg>
