<svg width="23" height="23" viewBox="0 0 23 23" fill="none" xmlns="http://www.w3.org/2000/svg">
<path fill-rule="evenodd" clip-rule="evenodd" d="M1.978 17.0664L0 23L6.44 21.3055C8.01074 22.1327 9.79919 22.6034 11.6983 22.6034C17.94 22.6034 23 17.5434 23 11.3017C23 5.06 17.94 0 11.6983 0C5.45655 0 0.396552 5.06 0.396552 11.3017C0.396552 13.4082 0.974328 15.3783 1.978 17.0664ZM15.838 12.5511C15.838 12.5511 17.4557 13.4991 17.8943 14.3281C18.081 14.6804 18.016 15.1134 17.734 15.3961L17.148 15.9821C15.289 17.841 13.1903 16.9257 11.3313 15.0667L9.63229 13.3678L7.93329 11.6688C6.07428 9.80983 5.15895 7.7112 7.01795 5.85223L7.60396 5.26623C7.88596 4.98424 8.31896 4.91891 8.67163 5.10557C9.50063 5.54423 10.4486 7.16187 10.4486 7.16187C10.6573 7.52787 10.6806 7.96919 10.3086 8.17819C10.3086 8.17819 9.6783 8.70385 9.58763 8.83751C9.17396 9.44817 9.18996 10.0138 9.76096 10.5848L11.088 11.9118L12.415 13.2388C12.986 13.8098 13.5516 13.8258 14.1623 13.4121C14.296 13.3214 14.8216 12.6911 14.8216 12.6911C15.0303 12.3191 15.472 12.3425 15.838 12.5511Z" fill="#2E6BD1"/>
</svg>
