<svg width="41" height="44" viewBox="0 0 41 44" fill="none" xmlns="http://www.w3.org/2000/svg">
<path d="M35 20.5V2C35 1.44772 34.5523 1 34 1H2C1.44772 1 1 1.44772 1 2V36C1 36.5523 1.44772 37 2 37H17" stroke="#6899ED" stroke-width="1.8"/>
<path d="M8 9H28" stroke="#6899ED" stroke-width="1.8" stroke-linecap="round"/>
<path d="M8 19H16" stroke="#6899ED" stroke-width="1.8" stroke-linecap="round"/>
<path d="M8 29H10" stroke="#6899ED" stroke-width="1.8" stroke-linecap="round"/>
<circle cx="27.5" cy="30.5" r="12.5" stroke="#6899ED" stroke-width="1.8"/>
<path d="M27.5 40C32.7467 40 37 35.7467 37 30.5C37 29.4517 36.8302 28.443 36.5166 27.5M18 30.5C18 25.2533 22.2533 21 27.5 21C28.736 21 29.9169 21.236 31 21.6655" stroke="#6899ED" stroke-width="1.8" stroke-linecap="round"/>
<path d="M22.5 30.5L26 34L33 27" stroke="#6899ED" stroke-width="1.8" stroke-linecap="round"/>
</svg>
