<svg width="46" height="46" viewBox="0 0 46 46" fill="none" xmlns="http://www.w3.org/2000/svg">
<path d="M16.8454 24.7349L16.2163 25.3786L16.8454 24.7349L11.783 19.7871C11.7614 19.7661 11.7561 19.7507 11.7538 19.7404C11.7507 19.7265 11.7506 19.7068 11.7577 19.6847C11.7649 19.6626 11.7766 19.6467 11.7873 19.6373C11.7952 19.6303 11.8085 19.621 11.8383 19.6167L18.8422 18.5894C19.4591 18.4989 19.9924 18.1115 20.2691 17.5527L23.4104 11.2091C23.4237 11.1821 23.4367 11.1723 23.4458 11.1669C23.458 11.1597 23.4768 11.1535 23.5 11.1535C23.5232 11.1535 23.542 11.1597 23.5542 11.1669C23.5633 11.1723 23.5763 11.1821 23.5896 11.2091L26.7309 17.5527C27.0076 18.1115 27.5409 18.4989 28.1578 18.5894L35.1617 19.6167C35.1915 19.621 35.2048 19.6303 35.2127 19.6373C35.2234 19.6467 35.2351 19.6626 35.2423 19.6847C35.2494 19.7068 35.2493 19.7265 35.2462 19.7404C35.2439 19.7507 35.2386 19.7661 35.217 19.7871L30.1546 24.7349C29.7087 25.1708 29.505 25.7977 29.6096 26.4124L30.7969 33.3909C30.802 33.4206 30.7972 33.4361 30.7931 33.4458C30.7874 33.4589 30.7759 33.4749 30.7571 33.4886C30.7383 33.5022 30.7195 33.5082 30.7053 33.5095C30.6949 33.5105 30.6786 33.5102 30.6519 33.4962L24.3819 30.2106L23.9642 31.0077L24.3819 30.2106C23.8296 29.9211 23.1704 29.9211 22.6181 30.2106L16.3481 33.4962C16.3214 33.5102 16.3051 33.5105 16.2947 33.5095C16.2805 33.5082 16.2617 33.5022 16.2429 33.4886C16.2241 33.4749 16.2126 33.4589 16.2069 33.4458C16.2028 33.4361 16.198 33.4206 16.2031 33.3909L17.3904 26.4124C17.495 25.7977 17.2913 25.1708 16.8454 24.7349Z" stroke="#6899ED" stroke-width="1.8"/>
<path d="M25 1.08969C24.3413 1.03033 23.6742 1 23 1C10.8497 1 1 10.8497 1 23C1 35.1503 10.8497 45 23 45C35.1503 45 45 35.1503 45 23C45 16.1521 41.8712 10.0349 36.9652 6" stroke="#6899ED" stroke-width="1.8" stroke-linecap="round"/>
<path d="M30 6.41182C27.8482 5.50268 25.4828 5 23 5C15.9326 5 9.81644 9.07313 6.87104 15M40.4329 18.5C40.8031 19.9383 41 21.4462 41 23C41 32.9411 32.9411 41 23 41C13.0589 41 5 32.9411 5 23C5 21.4462 5.19689 19.9383 5.56708 18.5" stroke="#6899ED" stroke-width="1.8" stroke-linecap="round"/>
</svg>
