<svg width="47" height="44" viewBox="0 0 47 44" fill="none" xmlns="http://www.w3.org/2000/svg">
<path d="M44.7872 27.3616V6.46802C44.7872 5.91573 44.3395 5.46802 43.7872 5.46802H39.3138M24.262 35.851H2C1.44772 35.851 1 35.4033 1 34.851V6.46802C1 5.91573 1.44772 5.46802 2 5.46802H7.38564M11.9468 5.46802H21.0691M25.6303 5.46802H34.0638" stroke="#6899ED" stroke-width="1.8"/>
<circle cx="34.5105" cy="31.8299" r="11.1702" stroke="#6899ED" stroke-width="1.8"/>
<path d="M30.0425 31.8298L33.1701 34.9575L39.4255 28.7021" stroke="#6899ED" stroke-width="1.8" stroke-linecap="round"/>
<rect x="5.46826" y="10.8298" width="7.14894" height="7.14894" rx="2" stroke="#6899ED" stroke-width="1.8"/>
<rect x="7.25537" y="1" width="4.46809" height="6.25532" rx="1" stroke="#6899ED" stroke-width="1.8"/>
<rect x="20.6597" y="1" width="4.46809" height="6.25532" rx="1" stroke="#6899ED" stroke-width="1.8"/>
<rect x="34.064" y="1" width="4.46809" height="6.25532" rx="1" stroke="#6899ED" stroke-width="1.8"/>
<rect x="5.46826" y="23.3403" width="7.14894" height="7.14894" rx="2" stroke="#6899ED" stroke-width="1.8"/>
<rect x="18.8726" y="10.8298" width="7.14894" height="7.14894" rx="2" stroke="#6899ED" stroke-width="1.8"/>
<path d="M22.8938 30.4893H20.8726C19.768 30.4893 18.8726 29.5938 18.8726 28.4893V25.3403C18.8726 24.2358 19.768 23.3403 20.8726 23.3403H24.83C25.488 23.3403 26.0215 23.8738 26.0215 24.5318V24.5318" stroke="#6899ED" stroke-width="1.8"/>
<rect x="32.2764" y="10.8298" width="7.14894" height="7.14894" rx="2" stroke="#6899ED" stroke-width="1.8"/>
</svg>
