<svg width="1103" height="492" viewBox="0 0 1103 492" fill="none" xmlns="http://www.w3.org/2000/svg">
<path fill-rule="evenodd" clip-rule="evenodd" d="M893.002 466H915.85C917.411 466 918.742 464.872 918.99 463.338L922.115 444.029C928.485 442.394 934.567 439.885 940.244 436.549L956.177 448.007C957.442 448.917 959.185 448.779 960.289 447.68L976.445 431.6C977.549 430.501 977.688 428.767 976.773 427.507L965.262 411.65C968.613 406 971.134 399.947 972.778 393.606L992.177 390.496C993.719 390.248 994.852 388.924 994.852 387.37V364.63C994.852 363.075 993.719 361.751 992.177 361.504L972.778 358.394C971.135 352.054 968.615 346.002 965.262 340.35L976.773 324.493C977.688 323.233 977.549 321.499 976.445 320.4L960.289 304.321C959.184 303.222 957.442 303.083 956.177 303.993L940.245 315.45C934.567 312.115 928.486 309.605 922.115 307.97L918.99 288.662C918.742 287.128 917.411 286 915.85 286H893.002C891.441 286 890.11 287.128 889.862 288.662L886.737 307.97C880.366 309.605 874.286 312.114 868.607 315.45L852.675 303.993C851.41 303.083 849.667 303.221 848.563 304.32L832.408 320.4C831.304 321.5 831.164 323.234 832.079 324.493L843.59 340.35C840.239 346 837.718 352.053 836.074 358.394L816.675 361.504C815.133 361.751 814 363.075 814 364.63V387.37C814 388.924 815.133 390.249 816.675 390.496L836.074 393.606C837.718 399.947 840.239 406 843.59 411.65L832.079 427.507C831.164 428.767 831.304 430.501 832.408 431.6L848.563 447.679C849.667 448.779 851.41 448.916 852.675 448.007L868.608 436.549C874.286 439.885 880.367 442.394 886.737 444.029L889.862 463.338C890.11 464.872 891.441 466 893.002 466ZM855.508 375.999C855.508 402.849 877.455 424.693 904.432 424.693C931.409 424.693 953.356 402.849 953.356 375.999C953.356 349.15 931.409 327.306 904.432 327.306C877.455 327.306 855.508 349.15 855.508 375.999Z" fill="#E1EAF9"/>
<path fill-rule="evenodd" clip-rule="evenodd" d="M142.348 248.538H152.571C153.27 248.538 153.865 248.034 153.976 247.347L155.375 238.708C158.225 237.976 160.946 236.853 163.486 235.361L170.615 240.487C171.181 240.895 171.961 240.833 172.455 240.341L179.683 233.147C180.177 232.655 180.24 231.879 179.83 231.315L174.68 224.22C176.179 221.692 177.307 218.984 178.043 216.147L186.723 214.755C187.412 214.644 187.92 214.052 187.92 213.356V203.182C187.92 202.486 187.412 201.894 186.723 201.783L178.043 200.392C177.308 197.555 176.18 194.847 174.68 192.318L179.83 185.223C180.24 184.66 180.177 183.884 179.683 183.392L172.455 176.197C171.96 175.706 171.181 175.643 170.615 176.051L163.486 181.177C160.946 179.685 158.225 178.562 155.375 177.83L153.976 169.191C153.865 168.505 153.27 168 152.571 168H142.348C141.65 168 141.054 168.505 140.943 169.191L139.545 177.83C136.695 178.562 133.974 179.684 131.433 181.177L124.305 176.051C123.739 175.643 122.959 175.705 122.465 176.197L115.236 183.392C114.742 183.884 114.68 184.66 115.089 185.223L120.24 192.318C118.74 194.846 117.612 197.555 116.877 200.392L108.197 201.783C107.507 201.894 107 202.486 107 203.182V213.356C107 214.052 107.507 214.644 108.197 214.755L116.877 216.147C117.612 218.984 118.74 221.692 120.24 224.22L115.089 231.315C114.68 231.879 114.742 232.655 115.236 233.146L122.465 240.341C122.959 240.833 123.738 240.894 124.305 240.488L131.433 235.361C133.974 236.854 136.695 237.976 139.545 238.708L140.943 247.347C141.054 248.033 141.65 248.538 142.348 248.538ZM125.572 208.269C125.572 220.282 135.392 230.056 147.462 230.056C159.533 230.056 169.353 220.282 169.353 208.269C169.353 196.255 159.533 186.482 147.462 186.482C135.392 186.482 125.572 196.255 125.572 208.269Z" fill="#E1EAF9"/>
<mask id="path-3-inside-1_823_8267" fill="white">
<path fill-rule="evenodd" clip-rule="evenodd" d="M100.597 337.181L114.657 330.583C115.618 330.132 116.111 329.054 115.821 328.038L112.168 315.253C115.616 312.407 118.634 309.107 121.164 305.415L134.278 307.865C135.319 308.059 136.352 307.471 136.714 306.476L142.012 291.916C142.374 290.92 141.959 289.813 141.033 289.302L129.369 282.868C129.8 278.423 129.603 273.97 128.784 269.594L139.823 262.077C140.701 261.48 141.016 260.338 140.567 259.381L134 245.387C133.551 244.431 132.471 243.943 131.451 244.236L118.615 247.925C115.773 244.498 112.475 241.501 108.779 238.991L111.284 225.909C111.483 224.869 110.896 223.843 109.9 223.485L95.3144 218.255C94.3168 217.898 93.2047 218.316 92.6891 219.241L86.1934 230.893C81.7365 230.48 77.2693 230.692 72.8768 231.525L65.378 220.546C64.782 219.673 63.6375 219.363 62.6765 219.814L48.6166 226.412C47.6557 226.863 47.1625 227.942 47.4528 228.958L51.1054 241.742C47.6574 244.588 44.6399 247.887 42.109 251.58L28.996 249.13C27.9545 248.936 26.9222 249.524 26.56 250.52L21.262 265.08C20.8999 266.076 21.3148 267.183 22.2414 267.694L33.9042 274.128C33.4739 278.572 33.6704 283.026 34.4902 287.402L23.4503 294.918C22.5731 295.515 22.258 296.658 22.7068 297.614L29.2738 311.608C29.7227 312.565 30.8026 313.052 31.8227 312.759L44.6588 309.071C47.5012 312.498 50.8009 315.495 54.4946 318.005L51.9898 331.087C51.7908 332.126 52.3775 333.153 53.3743 333.51L67.9594 338.74C68.9562 339.098 70.0685 338.679 70.5847 337.754L77.0804 326.103C81.5383 326.515 86.005 326.303 90.3969 325.47L97.8957 336.45C98.4917 337.322 99.6364 337.632 100.597 337.181ZM51.5344 292.624C59.2881 309.147 79.1023 316.251 95.7032 308.461C112.305 300.67 119.502 280.89 111.749 264.367C103.995 247.844 84.1808 240.74 67.5794 248.53C50.9785 256.321 43.7807 276.101 51.5344 292.624Z"/>
</mask>
<path d="M115.821 328.038L118.706 327.214L118.705 327.214L115.821 328.038ZM112.168 315.253L110.258 312.94L108.744 314.189L109.284 316.077L112.168 315.253ZM121.164 305.415L121.715 302.466L119.794 302.108L118.689 303.719L121.164 305.415ZM134.278 307.865L133.727 310.814L133.727 310.814L134.278 307.865ZM136.714 306.476L133.895 305.45L133.895 305.451L136.714 306.476ZM142.012 291.916L144.831 292.941L144.832 292.941L142.012 291.916ZM141.033 289.302L139.583 291.929L139.584 291.929L141.033 289.302ZM129.369 282.868L126.383 282.579L126.193 284.542L127.92 285.495L129.369 282.868ZM128.784 269.594L127.095 267.114L125.474 268.218L125.835 270.146L128.784 269.594ZM139.823 262.077L141.512 264.557L141.512 264.557L139.823 262.077ZM131.451 244.236L130.623 241.353L130.623 241.353L131.451 244.236ZM118.615 247.925L116.306 249.84L117.558 251.35L119.444 250.808L118.615 247.925ZM108.779 238.991L105.833 238.427L105.462 240.364L107.094 241.473L108.779 238.991ZM111.284 225.909L108.337 225.344L108.337 225.345L111.284 225.909ZM109.9 223.485L110.912 220.661L110.912 220.661L109.9 223.485ZM95.3144 218.255L96.327 215.431L96.3253 215.431L95.3144 218.255ZM92.6891 219.241L95.3094 220.702L95.3099 220.701L92.6891 219.241ZM86.1934 230.893L85.9164 233.88L87.8622 234.061L88.8137 232.354L86.1934 230.893ZM72.8768 231.525L70.3995 233.217L71.507 234.838L73.4361 234.472L72.8768 231.525ZM65.378 220.546L67.8554 218.854L67.8552 218.854L65.378 220.546ZM47.4528 228.958L44.5681 229.782L44.5682 229.782L47.4528 228.958ZM51.1054 241.742L53.0151 244.055L54.5294 242.805L53.9899 240.917L51.1054 241.742ZM42.109 251.58L41.5581 254.529L43.4788 254.888L44.5835 253.276L42.109 251.58ZM28.996 249.13L28.4447 252.079L28.4451 252.079L28.996 249.13ZM26.56 250.52L23.7409 249.493L23.7408 249.494L26.56 250.52ZM21.262 265.08L18.4428 264.055L18.4427 264.055L21.262 265.08ZM22.2414 267.694L23.6905 265.067L23.6903 265.067L22.2414 267.694ZM33.9042 274.128L36.8903 274.417L37.0803 272.453L35.3533 271.501L33.9042 274.128ZM34.4902 287.402L36.1784 289.882L37.8001 288.778L37.4389 286.85L34.4902 287.402ZM23.4503 294.918L21.7621 292.438L21.7617 292.438L23.4503 294.918ZM31.8227 312.759L32.6509 315.643L32.6511 315.643L31.8227 312.759ZM44.6588 309.071L46.9679 307.156L45.7157 305.646L43.8304 306.188L44.6588 309.071ZM54.4946 318.005L57.4411 318.569L57.812 316.631L56.1804 315.523L54.4946 318.005ZM51.9898 331.087L54.9363 331.651L54.9363 331.651L51.9898 331.087ZM53.3743 333.51L54.3868 330.686L54.3867 330.686L53.3743 333.51ZM67.9594 338.74L68.9728 335.916L68.972 335.916L67.9594 338.74ZM70.5847 337.754L73.2045 339.216L73.205 339.215L70.5847 337.754ZM77.0804 326.103L77.357 323.115L75.4115 322.935L74.4601 324.642L77.0804 326.103ZM90.3969 325.47L92.8742 323.778L91.7668 322.157L89.8377 322.523L90.3969 325.47ZM97.8957 336.45L95.4184 338.142L95.4185 338.142L97.8957 336.45ZM113.383 327.867L99.3228 334.465L101.872 339.897L115.932 333.299L113.383 327.867ZM112.936 328.862C112.82 328.453 113.021 328.037 113.383 327.867L115.932 333.299C118.216 332.227 119.403 329.655 118.706 327.214L112.936 328.862ZM109.284 316.077L112.936 328.862L118.705 327.214L115.053 314.429L109.284 316.077ZM118.689 303.719C116.317 307.18 113.49 310.273 110.258 312.94L114.078 317.567C117.742 314.542 120.95 311.034 123.639 307.111L118.689 303.719ZM134.828 304.916L121.715 302.466L120.613 308.364L133.727 310.814L134.828 304.916ZM133.895 305.451C134.035 305.063 134.431 304.842 134.828 304.916L133.727 310.814C136.208 311.277 138.668 309.879 139.533 307.501L133.895 305.451ZM139.193 290.89L133.895 305.45L139.533 307.502L144.831 292.941L139.193 290.89ZM139.584 291.929C139.214 291.725 139.051 291.282 139.193 290.891L144.832 292.941C145.698 290.559 144.704 287.901 142.481 286.675L139.584 291.929ZM127.92 285.495L139.583 291.929L142.482 286.675L130.819 280.241L127.92 285.495ZM125.835 270.146C126.603 274.244 126.787 278.414 126.383 282.579L132.356 283.157C132.813 278.432 132.604 273.696 131.732 269.041L125.835 270.146ZM138.135 259.598L127.095 267.114L130.472 272.073L141.512 264.557L138.135 259.598ZM137.851 260.656C137.67 260.269 137.803 259.824 138.135 259.598L141.512 264.557C143.598 263.136 144.362 260.407 143.283 258.107L137.851 260.656ZM131.284 246.662L137.851 260.656L143.283 258.107L136.716 244.113L131.284 246.662ZM132.279 247.12C131.893 247.23 131.466 247.049 131.284 246.662L136.716 244.113C135.636 241.813 133.049 240.656 130.623 241.353L132.279 247.12ZM119.444 250.808L132.28 247.12L130.623 241.353L117.787 245.041L119.444 250.808ZM107.094 241.473C110.556 243.825 113.645 246.631 116.306 249.84L120.925 246.01C117.902 242.365 114.393 239.178 110.465 236.509L107.094 241.473ZM108.337 225.345L105.833 238.427L111.726 239.555L114.23 226.473L108.337 225.345ZM108.887 226.309C108.494 226.168 108.258 225.758 108.337 225.344L114.23 226.473C114.708 223.981 113.299 221.517 110.912 220.661L108.887 226.309ZM94.3019 221.079L108.887 226.309L110.912 220.661L96.327 215.431L94.3019 221.079ZM95.3099 220.701C95.111 221.058 94.6863 221.217 94.3036 221.08L96.3253 215.431C93.9473 214.58 91.2984 215.573 90.0682 217.782L95.3099 220.701ZM88.8137 232.354L95.3094 220.702L90.0688 217.781L83.5731 229.432L88.8137 232.354ZM73.4361 234.472C77.5527 233.691 81.7383 233.493 85.9164 233.88L86.4705 227.906C81.7346 227.466 76.9859 227.692 72.3176 228.578L73.4361 234.472ZM62.9007 222.238L70.3995 233.217L75.3541 229.833L67.8554 218.854L62.9007 222.238ZM63.951 222.53C63.5887 222.7 63.1407 222.589 62.9009 222.238L67.8552 218.854C66.4234 216.758 63.6863 216.027 61.402 217.099L63.951 222.53ZM49.891 229.128L63.951 222.53L61.402 217.099L47.3421 223.697L49.891 229.128ZM50.3374 228.134C50.4542 228.543 50.2532 228.958 49.891 229.128L47.3421 223.697C45.0581 224.768 43.8709 227.341 44.5681 229.782L50.3374 228.134ZM53.9899 240.917L50.3373 228.134L44.5682 229.782L48.2208 242.566L53.9899 240.917ZM44.5835 253.276C46.9561 249.815 49.7836 246.723 53.0151 244.055L49.1956 239.428C45.5312 242.453 42.3236 245.96 39.6344 249.884L44.5835 253.276ZM28.4451 252.079L41.5581 254.529L42.6599 248.631L29.5469 246.181L28.4451 252.079ZM29.379 251.546C29.2389 251.931 28.8447 252.154 28.4447 252.079L29.5473 246.182C27.0644 245.717 24.6054 247.118 23.7409 249.493L29.379 251.546ZM24.0811 266.106L29.3792 251.545L23.7408 249.494L18.4428 264.055L24.0811 266.106ZM23.6903 265.067C24.0598 265.271 24.2236 265.714 24.0813 266.106L18.4427 264.055C17.5763 266.437 18.5698 269.095 20.7926 270.321L23.6903 265.067ZM35.3533 271.501L23.6905 265.067L20.7924 270.321L32.4552 276.754L35.3533 271.501ZM37.4389 286.85C36.6712 282.751 36.487 278.581 36.8903 274.417L30.9182 273.838C30.4608 278.563 30.6696 283.3 31.5414 287.955L37.4389 286.85ZM25.1386 297.398L36.1784 289.882L32.8019 284.922L21.7621 292.438L25.1386 297.398ZM25.4226 296.34C25.6042 296.727 25.4707 297.172 25.1389 297.398L21.7617 292.438C19.6754 293.859 18.9117 296.589 19.991 298.889L25.4226 296.34ZM31.9896 310.334L25.4226 296.34L19.991 298.889L26.558 312.883L31.9896 310.334ZM30.9945 309.876C31.3804 309.765 31.8081 309.947 31.9896 310.334L26.558 312.883C27.6373 315.182 30.2248 316.339 32.6509 315.643L30.9945 309.876ZM43.8304 306.188L30.9943 309.876L32.6511 315.643L45.4872 311.954L43.8304 306.188ZM56.1804 315.523C52.7194 313.172 49.6297 310.365 46.9679 307.156L42.3496 310.986C45.3727 314.631 48.8824 317.819 52.8088 320.486L56.1804 315.523ZM54.9363 331.651L57.4411 318.569L51.5482 317.44L49.0434 330.523L54.9363 331.651ZM54.3867 330.686C54.7795 330.827 55.0156 331.237 54.9363 331.651L49.0434 330.522C48.566 333.015 49.9754 335.479 52.3618 336.334L54.3867 330.686ZM68.972 335.916L54.3868 330.686L52.3617 336.334L66.9469 341.564L68.972 335.916ZM67.9649 336.293C68.1617 335.94 68.5846 335.777 68.9728 335.916L66.9461 341.564C69.3279 342.419 71.9753 341.419 73.2045 339.216L67.9649 336.293ZM74.4601 324.642L67.9644 336.293L73.205 339.215L79.7007 327.563L74.4601 324.642ZM89.8377 322.523C85.7218 323.304 81.5364 323.502 77.357 323.115L76.8038 329.09C81.5402 329.528 86.2882 329.303 90.9561 328.418L89.8377 322.523ZM100.373 334.758L92.8742 323.778L87.9196 327.162L95.4184 338.142L100.373 334.758ZM99.3228 334.465C99.6851 334.295 100.133 334.406 100.373 334.757L95.4185 338.142C96.8504 340.238 99.5877 340.969 101.872 339.897L99.3228 334.465ZM94.4287 305.745C79.3156 312.837 61.2944 306.36 54.2502 291.349L48.8185 293.898C57.2818 311.933 78.8889 319.665 96.9776 311.177L94.4287 305.745ZM109.033 265.641C116.077 280.652 109.542 298.653 94.4287 305.745L96.9776 311.177C115.067 302.688 122.928 281.127 114.465 263.093L109.033 265.641ZM68.8539 251.246C83.9675 244.154 101.989 250.631 109.033 265.641L114.465 263.093C106.001 245.058 84.3941 237.326 66.305 245.815L68.8539 251.246ZM54.2502 291.349C47.2061 276.339 53.7408 258.338 68.8539 251.246L66.305 245.815C48.2162 254.303 40.3553 275.864 48.8185 293.898L54.2502 291.349Z" fill="#E1EAF9" mask="url(#path-3-inside-1_823_8267)"/>
<mask id="path-5-inside-2_823_8267" fill="white">
<path fill-rule="evenodd" clip-rule="evenodd" d="M1045.99 472.864L1057.31 467.552C1058.09 467.189 1058.48 466.321 1058.25 465.503L1055.31 455.209C1058.09 452.918 1060.52 450.261 1062.55 447.289L1073.11 449.261C1073.95 449.417 1074.78 448.944 1075.07 448.142L1079.34 436.419C1079.63 435.618 1079.3 434.726 1078.55 434.315L1069.16 429.135C1069.51 425.556 1069.35 421.971 1068.69 418.447L1077.58 412.396C1078.28 411.915 1078.54 410.995 1078.17 410.225L1072.89 398.958C1072.53 398.188 1071.66 397.795 1070.84 398.031L1060.5 401.001C1058.21 398.242 1055.56 395.829 1052.58 393.808L1054.6 383.275C1054.76 382.439 1054.29 381.612 1053.48 381.324L1041.74 377.113C1040.94 376.826 1040.04 377.162 1039.63 377.907L1034.4 387.288C1030.81 386.955 1027.21 387.126 1023.68 387.797L1017.64 378.958C1017.16 378.255 1016.24 378.006 1015.46 378.369L1004.14 383.681C1003.37 384.044 1002.97 384.912 1003.21 385.73L1006.15 396.023C1003.37 398.314 1000.94 400.971 998.903 403.944L988.346 401.972C987.507 401.815 986.676 402.289 986.384 403.09L982.119 414.814C981.827 415.615 982.161 416.506 982.907 416.918L992.297 422.098C991.951 425.676 992.109 429.262 992.769 432.786L983.881 438.837C983.174 439.318 982.921 440.237 983.282 441.007L988.569 452.274C988.931 453.045 989.8 453.437 990.621 453.201L1000.96 450.232C1003.24 452.991 1005.9 455.404 1008.88 457.424L1006.86 467.957C1006.7 468.794 1007.17 469.621 1007.97 469.909L1019.72 474.119C1020.52 474.407 1021.41 474.07 1021.83 473.326L1027.06 463.944C1030.65 464.277 1034.25 464.106 1037.78 463.435L1043.82 472.275C1044.3 472.978 1045.22 473.227 1045.99 472.864ZM1006.49 436.99C1012.73 450.293 1028.69 456.013 1042.05 449.741C1055.42 443.468 1061.21 427.542 1054.97 414.239C1048.73 400.936 1032.78 395.216 1019.41 401.489C1006.04 407.761 1000.25 423.687 1006.49 436.99Z"/>
</mask>
<path d="M1058.25 465.503L1061.14 464.678L1061.14 464.678L1058.25 465.503ZM1055.31 455.209L1053.4 452.896L1051.89 454.146L1052.43 456.033L1055.31 455.209ZM1062.55 447.289L1063.1 444.34L1061.18 443.981L1060.08 445.592L1062.55 447.289ZM1073.11 449.261L1072.56 452.21L1072.56 452.21L1073.11 449.261ZM1075.07 448.142L1072.25 447.117L1072.25 447.117L1075.07 448.142ZM1079.34 436.419L1082.16 437.445L1082.16 437.445L1079.34 436.419ZM1078.55 434.315L1077.1 436.942L1077.1 436.942L1078.55 434.315ZM1069.16 429.135L1066.17 428.846L1065.98 430.809L1067.71 431.762L1069.16 429.135ZM1068.69 418.447L1067 415.968L1065.38 417.072L1065.74 419L1068.69 418.447ZM1077.58 412.396L1079.26 414.876L1079.26 414.875L1077.58 412.396ZM1078.17 410.225L1080.89 408.951L1078.17 410.225ZM1072.89 398.958L1070.17 400.233L1072.89 398.958ZM1070.84 398.031L1070.01 395.148L1070.01 395.148L1070.84 398.031ZM1060.5 401.001L1058.19 402.916L1059.44 404.426L1061.33 403.884L1060.5 401.001ZM1052.58 393.808L1049.64 393.244L1049.26 395.181L1050.9 396.29L1052.58 393.808ZM1054.6 383.275L1051.65 382.711L1051.65 382.711L1054.6 383.275ZM1053.48 381.324L1054.5 378.5L1054.5 378.5L1053.48 381.324ZM1041.74 377.113L1042.75 374.289L1042.75 374.289L1041.74 377.113ZM1039.63 377.907L1042.25 379.368L1042.25 379.367L1039.63 377.907ZM1034.4 387.288L1034.12 390.275L1036.07 390.456L1037.02 388.749L1034.4 387.288ZM1023.68 387.797L1021.2 389.489L1022.31 391.111L1024.23 390.745L1023.68 387.797ZM1017.64 378.958L1020.12 377.266L1020.12 377.265L1017.64 378.958ZM1003.21 385.73L1000.32 386.554L1000.32 386.554L1003.21 385.73ZM1006.15 396.023L1008.06 398.336L1009.57 397.087L1009.03 395.199L1006.15 396.023ZM998.903 403.944L998.352 406.893L1000.27 407.252L1001.38 405.64L998.903 403.944ZM988.346 401.972L987.794 404.921L987.795 404.921L988.346 401.972ZM986.384 403.09L983.565 402.064L983.565 402.064L986.384 403.09ZM982.119 414.814L979.299 413.788L979.299 413.788L982.119 414.814ZM982.907 416.918L984.356 414.291L984.356 414.291L982.907 416.918ZM992.297 422.098L995.283 422.387L995.473 420.424L993.746 419.471L992.297 422.098ZM992.769 432.786L994.457 435.265L996.079 434.161L995.718 432.233L992.769 432.786ZM983.881 438.837L982.192 436.357L982.192 436.357L983.881 438.837ZM990.621 453.201L991.45 456.085L991.45 456.085L990.621 453.201ZM1000.96 450.232L1003.27 448.317L1002.01 446.807L1000.13 447.349L1000.96 450.232ZM1008.88 457.424L1011.82 457.989L1012.19 456.051L1010.56 454.943L1008.88 457.424ZM1006.86 467.957L1009.81 468.522L1009.81 468.521L1006.86 467.957ZM1007.97 469.909L1008.99 467.085L1008.99 467.085L1007.97 469.909ZM1019.72 474.119L1020.73 471.296L1020.73 471.295L1019.72 474.119ZM1021.83 473.326L1024.45 474.787L1024.45 474.786L1021.83 473.326ZM1027.06 463.944L1027.34 460.957L1025.39 460.777L1024.44 462.484L1027.06 463.944ZM1037.78 463.435L1040.26 461.743L1039.15 460.122L1037.22 460.488L1037.78 463.435ZM1043.82 472.275L1041.34 473.967L1041.34 473.967L1043.82 472.275ZM1056.04 464.836L1044.72 470.148L1047.27 475.58L1058.59 470.268L1056.04 464.836ZM1055.37 466.327C1055.19 465.72 1055.49 465.094 1056.04 464.836L1058.59 470.268C1060.69 469.284 1061.78 466.921 1061.14 464.678L1055.37 466.327ZM1052.43 456.033L1055.37 466.327L1061.14 464.678L1058.19 454.385L1052.43 456.033ZM1060.08 445.592C1058.2 448.334 1055.96 450.783 1053.4 452.896L1057.22 457.523C1060.21 455.053 1062.83 452.188 1065.03 448.985L1060.08 445.592ZM1073.66 446.312L1063.1 444.34L1062 450.238L1072.56 452.21L1073.66 446.312ZM1072.25 447.117C1072.46 446.536 1073.06 446.2 1073.66 446.312L1072.56 452.21C1074.84 452.635 1077.1 451.352 1077.89 449.168L1072.25 447.117ZM1076.52 435.394L1072.25 447.117L1077.89 449.168L1082.16 437.445L1076.52 435.394ZM1077.1 436.942C1076.55 436.639 1076.31 435.98 1076.52 435.394L1082.16 437.445C1082.95 435.257 1082.04 432.814 1080 431.688L1077.1 436.942ZM1067.71 431.762L1077.1 436.942L1080 431.688L1070.61 426.508L1067.71 431.762ZM1065.74 419C1066.35 422.245 1066.49 425.547 1066.17 428.846L1072.15 429.424C1072.52 425.565 1072.35 421.697 1071.64 417.895L1065.74 419ZM1075.89 409.916L1067 415.968L1070.38 420.927L1079.26 414.876L1075.89 409.916ZM1075.46 411.5C1075.19 410.926 1075.38 410.258 1075.89 409.916L1079.26 414.875C1081.18 413.571 1081.88 411.064 1080.89 408.951L1075.46 411.5ZM1070.17 400.233L1075.46 411.5L1080.89 408.951L1075.6 397.684L1070.17 400.233ZM1071.66 400.915C1071.08 401.083 1070.44 400.806 1070.17 400.233L1075.6 397.684C1074.61 395.57 1072.23 394.508 1070.01 395.148L1071.66 400.915ZM1061.33 403.884L1071.66 400.915L1070.01 395.148L1059.67 398.118L1061.33 403.884ZM1050.9 396.29C1053.64 398.153 1056.08 400.375 1058.19 402.916L1062.81 399.086C1060.34 396.109 1057.48 393.506 1054.27 391.327L1050.9 396.29ZM1051.65 382.711L1049.64 393.244L1055.53 394.372L1057.54 383.84L1051.65 382.711ZM1052.47 384.148C1051.88 383.937 1051.53 383.327 1051.65 382.711L1057.54 383.84C1057.98 381.55 1056.69 379.286 1054.5 378.5L1052.47 384.148ZM1040.73 379.937L1052.47 384.148L1054.5 378.5L1042.75 374.289L1040.73 379.937ZM1042.25 379.367C1041.95 379.905 1041.31 380.144 1040.73 379.938L1042.75 374.289C1040.57 373.507 1038.14 374.419 1037.01 376.447L1042.25 379.367ZM1037.02 388.749L1042.25 379.368L1037.01 376.446L1031.78 385.827L1037.02 388.749ZM1024.23 390.745C1027.5 390.126 1030.81 389.968 1034.12 390.275L1034.67 384.301C1030.81 383.942 1026.93 384.126 1023.12 384.85L1024.23 390.745ZM1015.16 380.65L1021.2 389.489L1026.15 386.105L1020.12 377.266L1015.16 380.65ZM1016.74 381.084C1016.19 381.342 1015.52 381.171 1015.16 380.65L1020.12 377.265C1018.8 375.339 1016.29 374.669 1014.19 375.653L1016.74 381.084ZM1005.42 386.397L1016.74 381.084L1014.19 375.653L1002.87 380.965L1005.42 386.397ZM1006.09 384.906C1006.26 385.513 1005.97 386.139 1005.42 386.397L1002.87 380.965C1000.77 381.949 999.68 384.311 1000.32 386.554L1006.09 384.906ZM1009.03 395.199L1006.09 384.906L1000.32 386.554L1003.26 396.847L1009.03 395.199ZM1001.38 405.64C1003.26 402.898 1005.5 400.449 1008.06 398.336L1004.24 393.709C1001.24 396.179 998.625 399.044 996.429 402.248L1001.38 405.64ZM987.795 404.921L998.352 406.893L999.454 400.995L988.896 399.023L987.795 404.921ZM989.203 404.116C988.993 404.695 988.397 405.033 987.794 404.921L988.897 399.023C986.617 398.597 984.359 399.883 983.565 402.064L989.203 404.116ZM984.938 415.839L989.203 404.116L983.565 402.064L979.299 413.788L984.938 415.839ZM984.356 414.291C984.906 414.594 985.151 415.254 984.938 415.839L979.299 413.788C978.504 415.976 979.416 418.419 981.458 419.545L984.356 414.291ZM993.746 419.471L984.356 414.291L981.458 419.545L990.848 424.725L993.746 419.471ZM995.718 432.233C995.11 428.988 994.964 425.685 995.283 422.387L989.311 421.809C988.938 425.667 989.108 429.536 989.82 433.338L995.718 432.233ZM985.569 441.317L994.457 435.265L991.081 430.306L982.192 436.357L985.569 441.317ZM985.998 439.733C986.267 440.306 986.072 440.974 985.569 441.316L982.192 436.357C980.277 437.661 979.574 440.168 980.566 442.282L985.998 439.733ZM991.285 451L985.998 439.733L980.566 442.282L985.853 453.549L991.285 451ZM989.793 450.318C990.378 450.15 991.016 450.427 991.285 451L985.853 453.549C986.845 455.662 989.222 456.724 991.45 456.085L989.793 450.318ZM1000.13 447.349L989.793 450.318L991.45 456.085L1001.78 453.115L1000.13 447.349ZM1010.56 454.943C1007.82 453.081 1005.37 450.858 1003.27 448.317L998.647 452.147C1001.12 455.124 1003.98 457.728 1007.19 459.906L1010.56 454.943ZM1009.81 468.521L1011.82 457.989L1005.93 456.86L1003.91 467.393L1009.81 468.521ZM1008.99 467.085C1009.57 467.295 1009.92 467.905 1009.81 468.522L1003.91 467.393C1003.47 469.683 1004.77 471.947 1006.96 472.733L1008.99 467.085ZM1020.73 471.295L1008.99 467.085L1006.96 472.733L1018.7 476.943L1020.73 471.295ZM1019.21 471.864C1019.51 471.331 1020.15 471.087 1020.73 471.296L1018.7 476.943C1020.89 477.728 1023.32 476.81 1024.45 474.787L1019.21 471.864ZM1024.44 462.484L1019.21 471.865L1024.45 474.786L1029.68 465.405L1024.44 462.484ZM1037.22 460.488C1033.96 461.106 1030.65 461.264 1027.34 460.957L1026.78 466.932C1030.65 467.29 1034.53 467.106 1038.34 466.383L1037.22 460.488ZM1046.3 470.583L1040.26 461.743L1035.3 465.127L1041.34 473.967L1046.3 470.583ZM1044.72 470.148C1045.27 469.89 1045.94 470.062 1046.3 470.583L1041.34 473.967C1042.66 475.893 1045.17 476.564 1047.27 475.58L1044.72 470.148ZM1040.78 447.025C1028.9 452.599 1014.74 447.506 1009.21 435.715L1003.78 438.264C1010.73 453.079 1028.47 459.427 1043.33 452.456L1040.78 447.025ZM1052.26 415.514C1057.79 427.305 1052.66 441.451 1040.78 447.025L1043.33 452.456C1058.18 445.486 1064.64 427.78 1057.69 412.965L1052.26 415.514ZM1020.68 404.205C1032.56 398.63 1046.72 403.723 1052.26 415.514L1057.69 412.965C1050.74 398.15 1032.99 391.802 1018.14 398.773L1020.68 404.205ZM1009.21 435.715C1003.67 423.924 1008.81 409.779 1020.68 404.205L1018.14 398.773C1003.28 405.743 996.823 423.449 1003.78 438.264L1009.21 435.715Z" fill="#E1EAF9" mask="url(#path-5-inside-2_823_8267)"/>
<mask id="path-7-outside-3_823_8267" maskUnits="userSpaceOnUse" x="201" y="170" width="736" height="258" fill="black">
<rect fill="white" x="201" y="170" width="736" height="258"/>
<path d="M205 324.676L354.164 174.8H404.004V324.676H428.568V374.16H404.004V424H354.164V374.16H205V324.676ZM354.164 324.676V238.524L267.3 324.676H354.164ZM510.604 341.764L602.808 224.64H510.604V341.764ZM634.848 374.16V258.104L544.424 374.16H634.848ZM659.768 424H485.328L460.764 399.436V200.076L485.328 174.8H659.768L684.332 200.076V399.436L659.768 424ZM709.088 324.676L858.252 174.8H908.092V324.676H932.656V374.16H908.092V424H858.252V374.16H709.088V324.676ZM858.252 324.676V238.524L771.388 324.676H858.252Z"/>
</mask>
<path d="M205 324.676L202.165 321.854L201 323.025V324.676H205ZM354.164 174.8V170.8H352.502L351.329 171.978L354.164 174.8ZM404.004 174.8H408.004V170.8H404.004V174.8ZM404.004 324.676H400.004V328.676H404.004V324.676ZM428.568 324.676H432.568V320.676H428.568V324.676ZM428.568 374.16V378.16H432.568V374.16H428.568ZM404.004 374.16V370.16H400.004V374.16H404.004ZM404.004 424V428H408.004V424H404.004ZM354.164 424H350.164V428H354.164V424ZM354.164 374.16H358.164V370.16H354.164V374.16ZM205 374.16H201V378.16H205V374.16ZM354.164 324.676V328.676H358.164V324.676H354.164ZM354.164 238.524H358.164V228.923L351.347 235.684L354.164 238.524ZM267.3 324.676L264.483 321.836L257.587 328.676H267.3V324.676ZM207.835 327.498L356.999 177.622L351.329 171.978L202.165 321.854L207.835 327.498ZM354.164 178.8H404.004V170.8H354.164V178.8ZM400.004 174.8V324.676H408.004V174.8H400.004ZM404.004 328.676H428.568V320.676H404.004V328.676ZM424.568 324.676V374.16H432.568V324.676H424.568ZM428.568 370.16H404.004V378.16H428.568V370.16ZM400.004 374.16V424H408.004V374.16H400.004ZM404.004 420H354.164V428H404.004V420ZM358.164 424V374.16H350.164V424H358.164ZM354.164 370.16H205V378.16H354.164V370.16ZM209 374.16V324.676H201V374.16H209ZM358.164 324.676V238.524H350.164V324.676H358.164ZM351.347 235.684L264.483 321.836L270.117 327.516L356.981 241.364L351.347 235.684ZM267.3 328.676H354.164V320.676H267.3V328.676ZM510.604 341.764H506.604V353.312L513.747 344.238L510.604 341.764ZM602.808 224.64L605.951 227.114L611.047 220.64H602.808V224.64ZM510.604 224.64V220.64H506.604V224.64H510.604ZM634.848 374.16V378.16H638.848V374.16H634.848ZM634.848 258.104H638.848V246.462L631.692 255.646L634.848 258.104ZM544.424 374.16L541.268 371.702L536.236 378.16H544.424V374.16ZM659.768 424V428H661.425L662.596 426.828L659.768 424ZM485.328 424L482.499 426.828L483.671 428H485.328V424ZM460.764 399.436H456.764V401.093L457.935 402.264L460.764 399.436ZM460.764 200.076L457.895 197.288L456.764 198.453V200.076H460.764ZM485.328 174.8V170.8H483.637L482.459 172.012L485.328 174.8ZM659.768 174.8L662.636 172.012L661.458 170.8H659.768V174.8ZM684.332 200.076H688.332V198.453L687.2 197.288L684.332 200.076ZM684.332 399.436L687.16 402.264L688.332 401.093V399.436H684.332ZM513.747 344.238L605.951 227.114L599.665 222.166L507.461 339.29L513.747 344.238ZM602.808 220.64H510.604V228.64H602.808V220.64ZM506.604 224.64V341.764H514.604V224.64H506.604ZM638.848 374.16V258.104H630.848V374.16H638.848ZM631.692 255.646L541.268 371.702L547.579 376.618L638.003 260.562L631.692 255.646ZM544.424 378.16H634.848V370.16H544.424V378.16ZM659.768 420H485.328V428H659.768V420ZM488.156 421.172L463.592 396.608L457.935 402.264L482.499 426.828L488.156 421.172ZM464.764 399.436V200.076H456.764V399.436H464.764ZM463.632 202.864L488.196 177.588L482.459 172.012L457.895 197.288L463.632 202.864ZM485.328 178.8H659.768V170.8H485.328V178.8ZM656.899 177.588L681.463 202.864L687.2 197.288L662.636 172.012L656.899 177.588ZM680.332 200.076V399.436H688.332V200.076H680.332ZM681.503 396.608L656.939 421.172L662.596 426.828L687.16 402.264L681.503 396.608ZM709.088 324.676L706.253 321.854L705.088 323.025V324.676H709.088ZM858.252 174.8V170.8H856.589L855.417 171.978L858.252 174.8ZM908.092 174.8H912.092V170.8H908.092V174.8ZM908.092 324.676H904.092V328.676H908.092V324.676ZM932.656 324.676H936.656V320.676H932.656V324.676ZM932.656 374.16V378.16H936.656V374.16H932.656ZM908.092 374.16V370.16H904.092V374.16H908.092ZM908.092 424V428H912.092V424H908.092ZM858.252 424H854.252V428H858.252V424ZM858.252 374.16H862.252V370.16H858.252V374.16ZM709.088 374.16H705.088V378.16H709.088V374.16ZM858.252 324.676V328.676H862.252V324.676H858.252ZM858.252 238.524H862.252V228.923L855.435 235.684L858.252 238.524ZM771.388 324.676L768.571 321.836L761.674 328.676H771.388V324.676ZM711.923 327.498L861.087 177.622L855.417 171.978L706.253 321.854L711.923 327.498ZM858.252 178.8H908.092V170.8H858.252V178.8ZM904.092 174.8V324.676H912.092V174.8H904.092ZM908.092 328.676H932.656V320.676H908.092V328.676ZM928.656 324.676V374.16H936.656V324.676H928.656ZM932.656 370.16H908.092V378.16H932.656V370.16ZM904.092 374.16V424H912.092V374.16H904.092ZM908.092 420H858.252V428H908.092V420ZM862.252 424V374.16H854.252V424H862.252ZM858.252 370.16H709.088V378.16H858.252V370.16ZM713.088 374.16V324.676H705.088V374.16H713.088ZM862.252 324.676V238.524H854.252V324.676H862.252ZM855.435 235.684L768.571 321.836L774.204 327.516L861.068 241.364L855.435 235.684ZM771.388 328.676H858.252V320.676H771.388V328.676Z" fill="#E1EAF9" mask="url(#path-7-outside-3_823_8267)"/>
<path d="M193 325.886L346.354 171.8H397.594V325.886H422.848V376.76H397.594V428H346.354V376.76H193V325.886ZM346.354 325.886V237.314L257.05 325.886H346.354ZM499.868 343.454L594.662 223.04H499.868V343.454ZM627.602 376.76V257.444L534.638 376.76H627.602ZM653.222 428H473.882L448.628 402.746V197.786L473.882 171.8H653.222L678.476 197.786V402.746L653.222 428ZM696.607 325.886L849.961 171.8H901.201V325.886H926.455V376.76H901.201V428H849.961V376.76H696.607V325.886ZM849.961 325.886V237.314L760.657 325.886H849.961Z" fill="#576677"/>
<path fill-rule="evenodd" clip-rule="evenodd" d="M109.46 358.005L106.86 364.275L101.387 363.333C100.668 364.146 99.8499 364.86 98.9461 365.444L98.8055 370.938L91.9918 371.837L89.7656 366.648C89.4239 366.548 89.0789 366.434 88.7295 366.302C87.8581 365.974 87.0573 365.605 86.3201 365.202L81.0245 367.81L76.8107 362.438L80.1602 358.37C79.6938 357.07 79.4774 355.722 79.4846 354.38L74.9793 351.276L77.4173 345.471L82.4803 346.184C83.4134 345.041 84.5399 344.055 85.8192 343.295L86.1153 338.497L92.4392 337.691L94.3037 341.891C95.0663 342.041 95.8447 342.26 96.6374 342.559C97.5541 342.904 98.385 343.312 99.1374 343.771L103.957 341.552L107.843 346.552L104.456 350.822C104.806 352.155 104.927 353.539 104.841 354.912L109.46 358.005ZM94.6165 348.252C86.4594 345.178 80.9537 357.419 90.3804 360.972C98.3277 363.967 102.931 351.386 94.6165 348.252Z" fill="#E1EAF9"/>
<path fill-rule="evenodd" clip-rule="evenodd" d="M1100.75 249.242L1098.15 255.512L1092.68 254.571C1091.96 255.383 1091.14 256.097 1090.24 256.682L1090.1 262.175L1083.28 263.074L1081.06 257.885C1080.72 257.785 1080.37 257.671 1080.02 257.539C1079.15 257.211 1078.35 256.842 1077.61 256.439L1072.32 259.047L1068.1 253.675L1071.45 249.607C1070.99 248.307 1070.77 246.959 1070.78 245.617L1066.27 242.513L1068.71 236.708L1073.77 237.422C1074.71 236.278 1075.83 235.292 1077.11 234.532L1077.41 229.734L1083.73 228.928L1085.6 233.128C1086.36 233.278 1087.14 233.497 1087.93 233.796C1088.85 234.141 1089.68 234.55 1090.43 235.008L1095.25 232.789L1099.14 237.789L1095.75 242.059C1096.1 243.392 1096.22 244.776 1096.13 246.15L1100.75 249.242ZM1085.91 239.489C1077.75 236.415 1072.25 248.656 1081.67 252.209C1089.62 255.205 1094.22 242.623 1085.91 239.489Z" fill="#E1EAF9"/>
</svg>
