<svg width="47" height="47" viewBox="0 0 47 47" fill="none" xmlns="http://www.w3.org/2000/svg">
<path d="M26.0393 46.0195H20.198C19.7988 46.0195 19.4586 45.7311 19.3951 45.3388L18.5962 40.4024C16.9677 39.9844 15.413 39.3429 13.9612 38.4901L9.88786 41.4193C9.5643 41.6518 9.11875 41.6166 8.83651 41.3355L4.70619 37.2246C4.4239 36.9436 4.38822 36.5003 4.62206 36.1782L7.5651 32.1242C6.7084 30.6797 6.06378 29.132 5.64358 27.511L0.683918 26.7158C0.289779 26.6526 0 26.3141 0 25.9167V20.1028C0 19.7054 0.289779 19.3668 0.683918 19.3036L5.64358 18.5086C6.06375 16.8874 6.70838 15.3398 7.56505 13.8952L4.62206 9.84135C4.38822 9.51929 4.4239 9.07596 4.70619 8.79492L8.83651 4.68381C9.11882 4.40287 9.56438 4.36738 9.88786 4.60007L13.9611 7.52926C15.4128 6.67639 16.9675 6.03501 18.5962 5.61689L19.3951 0.6807C19.4586 0.28839 19.7988 0 20.198 0H26.0393C26.4386 0 26.7787 0.288415 26.8422 0.6807L27.6412 5.61694C29.2699 6.03498 30.8247 6.67655 32.2762 7.52942L36.3495 4.60018C36.6729 4.36738 37.1183 4.40295 37.4009 4.68391L41.5312 8.7949C41.8135 9.07586 41.8491 9.51923 41.6153 9.84132L38.6723 13.8953C39.5294 15.3404 40.1738 16.8877 40.5938 18.5085L45.5534 19.3036C45.9476 19.3668 46.2374 19.7054 46.2374 20.1028V25.9166C46.2374 26.314 45.9476 26.6526 45.5534 26.7158L40.5937 27.511C40.1736 29.132 39.529 30.6797 38.6723 32.1242L41.6153 36.1783C41.8491 36.5003 41.8135 36.9437 41.5312 37.2248L37.4009 41.3356C37.1186 41.6167 36.673 41.6519 36.3495 41.4193L32.276 38.4901C30.8246 39.3427 29.2698 39.9843 27.6412 40.4023L26.8422 45.3388C26.7787 45.7311 26.4386 46.0195 26.0393 46.0195ZM20.8908 44.4006H25.3465L26.1213 39.6133C26.1742 39.2869 26.4213 39.0251 26.7455 38.9524C28.5682 38.5435 30.2955 37.8309 31.8792 36.8344C32.1598 36.6577 32.5205 36.6686 32.7901 36.8625L36.7406 39.7033L39.8911 36.5676L37.037 32.6359C36.8424 32.3678 36.8312 32.0089 37.0087 31.7293C38.0099 30.153 38.7259 28.4338 39.1371 26.6194C39.2102 26.2968 39.4731 26.051 39.8011 25.9983L44.6108 25.2272V20.7923L39.8011 20.0212C39.4731 19.9686 39.21 19.7227 39.137 19.4C38.7263 17.5862 38.0102 15.867 37.0087 14.2902C36.8312 14.0107 36.8424 13.6518 37.037 13.3837L39.8911 9.45209L36.7406 6.3162L32.7903 9.15703C32.5208 9.35068 32.1602 9.36181 31.8794 9.18508C30.2956 8.18848 28.5683 7.47574 26.7455 7.06686C26.4213 6.99413 26.1742 6.7325 26.1214 6.40599L25.3466 1.61891H20.8908L20.116 6.40586C20.0632 6.73238 19.8161 6.99403 19.4919 7.06676C17.6692 7.47576 15.9419 8.18843 14.3579 9.18493C14.0769 9.36166 13.7164 9.35042 13.4471 9.15682L9.49679 6.3161L6.34617 9.45209L9.20033 13.3836C9.39495 13.6516 9.40613 14.0106 9.22857 14.2901C8.22749 15.8663 7.5114 17.5856 7.10028 19.4002C7.02712 19.7227 6.76426 19.9686 6.43625 20.0212L1.62654 20.7923V25.2271L6.43625 25.9983C6.76426 26.0509 7.02715 26.2968 7.10028 26.6194C7.51132 28.4338 8.22741 30.153 9.22857 31.7293C9.40613 32.0089 9.39495 32.3678 9.20033 32.6359L6.34617 36.5674L9.49679 39.7033L13.447 36.8625C13.7163 36.6687 14.077 36.6575 14.3578 36.8344C15.9422 37.8309 17.6695 38.5436 19.4919 38.9526C19.8161 39.0253 20.0631 39.287 20.116 39.6134L20.8908 44.4006Z" fill="#6899ED"/>
<path d="M23.1186 35.4588C16.2216 35.4588 10.6105 29.874 10.6105 23.0095C10.6105 16.145 16.2216 10.5603 23.1186 10.5603C30.0157 10.5603 35.6269 16.145 35.6269 23.0095C35.6269 29.874 30.0157 35.4588 23.1186 35.4588ZM23.1186 12.1792C17.1185 12.1792 12.237 17.0376 12.237 23.0095C12.237 28.9814 17.1185 33.8399 23.1186 33.8399C29.1188 33.8399 34.0003 28.9814 34.0003 23.0095C34.0003 17.0376 29.1188 12.1792 23.1186 12.1792Z" fill="#6899ED"/>
</svg>
