<svg width="47" height="47" viewBox="0 0 47 47" fill="none" xmlns="http://www.w3.org/2000/svg">
<path d="M5.1265 24.2905H3.9097C3.50639 24.2905 3.17966 24.6173 3.17966 25.0206C3.17966 25.4238 3.50639 25.7506 3.9097 25.7506H5.1265C5.52981 25.7506 5.85654 25.4238 5.85654 25.0206C5.85654 24.6173 5.52981 24.2905 5.1265 24.2905Z" fill="#6899ED"/>
<path d="M21.1655 24.2905H18.4923C18.089 24.2905 17.7623 24.6173 17.7623 25.0206C17.7623 25.4238 18.089 25.7506 18.4923 25.7506H21.1655C21.5688 25.7506 21.8955 25.4238 21.8955 25.0206C21.8955 24.6173 21.5688 24.2905 21.1655 24.2905Z" fill="#6899ED"/>
<path d="M15.8192 24.2905H13.1461C12.7428 24.2905 12.416 24.6173 12.416 25.0206C12.416 25.4238 12.7428 25.7506 13.1461 25.7506H15.8192C16.2225 25.7506 16.5493 25.4238 16.5493 25.0206C16.5493 24.6173 16.2225 24.2905 15.8192 24.2905Z" fill="#6899ED"/>
<path d="M10.4728 24.2905H7.79967C7.39636 24.2905 7.06963 24.6173 7.06963 25.0206C7.06963 25.4238 7.39645 25.7506 7.79967 25.7506H10.4728C10.8761 25.7506 11.2029 25.4238 11.2029 25.0206C11.2029 24.6173 10.8761 24.2905 10.4728 24.2905Z" fill="#6899ED"/>
<path d="M45.5069 2.73972H43.5411L42.1936 0.369354C42.0639 0.140969 41.8215 0 41.5589 0H29.0036C28.7411 0 28.4986 0.140969 28.3688 0.369354L27.0214 2.7399H25.0556C24.6523 2.7399 24.3255 3.06663 24.3255 3.46994V21.3289H22.0487C22.0647 21.234 22.075 21.1373 22.075 21.0378V15.2188C22.075 14.8154 21.7483 14.4887 21.345 14.4887C20.9417 14.4887 20.6149 14.8154 20.6149 15.2188V21.0378C20.6149 21.1982 20.4843 21.3289 20.3239 21.3289H15.7036V19.6578C15.7036 19.2545 15.3769 18.9277 14.9736 18.9277H10.5484C10.1451 18.9277 9.81832 19.2546 9.81832 19.6578V21.3289H5.19796C5.03758 21.3289 4.9069 21.1982 4.9069 21.0378V10.7405C4.9069 10.5801 5.03758 10.4495 5.19796 10.4495H9.81805V15.2507C9.81805 15.5306 9.97798 15.7858 10.2299 15.9078C10.331 15.9567 10.4398 15.9808 10.5481 15.9808C10.7094 15.9808 10.8695 15.9273 11.0008 15.8234L12.7609 14.4324L14.5205 15.8234C14.7402 15.997 15.0395 16.0297 15.2914 15.9077C15.5434 15.7857 15.7033 15.5305 15.7033 15.2506V10.4494H20.3236C20.484 10.4494 20.6147 10.5801 20.6147 10.7404V12.7857C20.6147 13.189 20.9414 13.5157 21.3447 13.5157C21.748 13.5157 22.0747 13.1889 22.0747 12.7857V10.7404C22.0747 9.77479 21.2892 8.98931 20.3236 8.98931H14.9732H10.548H5.19796C4.23231 8.98931 3.44683 9.77489 3.44683 10.7404V21.0377C3.44683 21.1389 3.4573 21.2375 3.47392 21.334C1.54117 21.4362 0 23.0406 0 24.9982V25.0433C0 27.0666 1.6462 28.7127 3.6697 28.7127H4.14246L5.48992 31.0833C5.61969 31.3117 5.86208 31.4526 6.1246 31.4526H6.9659V44.2869C6.9659 45.3621 7.8407 46.2369 8.91598 46.2369H9.2158C10.291 46.2369 11.1659 45.3621 11.1659 44.2869V41.5845H42.037V44.2869C42.037 45.3621 42.9118 46.2369 43.987 46.2369H44.2868C45.362 46.2369 46.2368 45.3621 46.2368 44.2869V30.7226V3.46985C46.237 3.06663 45.9102 2.73972 45.5069 2.73972ZM11.2782 10.4495H14.2434V13.7431L13.2138 12.9292C12.9485 12.7196 12.5738 12.7195 12.3083 12.9292L11.2782 13.7432V10.4495ZM29.4283 1.46008H41.1341L41.8616 2.73972H28.701L29.4283 1.46008ZM11.2782 20.3877H14.2434V21.3288H11.2782V20.3877ZM4.56717 27.2527H3.66961C2.45128 27.2527 1.46008 26.2616 1.46008 25.0433V24.9982C1.46008 23.7799 2.45128 22.7889 3.66961 22.7889H5.19796H10.5481H14.9733H20.3236H24.3254V24.2907H23.8387C23.4354 24.2907 23.1087 24.6174 23.1087 25.0207C23.1087 25.424 23.4354 25.7508 23.8387 25.7508H24.3254V27.2527H4.56717ZM9.70571 35.1784V44.287C9.70571 44.5571 9.4859 44.7769 9.2158 44.7769H8.91598C8.64587 44.7769 8.42606 44.5571 8.42606 44.287V31.4526H9.70571V35.1784ZM10.4358 29.9926H7.69603H6.5494L5.82207 28.7129H24.3255V29.9926H14.8914H10.4358ZM13.129 31.4526L11.1659 33.4158V31.4526H13.129ZM42.037 37.3847H39.8468C39.4435 37.3847 39.1168 37.7114 39.1168 38.1147C39.1168 38.5181 39.4436 38.8448 39.8468 38.8448H42.037V40.1244H11.2782V38.8448H37.4133C37.8166 38.8448 38.1434 38.5181 38.1434 38.1147C38.1434 37.7114 37.8166 37.3847 37.4133 37.3847H11.1659V35.4808L15.1938 31.4526H25.0556H38.009L42.0369 35.4808L42.037 37.3847ZM42.037 33.4158L40.0739 31.4526H42.037V33.4158ZM44.7768 44.287C44.7768 44.5571 44.557 44.7769 44.2869 44.7769H43.9871C43.717 44.7769 43.4972 44.5571 43.4972 44.287V40.8546V38.1148V35.1785V31.4528H44.7768V44.287ZM44.7768 29.9926H42.7671H38.3114H25.7856V27.9829V22.059V4.19989H27.4462H43.1164H44.7769V29.9926H44.7768Z" fill="#6899ED"/>
<path d="M29.3429 16.6192H37.2184C37.6217 16.6192 37.9484 16.2925 37.9484 15.8892C37.9484 15.4859 37.6216 15.1592 37.2184 15.1592H29.3429C29.1637 15.1592 29.0178 15.0133 29.0178 14.8341V7.94348C29.0178 7.76422 29.1637 7.61837 29.3429 7.61837H41.2194C41.3987 7.61837 41.5445 7.76422 41.5445 7.94348V14.8341C41.5445 15.0134 41.3986 15.1592 41.2194 15.1592H39.7493C39.346 15.1592 39.0193 15.4859 39.0193 15.8892C39.0193 16.2925 39.346 16.6192 39.7493 16.6192H41.2194C42.2037 16.6192 43.0046 15.8183 43.0046 14.834V7.94348C43.0046 6.95913 42.2038 6.1582 41.2194 6.1582H29.3429C28.3586 6.1582 27.5577 6.95913 27.5577 7.94348V14.8341C27.5577 15.8184 28.3586 16.6192 29.3429 16.6192Z" fill="#6899ED"/>
<path d="M28.2877 19.7062H42.2744C42.6777 19.7062 43.0044 19.3794 43.0044 18.9761C43.0044 18.5728 42.6776 18.2461 42.2744 18.2461H28.2877C27.8844 18.2461 27.5577 18.5728 27.5577 18.9761C27.5577 19.3794 27.8846 19.7062 28.2877 19.7062Z" fill="#6899ED"/>
<path d="M43.0045 22.0589C43.0045 21.6556 42.6777 21.3289 42.2745 21.3289H28.2878C27.8845 21.3289 27.5578 21.6556 27.5578 22.0589C27.5578 22.4622 27.8847 22.7889 28.2878 22.7889H42.2745C42.6778 22.7889 43.0045 22.4622 43.0045 22.0589Z" fill="#6899ED"/>
<path d="M36.0503 24.2488C34.8427 24.2488 33.8601 25.2313 33.8601 26.439C33.8601 27.6467 34.8426 28.6292 36.0503 28.6292C37.258 28.6292 38.2405 27.6467 38.2405 26.439C38.2405 25.2313 37.2581 24.2488 36.0503 24.2488ZM36.0503 27.169C35.6477 27.169 35.3203 26.8416 35.3203 26.439C35.3203 26.0364 35.6477 25.7089 36.0503 25.7089C36.4529 25.7089 36.7804 26.0364 36.7804 26.439C36.7804 26.8415 36.4529 27.169 36.0503 27.169Z" fill="#6899ED"/>
<path d="M41.131 24.2488C39.9234 24.2488 38.9408 25.2313 38.9408 26.439C38.9408 27.6467 39.9233 28.6292 41.131 28.6292C42.3386 28.6292 43.3212 27.6467 43.3212 26.439C43.3212 25.2313 42.3385 24.2488 41.131 24.2488ZM41.131 27.169C40.7284 27.169 40.4009 26.8416 40.4009 26.439C40.4009 26.0364 40.7284 25.7089 41.131 25.7089C41.5336 25.7089 41.861 26.0364 41.861 26.439C41.861 26.8415 41.5336 27.169 41.131 27.169Z" fill="#6899ED"/>
</svg>
