<svg width="48" height="43" viewBox="0 0 48 43" fill="none" xmlns="http://www.w3.org/2000/svg">
<path d="M17.6095 25.6475L17.039 25.794L16.9448 26.3755L16.4807 29.2433H13.3503L12.8861 26.3756L12.792 25.7941L12.2215 25.6476C11.2524 25.3989 10.3275 25.0172 9.46317 24.5095L8.95776 24.2126L8.48188 24.5549L6.11116 26.2597L3.90107 24.06L5.6091 21.7072L5.95673 21.2284L5.65488 20.7194C5.14522 19.86 4.76208 18.94 4.51228 17.9764L4.36461 17.4067L3.78355 17.3135L0.9 16.8512V13.745L3.78353 13.2827L4.36463 13.1896L4.51229 12.6199C4.76207 11.6561 5.1452 10.7362 5.65486 9.87675L5.95669 9.36779L5.60906 8.88895L3.90105 6.53621L6.11115 4.33639L8.48186 6.04122L8.95777 6.38347L9.4632 6.08653C10.3274 5.57884 11.2522 5.19729 12.2215 4.94847L12.792 4.802L12.8861 4.22053L13.3503 1.35288H16.4807L16.9449 4.22057L17.039 4.80206L17.6095 4.94851C18.5787 5.19727 19.5037 5.57892 20.3677 6.0866L20.8731 6.3836L21.3491 6.04132L23.7198 4.33643L25.9299 6.53617L24.2219 8.88901L23.8743 9.36787L24.1761 9.87683C24.686 10.7366 25.069 11.6563 25.3187 12.6198L25.4664 13.1895L26.0475 13.2827L28.931 13.7449V16.8512L26.0474 17.3135L25.4663 17.4067L25.3187 17.9764C25.0689 18.9401 24.6858 19.86 24.1761 20.7193L23.8743 21.2283L24.2219 21.7072L25.93 24.0601L23.7199 26.2598L21.3489 24.5548L20.873 24.2126L20.3676 24.5095C19.5036 25.0171 18.5787 25.3988 17.6095 25.6475ZM6.33612 26.4836L6.33596 26.4835L6.33612 26.4836ZM26.1207 24.3229C26.1206 24.3227 26.1204 24.3225 26.1203 24.3223L26.1206 24.3228L26.1207 24.3229Z" stroke="#6899ED" stroke-width="1.8"/>
<circle cx="14.9155" cy="15.2982" r="6.18649" stroke="#6899ED" stroke-width="1.8"/>
<rect x="0.9" y="35.2752" width="45.8163" height="6.33504" rx="3.1" stroke="#6899ED" stroke-width="1.8"/>
<circle cx="7.76386" cy="38.4427" r="0.9" stroke="#6899ED" stroke-width="1.29535"/>
<circle cx="15.7013" cy="38.4427" r="0.9" stroke="#6899ED" stroke-width="1.29535"/>
<circle cx="32.4192" cy="38.4427" r="0.9" stroke="#6899ED" stroke-width="1.29535"/>
<circle cx="23.8082" cy="38.4427" r="0.9" stroke="#6899ED" stroke-width="1.29535"/>
<circle cx="40.5261" cy="38.4427" r="0.9" stroke="#6899ED" stroke-width="1.29535"/>
<path d="M29.5984 34.6441L29.5984 26.9875H44.3218V34.3816" stroke="#6899ED" stroke-width="1.8" stroke-linecap="round"/>
<path d="M36.9167 27.0369V34.5639" stroke="#6899ED" stroke-width="1.8" stroke-linecap="round"/>
<path d="M34.6965 26.9286V19.7805L41.9675 19.7805V26.9286" stroke="#6899ED" stroke-width="1.8" stroke-linecap="round"/>
</svg>
