<svg width="49" height="43" viewBox="0 0 49 43" fill="none" xmlns="http://www.w3.org/2000/svg">
<path d="M1.42566 9.88474V1H47.2371V9.88474C46.543 9.65334 43.6277 9.88474 43.6277 9.88474C43.6277 12.3603 40.5645 15.7152 37.6253 15.7152C29.6198 15.8078 14.2806 15.9373 10.1715 15.7152C6.06233 15.4931 3.92446 11.7357 3.36917 9.88474H1.42566Z" stroke="#6899ED" stroke-width="1.8"/>
<circle cx="13.1951" cy="7.68244" r="2.41867" stroke="#6899ED" stroke-width="1.8"/>
<circle cx="22.6313" cy="7.68244" r="2.41867" stroke="#6899ED" stroke-width="1.8"/>
<path d="M30.5881 5.56323H39.2247V10.2813H34.8264" stroke="#6899ED" stroke-width="1.8" stroke-linecap="round"/>
<path d="M10.996 16.1987V19.7173H25.4702V16.1987" stroke="#6899ED" stroke-width="1.8" stroke-linecap="round"/>
<path d="M15.4742 20.0374V28.7538" stroke="#6899ED" stroke-width="1.8" stroke-linecap="round"/>
<path d="M20.752 20.0374V28.7538" stroke="#6899ED" stroke-width="1.8" stroke-linecap="round"/>
<path d="M20.832 23.156L15.7141 25.5551" stroke="#6899ED" stroke-width="1.8" stroke-linecap="round"/>
<path d="M1 29.0735H32.3474V26.1946H40.6641V29.0735H46.4217V34.2713H40.6641V37.2301H30.828V34.2713H1V29.0735Z" stroke="#6899ED" stroke-width="1.8" stroke-linecap="round"/>
<path d="M32.4274 29.3936V33.312L30.748 34.3516" stroke="#6899ED" stroke-width="1.8" stroke-linecap="round"/>
<path d="M38.5849 25.9548V21.3967H34.0267V23.2359" stroke="#6899ED" stroke-width="1.8" stroke-linecap="round"/>
<path d="M3.95883 34.6714V42.0284H43.7028V34.6714" stroke="#6899ED" stroke-width="1.8" stroke-linecap="round"/>
</svg>
