<svg width="48" height="48" viewBox="0 0 48 48" fill="none" xmlns="http://www.w3.org/2000/svg">
<path d="M23.7987 24.6856L23.707 24.33L23.3926 24.14L3.10502 11.885C7.25036 5.30452 14.579 0.935156 22.9272 0.935156C35.8561 0.935156 46.3371 11.4161 46.3371 24.3451C46.3371 34.9885 39.2333 43.9749 29.5072 46.8178L23.7987 24.6856Z" stroke="#6899ED" stroke-width="1.8"/>
<path d="M7.23155 12.5627C10.8114 8.05255 16.3413 5.16016 22.5468 5.16016C33.3397 5.16016 42.089 13.9095 42.089 24.7024C42.089 32.4873 37.537 39.209 30.9493 42.351" stroke="#6899ED" stroke-width="1.8"/>
<path d="M7.7814 15.5129C6.05024 18.2302 5.04723 21.4565 5.04723 24.9171C5.04723 34.5963 12.8938 42.4429 22.573 42.4429C24.2981 42.4429 25.965 42.1936 27.5397 41.7291" stroke="#6899ED" stroke-width="1.8"/>
<path d="M4.3387 13.3872C2.22477 16.7052 1 20.6449 1 24.8707C1 36.69 10.5814 46.2714 22.4007 46.2714C24.5073 46.2714 26.5428 45.967 28.4656 45.3999" stroke="#6899ED" stroke-width="1.8"/>
<path d="M19.164 22.4546C18.7446 23.1128 18.5016 23.8943 18.5016 24.7326C18.5016 27.0772 20.4023 28.9779 22.747 28.9779C23.1649 28.9779 23.5686 28.9175 23.9501 28.805" stroke="#6899ED" stroke-width="1.8"/>
<circle cx="11.354" cy="23.9802" r="1.2443" stroke="#6899ED" stroke-width="1.8"/>
<circle cx="20.6459" cy="35.6309" r="1.2443" stroke="#6899ED" stroke-width="1.8"/>
</svg>
