<svg width="66" height="49" viewBox="0 0 66 49" fill="none" xmlns="http://www.w3.org/2000/svg">
<path d="M20.0596 36.2548V13.0099L42.5297 1L64.9998 13.3973V36.2548L42.5297 47.8773L20.0596 36.2548Z" fill="#FAFAFA" stroke="#2E6BD1"/>
<path d="M20.0596 13.0099L42.5297 24.6324L64.9998 13.3973" stroke="#2E6BD1"/>
<path d="M42.5312 24.6324V47.4899" stroke="#2E6BD1"/>
<path d="M28.585 8.74832L51.0551 20.3708V28.8939L57.2537 25.7946V17.2715L45.5 11.2882M34.5 5.68866L40 8.48844" stroke="#2E6BD1" stroke-linecap="round"/>
<path d="M30.5215 35.8674L39.0446 40.129" stroke="#2E6BD1" stroke-linecap="round"/>
<path d="M35.1699 33.5429L39.0441 35.48" stroke="#2E6BD1" stroke-linecap="round"/>
<path d="M30.5 7.18866H17" stroke="#2E6BD1" stroke-linecap="square"/>
<path d="M19.2859 13.8671L12.4287 13.8671" stroke="#2E6BD1" stroke-linecap="round"/>
<path d="M25.0979 38.9668L11.9258 38.9668" stroke="#2E6BD1" stroke-linecap="round"/>
<path d="M19.2859 21.8672L1 21.8672" stroke="#2E6BD1" stroke-linecap="round"/>
</svg>
