<svg width="47" height="44" viewBox="0 0 47 44" fill="none" xmlns="http://www.w3.org/2000/svg">
<path d="M7.70637 34.6779C8.98349 34.6779 10.0182 33.6432 10.0182 32.366C10.0182 31.0889 8.98349 30.0542 7.70637 30.0542C6.42926 30.0542 5.39453 31.0889 5.39453 32.366C5.39453 33.6432 6.42926 34.6779 7.70637 34.6779ZM7.70637 31.5954C8.13235 31.5954 8.47696 31.9401 8.47696 32.366C8.47696 32.7918 8.13226 33.1365 7.70637 33.1365C7.28049 33.1365 6.93579 32.7918 6.93579 32.366C6.93579 31.9401 7.2804 31.5954 7.70637 31.5954Z" fill="#6899ED"/>
<path d="M13.8704 34.6779C15.1475 34.6779 16.1823 33.6432 16.1823 32.366C16.1823 31.0889 15.1475 30.0542 13.8704 30.0542C12.5933 30.0542 11.5586 31.0889 11.5586 32.366C11.5586 33.6432 12.5933 34.6779 13.8704 34.6779ZM13.8704 31.5954C14.2963 31.5954 14.641 31.9401 14.641 32.366C14.641 32.7918 14.2963 33.1365 13.8704 33.1365C13.4445 33.1365 13.0999 32.7918 13.0999 32.366C13.0999 31.9401 13.4446 31.5954 13.8704 31.5954Z" fill="#6899ED"/>
<path d="M20.0365 34.6779C21.3136 34.6779 22.3483 33.6432 22.3483 32.366C22.3483 31.0889 21.3136 30.0542 20.0365 30.0542C18.7593 30.0542 17.7246 31.0889 17.7246 32.366C17.7246 33.6432 18.7593 34.6779 20.0365 34.6779ZM20.0365 31.5954C20.4623 31.5954 20.807 31.9401 20.807 32.366C20.807 32.7918 20.4623 33.1365 20.0365 33.1365C19.6105 33.1365 19.2659 32.7918 19.2659 32.366C19.2659 31.9401 19.6106 31.5954 20.0365 31.5954Z" fill="#6899ED"/>
<path d="M26.2005 34.6779C27.4776 34.6779 28.5124 33.6432 28.5124 32.366C28.5124 31.0889 27.4776 30.0542 26.2005 30.0542C24.9234 30.0542 23.8887 31.0889 23.8887 32.366C23.8887 33.6432 24.9234 34.6779 26.2005 34.6779ZM26.2005 31.5954C26.6264 31.5954 26.9711 31.9401 26.9711 32.366C26.9711 32.7918 26.6264 33.1365 26.2005 33.1365C25.7746 33.1365 25.4299 32.7918 25.4299 32.366C25.4299 31.9401 25.7745 31.5954 26.2005 31.5954Z" fill="#6899ED"/>
<path d="M32.3665 34.6779C33.6436 34.6779 34.6784 33.6432 34.6784 32.366C34.6784 31.0889 33.6436 30.0542 32.3665 30.0542C31.0894 30.0542 30.0547 31.0889 30.0547 32.366C30.0547 33.6432 31.0894 34.6779 32.3665 34.6779ZM32.3665 31.5954C32.7924 31.5954 33.1371 31.9401 33.1371 32.366C33.1371 32.7918 32.7924 33.1365 32.3665 33.1365C31.9406 33.1365 31.5959 32.7918 31.5959 32.366C31.5959 31.9401 31.9406 31.5954 32.3665 31.5954Z" fill="#6899ED"/>
<path d="M38.5306 34.6779C39.8077 34.6779 40.8424 33.6432 40.8424 32.366C40.8424 31.0889 39.8077 30.0542 38.5306 30.0542C37.2535 30.0542 36.2188 31.0889 36.2188 32.366C36.2188 33.6432 37.2535 34.6779 38.5306 34.6779ZM38.5306 31.5954C38.9565 31.5954 39.3012 31.9401 39.3012 32.366C39.3012 32.7918 38.9565 33.1365 38.5306 33.1365C38.1047 33.1365 37.76 32.7918 37.76 32.366C37.76 31.9401 38.1047 31.5954 38.5306 31.5954Z" fill="#6899ED"/>
<path d="M45.4665 42.3838H43.9253V37.7601H44.412C45.42 37.7601 46.2368 36.943 46.2368 35.9353V28.7963C46.2368 27.8855 45.5687 27.1325 44.6959 26.9958V24.259C44.6959 23.3305 44.0329 22.5568 43.1547 22.3844V1.79249C43.1547 0.802824 42.352 0 41.3622 0H38.7821C37.7925 0 36.9897 0.802733 36.9897 1.79249V3.8531H27.7423V0.770674C27.7423 0.34506 27.3973 9.03429e-05 26.9717 9.03429e-05H19.2656C18.84 9.03429e-05 18.495 0.34506 18.495 0.770674V3.8531H9.24764V1.79249C9.24764 0.802824 8.44491 0 7.45515 0H4.8751C3.88543 0 3.08261 0.802733 3.08261 1.79249V22.3844C2.20447 22.5569 1.54135 23.3305 1.54135 24.259V26.9958C0.668718 27.1326 0 27.8856 0 28.7963V35.9353C0 36.943 0.817634 37.7601 1.82554 37.7601H2.31211V42.3838H0.770945C0.345331 42.3838 0.000361225 42.7288 0.000361225 43.1544C0.000361225 43.58 0.345331 43.925 0.770945 43.925H3.08279H7.70647H38.531H43.1547H45.4665C45.8921 43.925 46.2371 43.58 46.2371 43.1544C46.2371 42.7288 45.8921 42.3838 45.4665 42.3838ZM38.531 1.79249C38.531 1.65396 38.6437 1.54126 38.7822 1.54126H41.3623C41.5008 1.54126 41.6135 1.65396 41.6135 1.79249V22.3478H38.531V8.47678V4.62377V1.79249ZM9.24764 9.24746H18.495V12.3299C18.495 12.7555 18.8401 13.1005 19.2656 13.1005H20.8069V14.6417C20.8069 15.6486 21.4501 16.5043 22.3481 16.8215V18.4947C22.3481 18.9204 22.6931 19.2653 23.1187 19.2653C23.5443 19.2653 23.8893 18.9203 23.8893 18.4947V16.8215C24.7872 16.5042 25.4305 15.6486 25.4305 14.6417V13.1005H26.9718C27.3974 13.1005 27.7424 12.7555 27.7424 12.3299V9.24746H36.9897V22.3479H9.24764V9.24746ZM23.1187 15.4123C22.6928 15.4123 22.3481 15.0676 22.3481 14.6417V13.1005H23.8894V14.6417C23.8894 15.0677 23.5447 15.4123 23.1187 15.4123ZM36.9897 5.39436V7.7062H27.7424V5.39436H36.9897ZM20.0363 1.54126H26.2012V4.62368V8.47678V11.5592H24.66H21.5775H20.0363V8.47678V4.62377V1.54126ZM18.495 5.39436V7.7062H9.24764V5.39436H18.495ZM4.62396 1.79249C4.62396 1.65396 4.73666 1.54126 4.87519 1.54126H7.45524C7.59377 1.54126 7.70647 1.65396 7.70647 1.79249V4.62368V8.47678V22.3478H4.62396V1.79249ZM3.08279 24.259C3.08279 24.055 3.24868 23.8891 3.45268 23.8891H9.24773H36.9898H42.7849C42.9889 23.8891 43.1548 24.055 43.1548 24.259V26.9715H3.08279V24.259ZM1.54126 35.9353V28.7963C1.54126 28.6401 1.66868 28.5128 1.82563 28.5128H2.3122H43.9254H44.4121C44.5687 28.5128 44.6957 28.6397 44.6957 28.7963V35.9353C44.6957 36.0919 44.5687 36.2189 44.4121 36.2189H43.1547H38.531H7.70647H3.08279H1.82554C1.66859 36.2189 1.54126 36.0916 1.54126 35.9353ZM37.7604 37.7601V42.3838H8.47706V37.7601H37.7604ZM3.85337 42.3838V37.7601H6.9358V42.3838H3.85337ZM39.3016 42.3838V37.7601H42.384V42.3838H39.3016Z" fill="#6899ED"/>
</svg>
