<svg width="45" height="44" viewBox="0 0 45 44" fill="none" xmlns="http://www.w3.org/2000/svg">
<path d="M20.3443 2.22718C21.5233 1.00908 23.4767 1.00908 24.6557 2.22718L27.9772 5.65899C28.5542 6.25512 29.3523 6.5857 30.1818 6.57216L34.9572 6.49423C36.6522 6.46657 38.0334 7.84779 38.0058 9.54278L37.9278 14.3182C37.9143 15.1477 38.2449 15.9458 38.841 16.5228L42.2728 19.8443C43.4909 21.0233 43.4909 22.9767 42.2728 24.1557L38.841 27.4772C38.2449 28.0542 37.9143 28.8523 37.9278 29.6818L38.0058 34.4572C38.0334 36.1522 36.6522 37.5334 34.9572 37.5058L30.1819 37.4278C29.3523 37.4143 28.5542 37.7449 27.9772 38.341L24.6557 41.7728C23.4767 42.9909 21.5233 42.9909 20.3443 41.7728L17.0228 38.341C16.4458 37.7449 15.6477 37.4143 14.8182 37.4278L10.0428 37.5058C8.34779 37.5334 6.96657 36.1522 6.99423 34.4572L7.07216 29.6819C7.0857 28.8523 6.75512 28.0542 6.15899 27.4772L2.72718 24.1557C1.50908 22.9767 1.50908 21.0233 2.72718 19.8443L6.15899 16.5228C6.75512 15.9458 7.0857 15.1477 7.07216 14.3182L6.99423 9.54278C6.96657 7.84779 8.34779 6.46657 10.0428 6.49423L14.8182 6.57216C15.6477 6.5857 16.4458 6.25512 17.0228 5.65899L20.3443 2.22718Z" stroke="#6899ED" stroke-width="2"/>
<path d="M16.7461 21.8872L21.0977 26.4001L28.9307 18.277" stroke="#6899ED" stroke-width="2" stroke-linecap="round"/>
<circle cx="22.5" cy="22.5" r="12.5" stroke="#6899ED" stroke-width="2"/>
</svg>
