<svg width="352" height="25" viewBox="0 0 352 25" fill="none" xmlns="http://www.w3.org/2000/svg">
<path d="M338.651 13.7456C338.424 13.7456 338.215 13.6889 338.022 13.5756C337.835 13.4566 337.685 13.3008 337.572 13.1081C337.464 12.9098 337.41 12.6973 337.41 12.4706C337.41 12.2383 337.464 12.0258 337.572 11.8331C337.685 11.6404 337.835 11.4874 338.022 11.3741C338.215 11.2608 338.424 11.2041 338.651 11.2041C338.889 11.2041 339.102 11.2608 339.289 11.3741C339.476 11.4874 339.623 11.6404 339.731 11.8331C339.844 12.0258 339.901 12.2383 339.901 12.4706C339.901 12.6973 339.844 12.9098 339.731 13.1081C339.623 13.3008 339.476 13.4566 339.289 13.5756C339.102 13.6889 338.889 13.7456 338.651 13.7456Z" fill="#2E6BD1"/>
<path d="M350.432 13.7456C350.206 13.7456 349.996 13.6889 349.803 13.5756C349.616 13.4566 349.466 13.3008 349.353 13.1081C349.245 12.9098 349.191 12.6973 349.191 12.4706C349.191 12.2383 349.245 12.0258 349.353 11.8331C349.466 11.6404 349.616 11.4874 349.803 11.3741C349.996 11.2608 350.206 11.2041 350.432 11.2041C350.67 11.2041 350.883 11.2608 351.07 11.3741C351.257 11.4874 351.404 11.6404 351.512 11.8331C351.625 12.0258 351.682 12.2383 351.682 12.4706C351.682 12.6973 351.625 12.9098 351.512 13.1081C351.404 13.3008 351.257 13.4566 351.07 13.5756C350.883 13.6889 350.67 13.7456 350.432 13.7456Z" fill="#2E6BD1"/>
<path d="M327.411 13.7456C327.184 13.7456 326.975 13.6889 326.782 13.5756C326.595 13.4566 326.445 13.3008 326.331 13.1081C326.224 12.9098 326.17 12.6973 326.17 12.4706C326.17 12.2383 326.224 12.0258 326.331 11.8331C326.445 11.6404 326.595 11.4874 326.782 11.3741C326.975 11.2608 327.184 11.2041 327.411 11.2041C327.649 11.2041 327.861 11.2608 328.048 11.3741C328.235 11.4874 328.383 11.6404 328.49 11.8331C328.604 12.0258 328.66 12.2383 328.66 12.4706C328.66 12.6973 328.604 12.9098 328.49 13.1081C328.383 13.3008 328.235 13.4566 328.048 13.5756C327.861 13.6889 327.649 13.7456 327.411 13.7456Z" fill="#2E6BD1"/>
<path d="M316.171 13.7456C315.944 13.7456 315.734 13.6889 315.542 13.5756C315.355 13.4566 315.205 13.3008 315.091 13.1081C314.984 12.9098 314.93 12.6973 314.93 12.4706C314.93 12.2383 314.984 12.0258 315.091 11.8331C315.205 11.6404 315.355 11.4874 315.542 11.3741C315.734 11.2608 315.944 11.2041 316.171 11.2041C316.409 11.2041 316.621 11.2608 316.808 11.3741C316.995 11.4874 317.143 11.6404 317.25 11.8331C317.364 12.0258 317.42 12.2383 317.42 12.4706C317.42 12.6973 317.364 12.9098 317.25 13.1081C317.143 13.3008 316.995 13.4566 316.808 13.5756C316.621 13.6889 316.409 13.7456 316.171 13.7456Z" fill="#2E6BD1"/>
<path d="M304.93 13.7456C304.704 13.7456 304.494 13.6889 304.301 13.5756C304.114 13.4566 303.964 13.3008 303.851 13.1081C303.743 12.9098 303.689 12.6973 303.689 12.4706C303.689 12.2383 303.743 12.0258 303.851 11.8331C303.964 11.6404 304.114 11.4874 304.301 11.3741C304.494 11.2608 304.704 11.2041 304.93 11.2041C305.168 11.2041 305.381 11.2608 305.568 11.3741C305.755 11.4874 305.902 11.6404 306.01 11.8331C306.123 12.0258 306.18 12.2383 306.18 12.4706C306.18 12.6973 306.123 12.9098 306.01 13.1081C305.902 13.3008 305.755 13.4566 305.568 13.5756C305.381 13.6889 305.168 13.7456 304.93 13.7456Z" fill="#2E6BD1"/>
<path d="M293.69 13.7456C293.464 13.7456 293.254 13.6889 293.061 13.5756C292.874 13.4566 292.724 13.3008 292.611 13.1081C292.503 12.9098 292.449 12.6973 292.449 12.4706C292.449 12.2383 292.503 12.0258 292.611 11.8331C292.724 11.6404 292.874 11.4874 293.061 11.3741C293.254 11.2608 293.464 11.2041 293.69 11.2041C293.928 11.2041 294.141 11.2608 294.328 11.3741C294.515 11.4874 294.662 11.6404 294.77 11.8331C294.883 12.0258 294.94 12.2383 294.94 12.4706C294.94 12.6973 294.883 12.9098 294.77 13.1081C294.662 13.3008 294.515 13.4566 294.328 13.5756C294.141 13.6889 293.928 13.7456 293.69 13.7456Z" fill="#2E6BD1"/>
<path d="M282.448 13.7456C282.221 13.7456 282.012 13.6889 281.819 13.5756C281.632 13.4566 281.482 13.3008 281.369 13.1081C281.261 12.9098 281.207 12.6973 281.207 12.4706C281.207 12.2383 281.261 12.0258 281.369 11.8331C281.482 11.6404 281.632 11.4874 281.819 11.3741C282.012 11.2608 282.221 11.2041 282.448 11.2041C282.686 11.2041 282.899 11.2608 283.086 11.3741C283.273 11.4874 283.42 11.6404 283.528 11.8331C283.641 12.0258 283.698 12.2383 283.698 12.4706C283.698 12.6973 283.641 12.9098 283.528 13.1081C283.42 13.3008 283.273 13.4566 283.086 13.5756C282.899 13.6889 282.686 13.7456 282.448 13.7456Z" fill="#2E6BD1"/>
<path d="M271.21 13.7456C270.983 13.7456 270.773 13.6889 270.581 13.5756C270.394 13.4566 270.244 13.3008 270.13 13.1081C270.023 12.9098 269.969 12.6973 269.969 12.4706C269.969 12.2383 270.023 12.0258 270.13 11.8331C270.244 11.6404 270.394 11.4874 270.581 11.3741C270.773 11.2608 270.983 11.2041 271.21 11.2041C271.448 11.2041 271.66 11.2608 271.847 11.3741C272.034 11.4874 272.182 11.6404 272.289 11.8331C272.403 12.0258 272.459 12.2383 272.459 12.4706C272.459 12.6973 272.403 12.9098 272.289 13.1081C272.182 13.3008 272.034 13.4566 271.847 13.5756C271.66 13.6889 271.448 13.7456 271.21 13.7456Z" fill="#2E6BD1"/>
<path d="M259.968 13.7456C259.741 13.7456 259.531 13.6889 259.339 13.5756C259.152 13.4566 259.001 13.3008 258.888 13.1081C258.78 12.9098 258.727 12.6973 258.727 12.4706C258.727 12.2383 258.78 12.0258 258.888 11.8331C259.001 11.6404 259.152 11.4874 259.339 11.3741C259.531 11.2608 259.741 11.2041 259.968 11.2041C260.206 11.2041 260.418 11.2608 260.605 11.3741C260.792 11.4874 260.939 11.6404 261.047 11.8331C261.16 12.0258 261.217 12.2383 261.217 12.4706C261.217 12.6973 261.16 12.9098 261.047 13.1081C260.939 13.3008 260.792 13.4566 260.605 13.5756C260.418 13.6889 260.206 13.7456 259.968 13.7456Z" fill="#2E6BD1"/>
<path d="M248.727 13.7456C248.501 13.7456 248.291 13.6889 248.098 13.5756C247.911 13.4566 247.761 13.3008 247.648 13.1081C247.54 12.9098 247.486 12.6973 247.486 12.4706C247.486 12.2383 247.54 12.0258 247.648 11.8331C247.761 11.6404 247.911 11.4874 248.098 11.3741C248.291 11.2608 248.501 11.2041 248.727 11.2041C248.965 11.2041 249.178 11.2608 249.365 11.3741C249.552 11.4874 249.699 11.6404 249.807 11.8331C249.92 12.0258 249.977 12.2383 249.977 12.4706C249.977 12.6973 249.92 12.9098 249.807 13.1081C249.699 13.3008 249.552 13.4566 249.365 13.5756C249.178 13.6889 248.965 13.7456 248.727 13.7456Z" fill="#2E6BD1"/>
<path d="M237.487 13.7456C237.26 13.7456 237.051 13.6889 236.858 13.5756C236.671 13.4566 236.521 13.3008 236.408 13.1081C236.3 12.9098 236.246 12.6973 236.246 12.4706C236.246 12.2383 236.3 12.0258 236.408 11.8331C236.521 11.6404 236.671 11.4874 236.858 11.3741C237.051 11.2608 237.26 11.2041 237.487 11.2041C237.725 11.2041 237.938 11.2608 238.125 11.3741C238.312 11.4874 238.459 11.6404 238.567 11.8331C238.68 12.0258 238.737 12.2383 238.737 12.4706C238.737 12.6973 238.68 12.9098 238.567 13.1081C238.459 13.3008 238.312 13.4566 238.125 13.5756C237.938 13.6889 237.725 13.7456 237.487 13.7456Z" fill="#2E6BD1"/>
<path d="M226.245 13.7456C226.018 13.7456 225.809 13.6889 225.616 13.5756C225.429 13.4566 225.279 13.3008 225.165 13.1081C225.058 12.9098 225.004 12.6973 225.004 12.4706C225.004 12.2383 225.058 12.0258 225.165 11.8331C225.279 11.6404 225.429 11.4874 225.616 11.3741C225.809 11.2608 226.018 11.2041 226.245 11.2041C226.483 11.2041 226.695 11.2608 226.882 11.3741C227.069 11.4874 227.217 11.6404 227.324 11.8331C227.438 12.0258 227.494 12.2383 227.494 12.4706C227.494 12.6973 227.438 12.9098 227.324 13.1081C227.217 13.3008 227.069 13.4566 226.882 13.5756C226.695 13.6889 226.483 13.7456 226.245 13.7456Z" fill="#2E6BD1"/>
<path d="M215.007 13.7456C214.78 13.7456 214.57 13.6889 214.378 13.5756C214.191 13.4566 214.04 13.3008 213.927 13.1081C213.819 12.9098 213.766 12.6973 213.766 12.4706C213.766 12.2383 213.819 12.0258 213.927 11.8331C214.04 11.6404 214.191 11.4874 214.378 11.3741C214.57 11.2608 214.78 11.2041 215.007 11.2041C215.245 11.2041 215.457 11.2608 215.644 11.3741C215.831 11.4874 215.978 11.6404 216.086 11.8331C216.199 12.0258 216.256 12.2383 216.256 12.4706C216.256 12.6973 216.199 12.9098 216.086 13.1081C215.978 13.3008 215.831 13.4566 215.644 13.5756C215.457 13.6889 215.245 13.7456 215.007 13.7456Z" fill="#2E6BD1"/>
<path d="M203.764 13.7456C203.538 13.7456 203.328 13.6889 203.135 13.5756C202.948 13.4566 202.798 13.3008 202.685 13.1081C202.577 12.9098 202.523 12.6973 202.523 12.4706C202.523 12.2383 202.577 12.0258 202.685 11.8331C202.798 11.6404 202.948 11.4874 203.135 11.3741C203.328 11.2608 203.538 11.2041 203.764 11.2041C204.002 11.2041 204.215 11.2608 204.402 11.3741C204.589 11.4874 204.736 11.6404 204.844 11.8331C204.957 12.0258 205.014 12.2383 205.014 12.4706C205.014 12.6973 204.957 12.9098 204.844 13.1081C204.736 13.3008 204.589 13.4566 204.402 13.5756C204.215 13.6889 204.002 13.7456 203.764 13.7456Z" fill="#2E6BD1"/>
<path d="M192.524 13.7456C192.298 13.7456 192.088 13.6889 191.895 13.5756C191.708 13.4566 191.558 13.3008 191.445 13.1081C191.337 12.9098 191.283 12.6973 191.283 12.4706C191.283 12.2383 191.337 12.0258 191.445 11.8331C191.558 11.6404 191.708 11.4874 191.895 11.3741C192.088 11.2608 192.298 11.2041 192.524 11.2041C192.762 11.2041 192.975 11.2608 193.162 11.3741C193.349 11.4874 193.496 11.6404 193.604 11.8331C193.717 12.0258 193.774 12.2383 193.774 12.4706C193.774 12.6973 193.717 12.9098 193.604 13.1081C193.496 13.3008 193.349 13.4566 193.162 13.5756C192.975 13.6889 192.762 13.7456 192.524 13.7456Z" fill="#2E6BD1"/>
<path d="M181.284 13.7456C181.057 13.7456 180.848 13.6889 180.655 13.5756C180.468 13.4566 180.318 13.3008 180.204 13.1081C180.097 12.9098 180.043 12.6973 180.043 12.4706C180.043 12.2383 180.097 12.0258 180.204 11.8331C180.318 11.6404 180.468 11.4874 180.655 11.3741C180.848 11.2608 181.057 11.2041 181.284 11.2041C181.522 11.2041 181.734 11.2608 181.921 11.3741C182.108 11.4874 182.256 11.6404 182.363 11.8331C182.477 12.0258 182.533 12.2383 182.533 12.4706C182.533 12.6973 182.477 12.9098 182.363 13.1081C182.256 13.3008 182.108 13.4566 181.921 13.5756C181.734 13.6889 181.522 13.7456 181.284 13.7456Z" fill="#2E6BD1"/>
<path d="M170.042 13.7456C169.815 13.7456 169.605 13.6889 169.413 13.5756C169.226 13.4566 169.076 13.3008 168.962 13.1081C168.855 12.9098 168.801 12.6973 168.801 12.4706C168.801 12.2383 168.855 12.0258 168.962 11.8331C169.076 11.6404 169.226 11.4874 169.413 11.3741C169.605 11.2608 169.815 11.2041 170.042 11.2041C170.28 11.2041 170.492 11.2608 170.679 11.3741C170.866 11.4874 171.014 11.6404 171.121 11.8331C171.235 12.0258 171.291 12.2383 171.291 12.4706C171.291 12.6973 171.235 12.9098 171.121 13.1081C171.014 13.3008 170.866 13.4566 170.679 13.5756C170.492 13.6889 170.28 13.7456 170.042 13.7456Z" fill="#2E6BD1"/>
<path d="M158.804 13.7456C158.577 13.7456 158.367 13.6889 158.174 13.5756C157.987 13.4566 157.837 13.3008 157.724 13.1081C157.616 12.9098 157.562 12.6973 157.562 12.4706C157.562 12.2383 157.616 12.0258 157.724 11.8331C157.837 11.6404 157.987 11.4874 158.174 11.3741C158.367 11.2608 158.577 11.2041 158.804 11.2041C159.042 11.2041 159.254 11.2608 159.441 11.3741C159.628 11.4874 159.775 11.6404 159.883 11.8331C159.996 12.0258 160.053 12.2383 160.053 12.4706C160.053 12.6973 159.996 12.9098 159.883 13.1081C159.775 13.3008 159.628 13.4566 159.441 13.5756C159.254 13.6889 159.042 13.7456 158.804 13.7456Z" fill="#2E6BD1"/>
<path d="M147.561 13.7456C147.335 13.7456 147.125 13.6889 146.932 13.5756C146.745 13.4566 146.595 13.3008 146.482 13.1081C146.374 12.9098 146.32 12.6973 146.32 12.4706C146.32 12.2383 146.374 12.0258 146.482 11.8331C146.595 11.6404 146.745 11.4874 146.932 11.3741C147.125 11.2608 147.335 11.2041 147.561 11.2041C147.799 11.2041 148.012 11.2608 148.199 11.3741C148.386 11.4874 148.533 11.6404 148.641 11.8331C148.754 12.0258 148.811 12.2383 148.811 12.4706C148.811 12.6973 148.754 12.9098 148.641 13.1081C148.533 13.3008 148.386 13.4566 148.199 13.5756C148.012 13.6889 147.799 13.7456 147.561 13.7456Z" fill="#2E6BD1"/>
<path d="M136.321 13.7456C136.094 13.7456 135.885 13.6889 135.692 13.5756C135.505 13.4566 135.355 13.3008 135.242 13.1081C135.134 12.9098 135.08 12.6973 135.08 12.4706C135.08 12.2383 135.134 12.0258 135.242 11.8331C135.355 11.6404 135.505 11.4874 135.692 11.3741C135.885 11.2608 136.094 11.2041 136.321 11.2041C136.559 11.2041 136.772 11.2608 136.959 11.3741C137.146 11.4874 137.293 11.6404 137.401 11.8331C137.514 12.0258 137.571 12.2383 137.571 12.4706C137.571 12.6973 137.514 12.9098 137.401 13.1081C137.293 13.3008 137.146 13.4566 136.959 13.5756C136.772 13.6889 136.559 13.7456 136.321 13.7456Z" fill="#2E6BD1"/>
<path d="M125.081 13.7456C124.854 13.7456 124.645 13.6889 124.452 13.5756C124.265 13.4566 124.115 13.3008 124.001 13.1081C123.894 12.9098 123.84 12.6973 123.84 12.4706C123.84 12.2383 123.894 12.0258 124.001 11.8331C124.115 11.6404 124.265 11.4874 124.452 11.3741C124.645 11.2608 124.854 11.2041 125.081 11.2041C125.319 11.2041 125.531 11.2608 125.718 11.3741C125.905 11.4874 126.053 11.6404 126.16 11.8331C126.274 12.0258 126.33 12.2383 126.33 12.4706C126.33 12.6973 126.274 12.9098 126.16 13.1081C126.053 13.3008 125.905 13.4566 125.718 13.5756C125.531 13.6889 125.319 13.7456 125.081 13.7456Z" fill="#2E6BD1"/>
<path d="M113.841 13.7456C113.614 13.7456 113.404 13.6889 113.212 13.5756C113.025 13.4566 112.874 13.3008 112.761 13.1081C112.653 12.9098 112.6 12.6973 112.6 12.4706C112.6 12.2383 112.653 12.0258 112.761 11.8331C112.874 11.6404 113.025 11.4874 113.212 11.3741C113.404 11.2608 113.614 11.2041 113.841 11.2041C114.079 11.2041 114.291 11.2608 114.478 11.3741C114.665 11.4874 114.812 11.6404 114.92 11.8331C115.033 12.0258 115.09 12.2383 115.09 12.4706C115.09 12.6973 115.033 12.9098 114.92 13.1081C114.812 13.3008 114.665 13.4566 114.478 13.5756C114.291 13.6889 114.079 13.7456 113.841 13.7456Z" fill="#2E6BD1"/>
<path d="M102.6 13.7456C102.374 13.7456 102.164 13.6889 101.971 13.5756C101.784 13.4566 101.634 13.3008 101.521 13.1081C101.413 12.9098 101.359 12.6973 101.359 12.4706C101.359 12.2383 101.413 12.0258 101.521 11.8331C101.634 11.6404 101.784 11.4874 101.971 11.3741C102.164 11.2608 102.374 11.2041 102.6 11.2041C102.838 11.2041 103.051 11.2608 103.238 11.3741C103.425 11.4874 103.572 11.6404 103.68 11.8331C103.793 12.0258 103.85 12.2383 103.85 12.4706C103.85 12.6973 103.793 12.9098 103.68 13.1081C103.572 13.3008 103.425 13.4566 103.238 13.5756C103.051 13.6889 102.838 13.7456 102.6 13.7456Z" fill="#2E6BD1"/>
<path d="M91.3582 13.7456C91.1315 13.7456 90.9219 13.6889 90.7292 13.5756C90.5422 13.4566 90.392 13.3008 90.2787 13.1081C90.171 12.9098 90.1172 12.6973 90.1172 12.4706C90.1172 12.2383 90.171 12.0258 90.2787 11.8331C90.392 11.6404 90.5422 11.4874 90.7292 11.3741C90.9219 11.2608 91.1315 11.2041 91.3582 11.2041C91.5962 11.2041 91.8087 11.2608 91.9957 11.3741C92.1827 11.4874 92.33 11.6404 92.4377 11.8331C92.551 12.0258 92.6077 12.2383 92.6077 12.4706C92.6077 12.6973 92.551 12.9098 92.4377 13.1081C92.33 13.3008 92.1827 13.4566 91.9957 13.5756C91.8087 13.6889 91.5962 13.7456 91.3582 13.7456Z" fill="#2E6BD1"/>
<path d="M80.1199 13.7456C79.8932 13.7456 79.6836 13.6889 79.4909 13.5756C79.3039 13.4566 79.1537 13.3008 79.0404 13.1081C78.9327 12.9098 78.8789 12.6973 78.8789 12.4706C78.8789 12.2383 78.9327 12.0258 79.0404 11.8331C79.1537 11.6404 79.3039 11.4874 79.4909 11.3741C79.6836 11.2608 79.8932 11.2041 80.1199 11.2041C80.3579 11.2041 80.5704 11.2608 80.7574 11.3741C80.9444 11.4874 81.0917 11.6404 81.1994 11.8331C81.3127 12.0258 81.3694 12.2383 81.3694 12.4706C81.3694 12.6973 81.3127 12.9098 81.1994 13.1081C81.0917 13.3008 80.9444 13.4566 80.7574 13.5756C80.5704 13.6889 80.3579 13.7456 80.1199 13.7456Z" fill="#2E6BD1"/>
<path d="M68.8777 13.7456C68.651 13.7456 68.4414 13.6889 68.2487 13.5756C68.0617 13.4566 67.9116 13.3008 67.7982 13.1081C67.6906 12.9098 67.6367 12.6973 67.6367 12.4706C67.6367 12.2383 67.6906 12.0258 67.7982 11.8331C67.9116 11.6404 68.0617 11.4874 68.2487 11.3741C68.4414 11.2608 68.651 11.2041 68.8777 11.2041C69.1157 11.2041 69.3282 11.2608 69.5152 11.3741C69.7022 11.4874 69.8495 11.6404 69.9572 11.8331C70.0705 12.0258 70.1272 12.2383 70.1272 12.4706C70.1272 12.6973 70.0705 12.9098 69.9572 13.1081C69.8495 13.3008 69.7022 13.4566 69.5152 13.5756C69.3282 13.6889 69.1157 13.7456 68.8777 13.7456Z" fill="#2E6BD1"/>
<path d="M57.6375 13.7456C57.4108 13.7456 57.2012 13.6889 57.0085 13.5756C56.8215 13.4566 56.6713 13.3008 56.558 13.1081C56.4503 12.9098 56.3965 12.6973 56.3965 12.4706C56.3965 12.2383 56.4503 12.0258 56.558 11.8331C56.6713 11.6404 56.8215 11.4874 57.0085 11.3741C57.2012 11.2608 57.4108 11.2041 57.6375 11.2041C57.8755 11.2041 58.088 11.2608 58.275 11.3741C58.462 11.4874 58.6093 11.6404 58.717 11.8331C58.8303 12.0258 58.887 12.2383 58.887 12.4706C58.887 12.6973 58.8303 12.9098 58.717 13.1081C58.6093 13.3008 58.462 13.4566 58.275 13.5756C58.088 13.6889 57.8755 13.7456 57.6375 13.7456Z" fill="#2E6BD1"/>
<path d="M46.3973 13.7456C46.1706 13.7456 45.9609 13.6889 45.7682 13.5756C45.5812 13.4566 45.4311 13.3008 45.3178 13.1081C45.2101 12.9098 45.1562 12.6973 45.1562 12.4706C45.1562 12.2383 45.2101 12.0258 45.3178 11.8331C45.4311 11.6404 45.5812 11.4874 45.7682 11.3741C45.9609 11.2608 46.1706 11.2041 46.3973 11.2041C46.6353 11.2041 46.8478 11.2608 47.0348 11.3741C47.2218 11.4874 47.3691 11.6404 47.4767 11.8331C47.5901 12.0258 47.6468 12.2383 47.6468 12.4706C47.6468 12.6973 47.5901 12.9098 47.4767 13.1081C47.3691 13.3008 47.2218 13.4566 47.0348 13.5756C46.8478 13.6889 46.6353 13.7456 46.3973 13.7456Z" fill="#2E6BD1"/>
<path d="M35.1551 13.7456C34.9284 13.7456 34.7187 13.6889 34.5261 13.5756C34.3391 13.4566 34.1889 13.3008 34.0756 13.1081C33.9679 12.9098 33.9141 12.6973 33.9141 12.4706C33.9141 12.2383 33.9679 12.0258 34.0756 11.8331C34.1889 11.6404 34.3391 11.4874 34.5261 11.3741C34.7187 11.2608 34.9284 11.2041 35.1551 11.2041C35.3931 11.2041 35.6056 11.2608 35.7926 11.3741C35.9796 11.4874 36.1269 11.6404 36.2346 11.8331C36.3479 12.0258 36.4046 12.2383 36.4046 12.4706C36.4046 12.6973 36.3479 12.9098 36.2346 13.1081C36.1269 13.3008 35.9796 13.4566 35.7926 13.5756C35.6056 13.6889 35.3931 13.7456 35.1551 13.7456Z" fill="#2E6BD1"/>
<path d="M23.9168 13.7456C23.6901 13.7456 23.4804 13.6889 23.2878 13.5756C23.1008 13.4566 22.9506 13.3008 22.8373 13.1081C22.7296 12.9098 22.6758 12.6973 22.6758 12.4706C22.6758 12.2383 22.7296 12.0258 22.8373 11.8331C22.9506 11.6404 23.1008 11.4874 23.2878 11.3741C23.4804 11.2608 23.6901 11.2041 23.9168 11.2041C24.1548 11.2041 24.3673 11.2608 24.5543 11.3741C24.7413 11.4874 24.8886 11.6404 24.9963 11.8331C25.1096 12.0258 25.1663 12.2383 25.1663 12.4706C25.1663 12.6973 25.1096 12.9098 24.9963 13.1081C24.8886 13.3008 24.7413 13.4566 24.5543 13.5756C24.3673 13.6889 24.1548 13.7456 23.9168 13.7456Z" fill="#2E6BD1"/>
<path d="M12.6746 13.7456C12.4479 13.7456 12.2383 13.6889 12.0456 13.5756C11.8586 13.4566 11.7084 13.3008 11.5951 13.1081C11.4874 12.9098 11.4336 12.6973 11.4336 12.4706C11.4336 12.2383 11.4874 12.0258 11.5951 11.8331C11.7084 11.6404 11.8586 11.4874 12.0456 11.3741C12.2383 11.2608 12.4479 11.2041 12.6746 11.2041C12.9126 11.2041 13.1251 11.2608 13.3121 11.3741C13.4991 11.4874 13.6464 11.6404 13.7541 11.8331C13.8674 12.0258 13.9241 12.2383 13.9241 12.4706C13.9241 12.6973 13.8674 12.9098 13.7541 13.1081C13.6464 13.3008 13.4991 13.4566 13.3121 13.5756C13.1251 13.6889 12.9126 13.7456 12.6746 13.7456Z" fill="#2E6BD1"/>
<path d="M1.43436 13.7456C1.20769 13.7456 0.998026 13.6889 0.805359 13.5756C0.618359 13.4566 0.468193 13.3008 0.354859 13.1081C0.247193 12.9098 0.193359 12.6973 0.193359 12.4706C0.193359 12.2383 0.247193 12.0258 0.354859 11.8331C0.468193 11.6404 0.618359 11.4874 0.805359 11.3741C0.998026 11.2608 1.20769 11.2041 1.43436 11.2041C1.67236 11.2041 1.88486 11.2608 2.07186 11.3741C2.25886 11.4874 2.40619 11.6404 2.51386 11.8331C2.62719 12.0258 2.68386 12.2383 2.68386 12.4706C2.68386 12.6973 2.62719 12.9098 2.51386 13.1081C2.40619 13.3008 2.25886 13.4566 2.07186 13.5756C1.88486 13.6889 1.67236 13.7456 1.43436 13.7456Z" fill="#2E6BD1"/>
<path d="M338.46 2.5415C338.233 2.5415 338.023 2.48483 337.831 2.3715C337.644 2.2525 337.494 2.09667 337.38 1.904C337.273 1.70567 337.219 1.49317 337.219 1.2665C337.219 1.03417 337.273 0.821666 337.38 0.629C337.494 0.436333 337.644 0.283333 337.831 0.17C338.023 0.0566667 338.233 0 338.46 0C338.698 0 338.91 0.0566667 339.097 0.17C339.284 0.283333 339.432 0.436333 339.539 0.629C339.653 0.821666 339.709 1.03417 339.709 1.2665C339.709 1.49317 339.653 1.70567 339.539 1.904C339.432 2.09667 339.284 2.2525 339.097 2.3715C338.91 2.48483 338.698 2.5415 338.46 2.5415Z" fill="#2E6BD1"/>
<path d="M350.241 2.5415C350.014 2.5415 349.805 2.48483 349.612 2.3715C349.425 2.2525 349.275 2.09667 349.161 1.904C349.054 1.70567 349 1.49317 349 1.2665C349 1.03417 349.054 0.821666 349.161 0.629C349.275 0.436333 349.425 0.283333 349.612 0.17C349.805 0.0566667 350.014 0 350.241 0C350.479 0 350.692 0.0566667 350.879 0.17C351.066 0.283333 351.213 0.436333 351.32 0.629C351.434 0.821666 351.491 1.03417 351.491 1.2665C351.491 1.49317 351.434 1.70567 351.32 1.904C351.213 2.09667 351.066 2.2525 350.879 2.3715C350.692 2.48483 350.479 2.5415 350.241 2.5415Z" fill="#2E6BD1"/>
<path d="M327.218 2.5415C326.991 2.5415 326.781 2.48483 326.589 2.3715C326.402 2.2525 326.251 2.09667 326.138 1.904C326.03 1.70567 325.977 1.49317 325.977 1.2665C325.977 1.03417 326.03 0.821666 326.138 0.629C326.251 0.436333 326.402 0.283333 326.589 0.17C326.781 0.0566667 326.991 0 327.218 0C327.456 0 327.668 0.0566667 327.855 0.17C328.042 0.283333 328.189 0.436333 328.297 0.629C328.41 0.821666 328.467 1.03417 328.467 1.2665C328.467 1.49317 328.41 1.70567 328.297 1.904C328.189 2.09667 328.042 2.2525 327.855 2.3715C327.668 2.48483 327.456 2.5415 327.218 2.5415Z" fill="#2E6BD1"/>
<path d="M315.977 2.5415C315.751 2.5415 315.541 2.48483 315.348 2.3715C315.161 2.2525 315.011 2.09667 314.898 1.904C314.79 1.70567 314.736 1.49317 314.736 1.2665C314.736 1.03417 314.79 0.821666 314.898 0.629C315.011 0.436333 315.161 0.283333 315.348 0.17C315.541 0.0566667 315.751 0 315.977 0C316.215 0 316.428 0.0566667 316.615 0.17C316.802 0.283333 316.949 0.436333 317.057 0.629C317.17 0.821666 317.227 1.03417 317.227 1.2665C317.227 1.49317 317.17 1.70567 317.057 1.904C316.949 2.09667 316.802 2.2525 316.615 2.3715C316.428 2.48483 316.215 2.5415 315.977 2.5415Z" fill="#2E6BD1"/>
<path d="M304.737 2.5415C304.51 2.5415 304.301 2.48483 304.108 2.3715C303.921 2.2525 303.771 2.09667 303.658 1.904C303.55 1.70567 303.496 1.49317 303.496 1.2665C303.496 1.03417 303.55 0.821666 303.658 0.629C303.771 0.436333 303.921 0.283333 304.108 0.17C304.301 0.0566667 304.51 0 304.737 0C304.975 0 305.188 0.0566667 305.375 0.17C305.562 0.283333 305.709 0.436333 305.817 0.629C305.93 0.821666 305.987 1.03417 305.987 1.2665C305.987 1.49317 305.93 1.70567 305.817 1.904C305.709 2.09667 305.562 2.2525 305.375 2.3715C305.188 2.48483 304.975 2.5415 304.737 2.5415Z" fill="#2E6BD1"/>
<path d="M293.495 2.5415C293.268 2.5415 293.059 2.48483 292.866 2.3715C292.679 2.2525 292.529 2.09667 292.415 1.904C292.308 1.70567 292.254 1.49317 292.254 1.2665C292.254 1.03417 292.308 0.821666 292.415 0.629C292.529 0.436333 292.679 0.283333 292.866 0.17C293.059 0.0566667 293.268 0 293.495 0C293.733 0 293.945 0.0566667 294.132 0.17C294.319 0.283333 294.467 0.436333 294.574 0.629C294.688 0.821666 294.744 1.03417 294.744 1.2665C294.744 1.49317 294.688 1.70567 294.574 1.904C294.467 2.09667 294.319 2.2525 294.132 2.3715C293.945 2.48483 293.733 2.5415 293.495 2.5415Z" fill="#2E6BD1"/>
<path d="M282.257 2.5415C282.03 2.5415 281.82 2.48483 281.628 2.3715C281.441 2.2525 281.29 2.09667 281.177 1.904C281.069 1.70567 281.016 1.49317 281.016 1.2665C281.016 1.03417 281.069 0.821666 281.177 0.629C281.29 0.436333 281.441 0.283333 281.628 0.17C281.82 0.0566667 282.03 0 282.257 0C282.495 0 282.707 0.0566667 282.894 0.17C283.081 0.283333 283.228 0.436333 283.336 0.629C283.449 0.821666 283.506 1.03417 283.506 1.2665C283.506 1.49317 283.449 1.70567 283.336 1.904C283.228 2.09667 283.081 2.2525 282.894 2.3715C282.707 2.48483 282.495 2.5415 282.257 2.5415Z" fill="#2E6BD1"/>
<path d="M271.014 2.5415C270.788 2.5415 270.578 2.48483 270.385 2.3715C270.198 2.2525 270.048 2.09667 269.935 1.904C269.827 1.70567 269.773 1.49317 269.773 1.2665C269.773 1.03417 269.827 0.821666 269.935 0.629C270.048 0.436333 270.198 0.283333 270.385 0.17C270.578 0.0566667 270.788 0 271.014 0C271.252 0 271.465 0.0566667 271.652 0.17C271.839 0.283333 271.986 0.436333 272.094 0.629C272.207 0.821666 272.264 1.03417 272.264 1.2665C272.264 1.49317 272.207 1.70567 272.094 1.904C271.986 2.09667 271.839 2.2525 271.652 2.3715C271.465 2.48483 271.252 2.5415 271.014 2.5415Z" fill="#2E6BD1"/>
<path d="M259.774 2.5415C259.548 2.5415 259.338 2.48483 259.145 2.3715C258.958 2.2525 258.808 2.09667 258.695 1.904C258.587 1.70567 258.533 1.49317 258.533 1.2665C258.533 1.03417 258.587 0.821666 258.695 0.629C258.808 0.436333 258.958 0.283333 259.145 0.17C259.338 0.0566667 259.548 0 259.774 0C260.012 0 260.225 0.0566667 260.412 0.17C260.599 0.283333 260.746 0.436333 260.854 0.629C260.967 0.821666 261.024 1.03417 261.024 1.2665C261.024 1.49317 260.967 1.70567 260.854 1.904C260.746 2.09667 260.599 2.2525 260.412 2.3715C260.225 2.48483 260.012 2.5415 259.774 2.5415Z" fill="#2E6BD1"/>
<path d="M248.534 2.5415C248.307 2.5415 248.098 2.48483 247.905 2.3715C247.718 2.2525 247.568 2.09667 247.454 1.904C247.347 1.70567 247.293 1.49317 247.293 1.2665C247.293 1.03417 247.347 0.821666 247.454 0.629C247.568 0.436333 247.718 0.283333 247.905 0.17C248.098 0.0566667 248.307 0 248.534 0C248.772 0 248.984 0.0566667 249.171 0.17C249.358 0.283333 249.506 0.436333 249.613 0.629C249.727 0.821666 249.783 1.03417 249.783 1.2665C249.783 1.49317 249.727 1.70567 249.613 1.904C249.506 2.09667 249.358 2.2525 249.171 2.3715C248.984 2.48483 248.772 2.5415 248.534 2.5415Z" fill="#2E6BD1"/>
<path d="M237.294 2.5415C237.067 2.5415 236.857 2.48483 236.665 2.3715C236.478 2.2525 236.328 2.09667 236.214 1.904C236.107 1.70567 236.053 1.49317 236.053 1.2665C236.053 1.03417 236.107 0.821666 236.214 0.629C236.328 0.436333 236.478 0.283333 236.665 0.17C236.857 0.0566667 237.067 0 237.294 0C237.532 0 237.744 0.0566667 237.931 0.17C238.118 0.283333 238.266 0.436333 238.373 0.629C238.487 0.821666 238.543 1.03417 238.543 1.2665C238.543 1.49317 238.487 1.70567 238.373 1.904C238.266 2.09667 238.118 2.2525 237.931 2.3715C237.744 2.48483 237.532 2.5415 237.294 2.5415Z" fill="#2E6BD1"/>
<path d="M226.054 2.5415C225.827 2.5415 225.617 2.48483 225.424 2.3715C225.237 2.2525 225.087 2.09667 224.974 1.904C224.866 1.70567 224.812 1.49317 224.812 1.2665C224.812 1.03417 224.866 0.821666 224.974 0.629C225.087 0.436333 225.237 0.283333 225.424 0.17C225.617 0.0566667 225.827 0 226.054 0C226.292 0 226.504 0.0566667 226.691 0.17C226.878 0.283333 227.025 0.436333 227.133 0.629C227.246 0.821666 227.303 1.03417 227.303 1.2665C227.303 1.49317 227.246 1.70567 227.133 1.904C227.025 2.09667 226.878 2.2525 226.691 2.3715C226.504 2.48483 226.292 2.5415 226.054 2.5415Z" fill="#2E6BD1"/>
<path d="M214.811 2.5415C214.585 2.5415 214.375 2.48483 214.182 2.3715C213.995 2.2525 213.845 2.09667 213.732 1.904C213.624 1.70567 213.57 1.49317 213.57 1.2665C213.57 1.03417 213.624 0.821666 213.732 0.629C213.845 0.436333 213.995 0.283333 214.182 0.17C214.375 0.0566667 214.585 0 214.811 0C215.049 0 215.262 0.0566667 215.449 0.17C215.636 0.283333 215.783 0.436333 215.891 0.629C216.004 0.821666 216.061 1.03417 216.061 1.2665C216.061 1.49317 216.004 1.70567 215.891 1.904C215.783 2.09667 215.636 2.2525 215.449 2.3715C215.262 2.48483 215.049 2.5415 214.811 2.5415Z" fill="#2E6BD1"/>
<path d="M203.571 2.5415C203.344 2.5415 203.135 2.48483 202.942 2.3715C202.755 2.2525 202.605 2.09667 202.492 1.904C202.384 1.70567 202.33 1.49317 202.33 1.2665C202.33 1.03417 202.384 0.821666 202.492 0.629C202.605 0.436333 202.755 0.283333 202.942 0.17C203.135 0.0566667 203.344 0 203.571 0C203.809 0 204.022 0.0566667 204.209 0.17C204.396 0.283333 204.543 0.436333 204.651 0.629C204.764 0.821666 204.821 1.03417 204.821 1.2665C204.821 1.49317 204.764 1.70567 204.651 1.904C204.543 2.09667 204.396 2.2525 204.209 2.3715C204.022 2.48483 203.809 2.5415 203.571 2.5415Z" fill="#2E6BD1"/>
<path d="M192.331 2.5415C192.104 2.5415 191.895 2.48483 191.702 2.3715C191.515 2.2525 191.365 2.09667 191.251 1.904C191.144 1.70567 191.09 1.49317 191.09 1.2665C191.09 1.03417 191.144 0.821666 191.251 0.629C191.365 0.436333 191.515 0.283333 191.702 0.17C191.895 0.0566667 192.104 0 192.331 0C192.569 0 192.781 0.0566667 192.968 0.17C193.155 0.283333 193.303 0.436333 193.41 0.629C193.524 0.821666 193.58 1.03417 193.58 1.2665C193.58 1.49317 193.524 1.70567 193.41 1.904C193.303 2.09667 193.155 2.2525 192.968 2.3715C192.781 2.48483 192.569 2.5415 192.331 2.5415Z" fill="#2E6BD1"/>
<path d="M181.091 2.5415C180.864 2.5415 180.654 2.48483 180.462 2.3715C180.275 2.2525 180.124 2.09667 180.011 1.904C179.903 1.70567 179.85 1.49317 179.85 1.2665C179.85 1.03417 179.903 0.821666 180.011 0.629C180.124 0.436333 180.275 0.283333 180.462 0.17C180.654 0.0566667 180.864 0 181.091 0C181.329 0 181.541 0.0566667 181.728 0.17C181.915 0.283333 182.062 0.436333 182.17 0.629C182.283 0.821666 182.34 1.03417 182.34 1.2665C182.34 1.49317 182.283 1.70567 182.17 1.904C182.062 2.09667 181.915 2.2525 181.728 2.3715C181.541 2.48483 181.329 2.5415 181.091 2.5415Z" fill="#2E6BD1"/>
<path d="M169.85 2.5415C169.624 2.5415 169.414 2.48483 169.221 2.3715C169.034 2.2525 168.884 2.09667 168.771 1.904C168.663 1.70567 168.609 1.49317 168.609 1.2665C168.609 1.03417 168.663 0.821666 168.771 0.629C168.884 0.436333 169.034 0.283333 169.221 0.17C169.414 0.0566667 169.624 0 169.85 0C170.088 0 170.301 0.0566667 170.488 0.17C170.675 0.283333 170.822 0.436333 170.93 0.629C171.043 0.821666 171.1 1.03417 171.1 1.2665C171.1 1.49317 171.043 1.70567 170.93 1.904C170.822 2.09667 170.675 2.2525 170.488 2.3715C170.301 2.48483 170.088 2.5415 169.85 2.5415Z" fill="#2E6BD1"/>
<path d="M158.608 2.5415C158.382 2.5415 158.172 2.48483 157.979 2.3715C157.792 2.2525 157.642 2.09667 157.529 1.904C157.421 1.70567 157.367 1.49317 157.367 1.2665C157.367 1.03417 157.421 0.821666 157.529 0.629C157.642 0.436333 157.792 0.283333 157.979 0.17C158.172 0.0566667 158.382 0 158.608 0C158.846 0 159.059 0.0566667 159.246 0.17C159.433 0.283333 159.58 0.436333 159.688 0.629C159.801 0.821666 159.858 1.03417 159.858 1.2665C159.858 1.49317 159.801 1.70567 159.688 1.904C159.58 2.09667 159.433 2.2525 159.246 2.3715C159.059 2.48483 158.846 2.5415 158.608 2.5415Z" fill="#2E6BD1"/>
<path d="M147.37 2.5415C147.143 2.5415 146.934 2.48483 146.741 2.3715C146.554 2.2525 146.404 2.09667 146.29 1.904C146.183 1.70567 146.129 1.49317 146.129 1.2665C146.129 1.03417 146.183 0.821666 146.29 0.629C146.404 0.436333 146.554 0.283333 146.741 0.17C146.934 0.0566667 147.143 0 147.37 0C147.608 0 147.82 0.0566667 148.007 0.17C148.194 0.283333 148.342 0.436333 148.449 0.629C148.563 0.821666 148.619 1.03417 148.619 1.2665C148.619 1.49317 148.563 1.70567 148.449 1.904C148.342 2.09667 148.194 2.2525 148.007 2.3715C147.82 2.48483 147.608 2.5415 147.37 2.5415Z" fill="#2E6BD1"/>
<path d="M136.128 2.5415C135.901 2.5415 135.691 2.48483 135.499 2.3715C135.312 2.2525 135.162 2.09667 135.048 1.904C134.941 1.70567 134.887 1.49317 134.887 1.2665C134.887 1.03417 134.941 0.821666 135.048 0.629C135.162 0.436333 135.312 0.283333 135.499 0.17C135.691 0.0566667 135.901 0 136.128 0C136.366 0 136.578 0.0566667 136.765 0.17C136.952 0.283333 137.1 0.436333 137.207 0.629C137.321 0.821666 137.377 1.03417 137.377 1.2665C137.377 1.49317 137.321 1.70567 137.207 1.904C137.1 2.09667 136.952 2.2525 136.765 2.3715C136.578 2.48483 136.366 2.5415 136.128 2.5415Z" fill="#2E6BD1"/>
<path d="M124.887 2.5415C124.661 2.5415 124.451 2.48483 124.258 2.3715C124.071 2.2525 123.921 2.09667 123.808 1.904C123.7 1.70567 123.646 1.49317 123.646 1.2665C123.646 1.03417 123.7 0.821666 123.808 0.629C123.921 0.436333 124.071 0.283333 124.258 0.17C124.451 0.0566667 124.661 0 124.887 0C125.125 0 125.338 0.0566667 125.525 0.17C125.712 0.283333 125.859 0.436333 125.967 0.629C126.08 0.821666 126.137 1.03417 126.137 1.2665C126.137 1.49317 126.08 1.70567 125.967 1.904C125.859 2.09667 125.712 2.2525 125.525 2.3715C125.338 2.48483 125.125 2.5415 124.887 2.5415Z" fill="#2E6BD1"/>
<path d="M113.647 2.5415C113.421 2.5415 113.211 2.48483 113.018 2.3715C112.831 2.2525 112.681 2.09667 112.568 1.904C112.46 1.70567 112.406 1.49317 112.406 1.2665C112.406 1.03417 112.46 0.821666 112.568 0.629C112.681 0.436333 112.831 0.283333 113.018 0.17C113.211 0.0566667 113.421 0 113.647 0C113.885 0 114.098 0.0566667 114.285 0.17C114.472 0.283333 114.619 0.436333 114.727 0.629C114.84 0.821666 114.897 1.03417 114.897 1.2665C114.897 1.49317 114.84 1.70567 114.727 1.904C114.619 2.09667 114.472 2.2525 114.285 2.3715C114.098 2.48483 113.885 2.5415 113.647 2.5415Z" fill="#2E6BD1"/>
<path d="M102.405 2.5415C102.178 2.5415 101.969 2.48483 101.776 2.3715C101.589 2.2525 101.439 2.09667 101.326 1.904C101.218 1.70567 101.164 1.49317 101.164 1.2665C101.164 1.03417 101.218 0.821666 101.326 0.629C101.439 0.436333 101.589 0.283333 101.776 0.17C101.969 0.0566667 102.178 0 102.405 0C102.643 0 102.856 0.0566667 103.043 0.17C103.23 0.283333 103.377 0.436333 103.485 0.629C103.598 0.821666 103.655 1.03417 103.655 1.2665C103.655 1.49317 103.598 1.70567 103.485 1.904C103.377 2.09667 103.23 2.2525 103.043 2.3715C102.856 2.48483 102.643 2.5415 102.405 2.5415Z" fill="#2E6BD1"/>
<path d="M91.1668 2.5415C90.9401 2.5415 90.7304 2.48483 90.5378 2.3715C90.3508 2.2525 90.2006 2.09667 90.0873 1.904C89.9796 1.70567 89.9258 1.49317 89.9258 1.2665C89.9258 1.03417 89.9796 0.821666 90.0873 0.629C90.2006 0.436333 90.3508 0.283333 90.5378 0.17C90.7304 0.0566667 90.9401 0 91.1668 0C91.4048 0 91.6173 0.0566667 91.8043 0.17C91.9913 0.283333 92.1386 0.436333 92.2463 0.629C92.3596 0.821666 92.4163 1.03417 92.4163 1.2665C92.4163 1.49317 92.3596 1.70567 92.2463 1.904C92.1386 2.09667 91.9913 2.2525 91.8043 2.3715C91.6173 2.48483 91.4048 2.5415 91.1668 2.5415Z" fill="#2E6BD1"/>
<path d="M79.9246 2.5415C79.6979 2.5415 79.4883 2.48483 79.2956 2.3715C79.1086 2.2525 78.9584 2.09667 78.8451 1.904C78.7374 1.70567 78.6836 1.49317 78.6836 1.2665C78.6836 1.03417 78.7374 0.821666 78.8451 0.629C78.9584 0.436333 79.1086 0.283333 79.2956 0.17C79.4883 0.0566667 79.6979 0 79.9246 0C80.1626 0 80.3751 0.0566667 80.5621 0.17C80.7491 0.283333 80.8964 0.436333 81.0041 0.629C81.1174 0.821666 81.1741 1.03417 81.1741 1.2665C81.1741 1.49317 81.1174 1.70567 81.0041 1.904C80.8964 2.09667 80.7491 2.2525 80.5621 2.3715C80.3751 2.48483 80.1626 2.5415 79.9246 2.5415Z" fill="#2E6BD1"/>
<path d="M68.6844 2.5415C68.4577 2.5415 68.248 2.48483 68.0554 2.3715C67.8684 2.2525 67.7182 2.09667 67.6049 1.904C67.4972 1.70567 67.4434 1.49317 67.4434 1.2665C67.4434 1.03417 67.4972 0.821666 67.6049 0.629C67.7182 0.436333 67.8684 0.283333 68.0554 0.17C68.248 0.0566667 68.4577 0 68.6844 0C68.9224 0 69.1349 0.0566667 69.3219 0.17C69.5089 0.283333 69.6562 0.436333 69.7639 0.629C69.8772 0.821666 69.9339 1.03417 69.9339 1.2665C69.9339 1.49317 69.8772 1.70567 69.7639 1.904C69.6562 2.09667 69.5089 2.2525 69.3219 2.3715C69.1349 2.48483 68.9224 2.5415 68.6844 2.5415Z" fill="#2E6BD1"/>
<path d="M57.4441 2.5415C57.2175 2.5415 57.0078 2.48483 56.8151 2.3715C56.6281 2.2525 56.478 2.09667 56.3646 1.904C56.257 1.70567 56.2031 1.49317 56.2031 1.2665C56.2031 1.03417 56.257 0.821666 56.3646 0.629C56.478 0.436333 56.6281 0.283333 56.8151 0.17C57.0078 0.0566667 57.2175 0 57.4441 0C57.6821 0 57.8946 0.0566667 58.0816 0.17C58.2686 0.283333 58.416 0.436333 58.5236 0.629C58.637 0.821666 58.6936 1.03417 58.6936 1.2665C58.6936 1.49317 58.637 1.70567 58.5236 1.904C58.416 2.09667 58.2686 2.2525 58.0816 2.3715C57.8946 2.48483 57.6821 2.5415 57.4441 2.5415Z" fill="#2E6BD1"/>
<path d="M46.2019 2.5415C45.9753 2.5415 45.7656 2.48483 45.5729 2.3715C45.3859 2.2525 45.2358 2.09667 45.1224 1.904C45.0148 1.70567 44.9609 1.49317 44.9609 1.2665C44.9609 1.03417 45.0148 0.821666 45.1224 0.629C45.2358 0.436333 45.3859 0.283333 45.5729 0.17C45.7656 0.0566667 45.9753 0 46.2019 0C46.4399 0 46.6524 0.0566667 46.8394 0.17C47.0264 0.283333 47.1738 0.436333 47.2814 0.629C47.3948 0.821666 47.4514 1.03417 47.4514 1.2665C47.4514 1.49317 47.3948 1.70567 47.2814 1.904C47.1738 2.09667 47.0264 2.2525 46.8394 2.3715C46.6524 2.48483 46.4399 2.5415 46.2019 2.5415Z" fill="#2E6BD1"/>
<path d="M34.9637 2.5415C34.737 2.5415 34.5273 2.48483 34.3347 2.3715C34.1477 2.2525 33.9975 2.09667 33.8842 1.904C33.7765 1.70567 33.7227 1.49317 33.7227 1.2665C33.7227 1.03417 33.7765 0.821666 33.8842 0.629C33.9975 0.436333 34.1477 0.283333 34.3347 0.17C34.5273 0.0566667 34.737 0 34.9637 0C35.2017 0 35.4142 0.0566667 35.6012 0.17C35.7882 0.283333 35.9355 0.436333 36.0432 0.629C36.1565 0.821666 36.2132 1.03417 36.2132 1.2665C36.2132 1.49317 36.1565 1.70567 36.0432 1.904C35.9355 2.09667 35.7882 2.2525 35.6012 2.3715C35.4142 2.48483 35.2017 2.5415 34.9637 2.5415Z" fill="#2E6BD1"/>
<path d="M23.7215 2.5415C23.4948 2.5415 23.2851 2.48483 23.0925 2.3715C22.9055 2.2525 22.7553 2.09667 22.642 1.904C22.5343 1.70567 22.4805 1.49317 22.4805 1.2665C22.4805 1.03417 22.5343 0.821666 22.642 0.629C22.7553 0.436333 22.9055 0.283333 23.0925 0.17C23.2851 0.0566667 23.4948 0 23.7215 0C23.9595 0 24.172 0.0566667 24.359 0.17C24.546 0.283333 24.6933 0.436333 24.801 0.629C24.9143 0.821666 24.971 1.03417 24.971 1.2665C24.971 1.49317 24.9143 1.70567 24.801 1.904C24.6933 2.09667 24.546 2.2525 24.359 2.3715C24.172 2.48483 23.9595 2.5415 23.7215 2.5415Z" fill="#2E6BD1"/>
<path d="M12.4812 2.5415C12.2546 2.5415 12.0449 2.48483 11.8522 2.3715C11.6652 2.2525 11.5151 2.09667 11.4017 1.904C11.2941 1.70567 11.2402 1.49317 11.2402 1.2665C11.2402 1.03417 11.2941 0.821666 11.4017 0.629C11.5151 0.436333 11.6652 0.283333 11.8522 0.17C12.0449 0.0566667 12.2546 0 12.4812 0C12.7192 0 12.9317 0.0566667 13.1187 0.17C13.3057 0.283333 13.4531 0.436333 13.5607 0.629C13.6741 0.821666 13.7307 1.03417 13.7307 1.2665C13.7307 1.49317 13.6741 1.70567 13.5607 1.904C13.4531 2.09667 13.3057 2.2525 13.1187 2.3715C12.9317 2.48483 12.7192 2.5415 12.4812 2.5415Z" fill="#2E6BD1"/>
<path d="M1.241 2.5415C1.01433 2.5415 0.804667 2.48483 0.612 2.3715C0.425 2.2525 0.274833 2.09667 0.1615 1.904C0.0538333 1.70567 0 1.49317 0 1.2665C0 1.03417 0.0538333 0.821666 0.1615 0.629C0.274833 0.436333 0.425 0.283333 0.612 0.17C0.804667 0.0566667 1.01433 0 1.241 0C1.479 0 1.6915 0.0566667 1.8785 0.17C2.0655 0.283333 2.21283 0.436333 2.3205 0.629C2.43383 0.821666 2.4905 1.03417 2.4905 1.2665C2.4905 1.49317 2.43383 1.70567 2.3205 1.904C2.21283 2.09667 2.0655 2.2525 1.8785 2.3715C1.6915 2.48483 1.479 2.5415 1.241 2.5415Z" fill="#2E6BD1"/>
<path d="M338.46 24.9487C338.233 24.9487 338.023 24.8921 337.831 24.7787C337.644 24.6597 337.494 24.5039 337.38 24.3112C337.273 24.1129 337.219 23.9004 337.219 23.6737C337.219 23.4414 337.273 23.2289 337.38 23.0362C337.494 22.8436 337.644 22.6906 337.831 22.5772C338.023 22.4639 338.233 22.4072 338.46 22.4072C338.698 22.4072 338.91 22.4639 339.097 22.5772C339.284 22.6906 339.432 22.8436 339.539 23.0362C339.653 23.2289 339.709 23.4414 339.709 23.6737C339.709 23.9004 339.653 24.1129 339.539 24.3112C339.432 24.5039 339.284 24.6597 339.097 24.7787C338.91 24.8921 338.698 24.9487 338.46 24.9487Z" fill="#2E6BD1"/>
<path d="M350.241 24.9487C350.014 24.9487 349.805 24.8921 349.612 24.7787C349.425 24.6597 349.275 24.5039 349.161 24.3112C349.054 24.1129 349 23.9004 349 23.6737C349 23.4414 349.054 23.2289 349.161 23.0362C349.275 22.8436 349.425 22.6906 349.612 22.5772C349.805 22.4639 350.014 22.4072 350.241 22.4072C350.479 22.4072 350.692 22.4639 350.879 22.5772C351.066 22.6906 351.213 22.8436 351.32 23.0362C351.434 23.2289 351.491 23.4414 351.491 23.6737C351.491 23.9004 351.434 24.1129 351.32 24.3112C351.213 24.5039 351.066 24.6597 350.879 24.7787C350.692 24.8921 350.479 24.9487 350.241 24.9487Z" fill="#2E6BD1"/>
<path d="M327.218 24.9487C326.991 24.9487 326.781 24.8921 326.589 24.7787C326.402 24.6597 326.251 24.5039 326.138 24.3112C326.03 24.1129 325.977 23.9004 325.977 23.6737C325.977 23.4414 326.03 23.2289 326.138 23.0362C326.251 22.8436 326.402 22.6906 326.589 22.5772C326.781 22.4639 326.991 22.4072 327.218 22.4072C327.456 22.4072 327.668 22.4639 327.855 22.5772C328.042 22.6906 328.189 22.8436 328.297 23.0362C328.41 23.2289 328.467 23.4414 328.467 23.6737C328.467 23.9004 328.41 24.1129 328.297 24.3112C328.189 24.5039 328.042 24.6597 327.855 24.7787C327.668 24.8921 327.456 24.9487 327.218 24.9487Z" fill="#2E6BD1"/>
<path d="M315.977 24.9487C315.751 24.9487 315.541 24.8921 315.348 24.7787C315.161 24.6597 315.011 24.5039 314.898 24.3112C314.79 24.1129 314.736 23.9004 314.736 23.6737C314.736 23.4414 314.79 23.2289 314.898 23.0362C315.011 22.8436 315.161 22.6906 315.348 22.5772C315.541 22.4639 315.751 22.4072 315.977 22.4072C316.215 22.4072 316.428 22.4639 316.615 22.5772C316.802 22.6906 316.949 22.8436 317.057 23.0362C317.17 23.2289 317.227 23.4414 317.227 23.6737C317.227 23.9004 317.17 24.1129 317.057 24.3112C316.949 24.5039 316.802 24.6597 316.615 24.7787C316.428 24.8921 316.215 24.9487 315.977 24.9487Z" fill="#2E6BD1"/>
<path d="M304.737 24.9487C304.51 24.9487 304.301 24.8921 304.108 24.7787C303.921 24.6597 303.771 24.5039 303.658 24.3112C303.55 24.1129 303.496 23.9004 303.496 23.6737C303.496 23.4414 303.55 23.2289 303.658 23.0362C303.771 22.8436 303.921 22.6906 304.108 22.5772C304.301 22.4639 304.51 22.4072 304.737 22.4072C304.975 22.4072 305.188 22.4639 305.375 22.5772C305.562 22.6906 305.709 22.8436 305.817 23.0362C305.93 23.2289 305.987 23.4414 305.987 23.6737C305.987 23.9004 305.93 24.1129 305.817 24.3112C305.709 24.5039 305.562 24.6597 305.375 24.7787C305.188 24.8921 304.975 24.9487 304.737 24.9487Z" fill="#2E6BD1"/>
<path d="M293.495 24.9487C293.268 24.9487 293.059 24.8921 292.866 24.7787C292.679 24.6597 292.529 24.5039 292.415 24.3112C292.308 24.1129 292.254 23.9004 292.254 23.6737C292.254 23.4414 292.308 23.2289 292.415 23.0362C292.529 22.8436 292.679 22.6906 292.866 22.5772C293.059 22.4639 293.268 22.4072 293.495 22.4072C293.733 22.4072 293.945 22.4639 294.132 22.5772C294.319 22.6906 294.467 22.8436 294.574 23.0362C294.688 23.2289 294.744 23.4414 294.744 23.6737C294.744 23.9004 294.688 24.1129 294.574 24.3112C294.467 24.5039 294.319 24.6597 294.132 24.7787C293.945 24.8921 293.733 24.9487 293.495 24.9487Z" fill="#2E6BD1"/>
<path d="M282.257 24.9487C282.03 24.9487 281.82 24.8921 281.628 24.7787C281.441 24.6597 281.29 24.5039 281.177 24.3112C281.069 24.1129 281.016 23.9004 281.016 23.6737C281.016 23.4414 281.069 23.2289 281.177 23.0362C281.29 22.8436 281.441 22.6906 281.628 22.5772C281.82 22.4639 282.03 22.4072 282.257 22.4072C282.495 22.4072 282.707 22.4639 282.894 22.5772C283.081 22.6906 283.228 22.8436 283.336 23.0362C283.449 23.2289 283.506 23.4414 283.506 23.6737C283.506 23.9004 283.449 24.1129 283.336 24.3112C283.228 24.5039 283.081 24.6597 282.894 24.7787C282.707 24.8921 282.495 24.9487 282.257 24.9487Z" fill="#2E6BD1"/>
<path d="M271.014 24.9487C270.788 24.9487 270.578 24.8921 270.385 24.7787C270.198 24.6597 270.048 24.5039 269.935 24.3112C269.827 24.1129 269.773 23.9004 269.773 23.6737C269.773 23.4414 269.827 23.2289 269.935 23.0362C270.048 22.8436 270.198 22.6906 270.385 22.5772C270.578 22.4639 270.788 22.4072 271.014 22.4072C271.252 22.4072 271.465 22.4639 271.652 22.5772C271.839 22.6906 271.986 22.8436 272.094 23.0362C272.207 23.2289 272.264 23.4414 272.264 23.6737C272.264 23.9004 272.207 24.1129 272.094 24.3112C271.986 24.5039 271.839 24.6597 271.652 24.7787C271.465 24.8921 271.252 24.9487 271.014 24.9487Z" fill="#2E6BD1"/>
<path d="M259.774 24.9487C259.548 24.9487 259.338 24.8921 259.145 24.7787C258.958 24.6597 258.808 24.5039 258.695 24.3112C258.587 24.1129 258.533 23.9004 258.533 23.6737C258.533 23.4414 258.587 23.2289 258.695 23.0362C258.808 22.8436 258.958 22.6906 259.145 22.5772C259.338 22.4639 259.548 22.4072 259.774 22.4072C260.012 22.4072 260.225 22.4639 260.412 22.5772C260.599 22.6906 260.746 22.8436 260.854 23.0362C260.967 23.2289 261.024 23.4414 261.024 23.6737C261.024 23.9004 260.967 24.1129 260.854 24.3112C260.746 24.5039 260.599 24.6597 260.412 24.7787C260.225 24.8921 260.012 24.9487 259.774 24.9487Z" fill="#2E6BD1"/>
<path d="M248.534 24.9487C248.307 24.9487 248.098 24.8921 247.905 24.7787C247.718 24.6597 247.568 24.5039 247.454 24.3112C247.347 24.1129 247.293 23.9004 247.293 23.6737C247.293 23.4414 247.347 23.2289 247.454 23.0362C247.568 22.8436 247.718 22.6906 247.905 22.5772C248.098 22.4639 248.307 22.4072 248.534 22.4072C248.772 22.4072 248.984 22.4639 249.171 22.5772C249.358 22.6906 249.506 22.8436 249.613 23.0362C249.727 23.2289 249.783 23.4414 249.783 23.6737C249.783 23.9004 249.727 24.1129 249.613 24.3112C249.506 24.5039 249.358 24.6597 249.171 24.7787C248.984 24.8921 248.772 24.9487 248.534 24.9487Z" fill="#2E6BD1"/>
<path d="M237.294 24.9487C237.067 24.9487 236.857 24.8921 236.665 24.7787C236.478 24.6597 236.328 24.5039 236.214 24.3112C236.107 24.1129 236.053 23.9004 236.053 23.6737C236.053 23.4414 236.107 23.2289 236.214 23.0362C236.328 22.8436 236.478 22.6906 236.665 22.5772C236.857 22.4639 237.067 22.4072 237.294 22.4072C237.532 22.4072 237.744 22.4639 237.931 22.5772C238.118 22.6906 238.266 22.8436 238.373 23.0362C238.487 23.2289 238.543 23.4414 238.543 23.6737C238.543 23.9004 238.487 24.1129 238.373 24.3112C238.266 24.5039 238.118 24.6597 237.931 24.7787C237.744 24.8921 237.532 24.9487 237.294 24.9487Z" fill="#2E6BD1"/>
<path d="M226.054 24.9487C225.827 24.9487 225.617 24.8921 225.424 24.7787C225.237 24.6597 225.087 24.5039 224.974 24.3112C224.866 24.1129 224.812 23.9004 224.812 23.6737C224.812 23.4414 224.866 23.2289 224.974 23.0362C225.087 22.8436 225.237 22.6906 225.424 22.5772C225.617 22.4639 225.827 22.4072 226.054 22.4072C226.292 22.4072 226.504 22.4639 226.691 22.5772C226.878 22.6906 227.025 22.8436 227.133 23.0362C227.246 23.2289 227.303 23.4414 227.303 23.6737C227.303 23.9004 227.246 24.1129 227.133 24.3112C227.025 24.5039 226.878 24.6597 226.691 24.7787C226.504 24.8921 226.292 24.9487 226.054 24.9487Z" fill="#2E6BD1"/>
<path d="M214.811 24.9487C214.585 24.9487 214.375 24.8921 214.182 24.7787C213.995 24.6597 213.845 24.5039 213.732 24.3112C213.624 24.1129 213.57 23.9004 213.57 23.6737C213.57 23.4414 213.624 23.2289 213.732 23.0362C213.845 22.8436 213.995 22.6906 214.182 22.5772C214.375 22.4639 214.585 22.4072 214.811 22.4072C215.049 22.4072 215.262 22.4639 215.449 22.5772C215.636 22.6906 215.783 22.8436 215.891 23.0362C216.004 23.2289 216.061 23.4414 216.061 23.6737C216.061 23.9004 216.004 24.1129 215.891 24.3112C215.783 24.5039 215.636 24.6597 215.449 24.7787C215.262 24.8921 215.049 24.9487 214.811 24.9487Z" fill="#2E6BD1"/>
<path d="M203.571 24.9487C203.344 24.9487 203.135 24.8921 202.942 24.7787C202.755 24.6597 202.605 24.5039 202.492 24.3112C202.384 24.1129 202.33 23.9004 202.33 23.6737C202.33 23.4414 202.384 23.2289 202.492 23.0362C202.605 22.8436 202.755 22.6906 202.942 22.5772C203.135 22.4639 203.344 22.4072 203.571 22.4072C203.809 22.4072 204.022 22.4639 204.209 22.5772C204.396 22.6906 204.543 22.8436 204.651 23.0362C204.764 23.2289 204.821 23.4414 204.821 23.6737C204.821 23.9004 204.764 24.1129 204.651 24.3112C204.543 24.5039 204.396 24.6597 204.209 24.7787C204.022 24.8921 203.809 24.9487 203.571 24.9487Z" fill="#2E6BD1"/>
<path d="M192.331 24.9487C192.104 24.9487 191.895 24.8921 191.702 24.7787C191.515 24.6597 191.365 24.5039 191.251 24.3112C191.144 24.1129 191.09 23.9004 191.09 23.6737C191.09 23.4414 191.144 23.2289 191.251 23.0362C191.365 22.8436 191.515 22.6906 191.702 22.5772C191.895 22.4639 192.104 22.4072 192.331 22.4072C192.569 22.4072 192.781 22.4639 192.968 22.5772C193.155 22.6906 193.303 22.8436 193.41 23.0362C193.524 23.2289 193.58 23.4414 193.58 23.6737C193.58 23.9004 193.524 24.1129 193.41 24.3112C193.303 24.5039 193.155 24.6597 192.968 24.7787C192.781 24.8921 192.569 24.9487 192.331 24.9487Z" fill="#2E6BD1"/>
<path d="M181.091 24.9487C180.864 24.9487 180.654 24.8921 180.462 24.7787C180.275 24.6597 180.124 24.5039 180.011 24.3112C179.903 24.1129 179.85 23.9004 179.85 23.6737C179.85 23.4414 179.903 23.2289 180.011 23.0362C180.124 22.8436 180.275 22.6906 180.462 22.5772C180.654 22.4639 180.864 22.4072 181.091 22.4072C181.329 22.4072 181.541 22.4639 181.728 22.5772C181.915 22.6906 182.062 22.8436 182.17 23.0362C182.283 23.2289 182.34 23.4414 182.34 23.6737C182.34 23.9004 182.283 24.1129 182.17 24.3112C182.062 24.5039 181.915 24.6597 181.728 24.7787C181.541 24.8921 181.329 24.9487 181.091 24.9487Z" fill="#2E6BD1"/>
<path d="M169.85 24.9487C169.624 24.9487 169.414 24.8921 169.221 24.7787C169.034 24.6597 168.884 24.5039 168.771 24.3112C168.663 24.1129 168.609 23.9004 168.609 23.6737C168.609 23.4414 168.663 23.2289 168.771 23.0362C168.884 22.8436 169.034 22.6906 169.221 22.5772C169.414 22.4639 169.624 22.4072 169.85 22.4072C170.088 22.4072 170.301 22.4639 170.488 22.5772C170.675 22.6906 170.822 22.8436 170.93 23.0362C171.043 23.2289 171.1 23.4414 171.1 23.6737C171.1 23.9004 171.043 24.1129 170.93 24.3112C170.822 24.5039 170.675 24.6597 170.488 24.7787C170.301 24.8921 170.088 24.9487 169.85 24.9487Z" fill="#2E6BD1"/>
<path d="M158.608 24.9487C158.382 24.9487 158.172 24.8921 157.979 24.7787C157.792 24.6597 157.642 24.5039 157.529 24.3112C157.421 24.1129 157.367 23.9004 157.367 23.6737C157.367 23.4414 157.421 23.2289 157.529 23.0362C157.642 22.8436 157.792 22.6906 157.979 22.5772C158.172 22.4639 158.382 22.4072 158.608 22.4072C158.846 22.4072 159.059 22.4639 159.246 22.5772C159.433 22.6906 159.58 22.8436 159.688 23.0362C159.801 23.2289 159.858 23.4414 159.858 23.6737C159.858 23.9004 159.801 24.1129 159.688 24.3112C159.58 24.5039 159.433 24.6597 159.246 24.7787C159.059 24.8921 158.846 24.9487 158.608 24.9487Z" fill="#2E6BD1"/>
<path d="M147.37 24.9487C147.143 24.9487 146.934 24.8921 146.741 24.7787C146.554 24.6597 146.404 24.5039 146.29 24.3112C146.183 24.1129 146.129 23.9004 146.129 23.6737C146.129 23.4414 146.183 23.2289 146.29 23.0362C146.404 22.8436 146.554 22.6906 146.741 22.5772C146.934 22.4639 147.143 22.4072 147.37 22.4072C147.608 22.4072 147.82 22.4639 148.007 22.5772C148.194 22.6906 148.342 22.8436 148.449 23.0362C148.563 23.2289 148.619 23.4414 148.619 23.6737C148.619 23.9004 148.563 24.1129 148.449 24.3112C148.342 24.5039 148.194 24.6597 148.007 24.7787C147.82 24.8921 147.608 24.9487 147.37 24.9487Z" fill="#2E6BD1"/>
<path d="M136.128 24.9487C135.901 24.9487 135.691 24.8921 135.499 24.7787C135.312 24.6597 135.162 24.5039 135.048 24.3112C134.941 24.1129 134.887 23.9004 134.887 23.6737C134.887 23.4414 134.941 23.2289 135.048 23.0362C135.162 22.8436 135.312 22.6906 135.499 22.5772C135.691 22.4639 135.901 22.4072 136.128 22.4072C136.366 22.4072 136.578 22.4639 136.765 22.5772C136.952 22.6906 137.1 22.8436 137.207 23.0362C137.321 23.2289 137.377 23.4414 137.377 23.6737C137.377 23.9004 137.321 24.1129 137.207 24.3112C137.1 24.5039 136.952 24.6597 136.765 24.7787C136.578 24.8921 136.366 24.9487 136.128 24.9487Z" fill="#2E6BD1"/>
<path d="M124.887 24.9487C124.661 24.9487 124.451 24.8921 124.258 24.7787C124.071 24.6597 123.921 24.5039 123.808 24.3112C123.7 24.1129 123.646 23.9004 123.646 23.6737C123.646 23.4414 123.7 23.2289 123.808 23.0362C123.921 22.8436 124.071 22.6906 124.258 22.5772C124.451 22.4639 124.661 22.4072 124.887 22.4072C125.125 22.4072 125.338 22.4639 125.525 22.5772C125.712 22.6906 125.859 22.8436 125.967 23.0362C126.08 23.2289 126.137 23.4414 126.137 23.6737C126.137 23.9004 126.08 24.1129 125.967 24.3112C125.859 24.5039 125.712 24.6597 125.525 24.7787C125.338 24.8921 125.125 24.9487 124.887 24.9487Z" fill="#2E6BD1"/>
<path d="M113.647 24.9487C113.421 24.9487 113.211 24.8921 113.018 24.7787C112.831 24.6597 112.681 24.5039 112.568 24.3112C112.46 24.1129 112.406 23.9004 112.406 23.6737C112.406 23.4414 112.46 23.2289 112.568 23.0362C112.681 22.8436 112.831 22.6906 113.018 22.5772C113.211 22.4639 113.421 22.4072 113.647 22.4072C113.885 22.4072 114.098 22.4639 114.285 22.5772C114.472 22.6906 114.619 22.8436 114.727 23.0362C114.84 23.2289 114.897 23.4414 114.897 23.6737C114.897 23.9004 114.84 24.1129 114.727 24.3112C114.619 24.5039 114.472 24.6597 114.285 24.7787C114.098 24.8921 113.885 24.9487 113.647 24.9487Z" fill="#2E6BD1"/>
<path d="M102.405 24.9487C102.178 24.9487 101.969 24.8921 101.776 24.7787C101.589 24.6597 101.439 24.5039 101.326 24.3112C101.218 24.1129 101.164 23.9004 101.164 23.6737C101.164 23.4414 101.218 23.2289 101.326 23.0362C101.439 22.8436 101.589 22.6906 101.776 22.5772C101.969 22.4639 102.178 22.4072 102.405 22.4072C102.643 22.4072 102.856 22.4639 103.043 22.5772C103.23 22.6906 103.377 22.8436 103.485 23.0362C103.598 23.2289 103.655 23.4414 103.655 23.6737C103.655 23.9004 103.598 24.1129 103.485 24.3112C103.377 24.5039 103.23 24.6597 103.043 24.7787C102.856 24.8921 102.643 24.9487 102.405 24.9487Z" fill="#2E6BD1"/>
<path d="M91.1668 24.9487C90.9401 24.9487 90.7304 24.8921 90.5378 24.7787C90.3508 24.6597 90.2006 24.5039 90.0873 24.3112C89.9796 24.1129 89.9258 23.9004 89.9258 23.6737C89.9258 23.4414 89.9796 23.2289 90.0873 23.0362C90.2006 22.8436 90.3508 22.6906 90.5378 22.5772C90.7304 22.4639 90.9401 22.4072 91.1668 22.4072C91.4048 22.4072 91.6173 22.4639 91.8043 22.5772C91.9913 22.6906 92.1386 22.8436 92.2463 23.0362C92.3596 23.2289 92.4163 23.4414 92.4163 23.6737C92.4163 23.9004 92.3596 24.1129 92.2463 24.3112C92.1386 24.5039 91.9913 24.6597 91.8043 24.7787C91.6173 24.8921 91.4048 24.9487 91.1668 24.9487Z" fill="#2E6BD1"/>
<path d="M79.9246 24.9487C79.6979 24.9487 79.4883 24.8921 79.2956 24.7787C79.1086 24.6597 78.9584 24.5039 78.8451 24.3112C78.7374 24.1129 78.6836 23.9004 78.6836 23.6737C78.6836 23.4414 78.7374 23.2289 78.8451 23.0362C78.9584 22.8436 79.1086 22.6906 79.2956 22.5772C79.4883 22.4639 79.6979 22.4072 79.9246 22.4072C80.1626 22.4072 80.3751 22.4639 80.5621 22.5772C80.7491 22.6906 80.8964 22.8436 81.0041 23.0362C81.1174 23.2289 81.1741 23.4414 81.1741 23.6737C81.1741 23.9004 81.1174 24.1129 81.0041 24.3112C80.8964 24.5039 80.7491 24.6597 80.5621 24.7787C80.3751 24.8921 80.1626 24.9487 79.9246 24.9487Z" fill="#2E6BD1"/>
<path d="M68.6844 24.9487C68.4577 24.9487 68.248 24.8921 68.0554 24.7787C67.8684 24.6597 67.7182 24.5039 67.6049 24.3112C67.4972 24.1129 67.4434 23.9004 67.4434 23.6737C67.4434 23.4414 67.4972 23.2289 67.6049 23.0362C67.7182 22.8436 67.8684 22.6906 68.0554 22.5772C68.248 22.4639 68.4577 22.4072 68.6844 22.4072C68.9224 22.4072 69.1349 22.4639 69.3219 22.5772C69.5089 22.6906 69.6562 22.8436 69.7639 23.0362C69.8772 23.2289 69.9339 23.4414 69.9339 23.6737C69.9339 23.9004 69.8772 24.1129 69.7639 24.3112C69.6562 24.5039 69.5089 24.6597 69.3219 24.7787C69.1349 24.8921 68.9224 24.9487 68.6844 24.9487Z" fill="#2E6BD1"/>
<path d="M57.4441 24.9487C57.2175 24.9487 57.0078 24.8921 56.8151 24.7787C56.6281 24.6597 56.478 24.5039 56.3646 24.3112C56.257 24.1129 56.2031 23.9004 56.2031 23.6737C56.2031 23.4414 56.257 23.2289 56.3646 23.0362C56.478 22.8436 56.6281 22.6906 56.8151 22.5772C57.0078 22.4639 57.2175 22.4072 57.4441 22.4072C57.6821 22.4072 57.8946 22.4639 58.0816 22.5772C58.2686 22.6906 58.416 22.8436 58.5236 23.0362C58.637 23.2289 58.6936 23.4414 58.6936 23.6737C58.6936 23.9004 58.637 24.1129 58.5236 24.3112C58.416 24.5039 58.2686 24.6597 58.0816 24.7787C57.8946 24.8921 57.6821 24.9487 57.4441 24.9487Z" fill="#2E6BD1"/>
<path d="M46.2019 24.9487C45.9753 24.9487 45.7656 24.8921 45.5729 24.7787C45.3859 24.6597 45.2358 24.5039 45.1224 24.3112C45.0148 24.1129 44.9609 23.9004 44.9609 23.6737C44.9609 23.4414 45.0148 23.2289 45.1224 23.0362C45.2358 22.8436 45.3859 22.6906 45.5729 22.5772C45.7656 22.4639 45.9753 22.4072 46.2019 22.4072C46.4399 22.4072 46.6524 22.4639 46.8394 22.5772C47.0264 22.6906 47.1738 22.8436 47.2814 23.0362C47.3948 23.2289 47.4514 23.4414 47.4514 23.6737C47.4514 23.9004 47.3948 24.1129 47.2814 24.3112C47.1738 24.5039 47.0264 24.6597 46.8394 24.7787C46.6524 24.8921 46.4399 24.9487 46.2019 24.9487Z" fill="#2E6BD1"/>
<path d="M34.9637 24.9487C34.737 24.9487 34.5273 24.8921 34.3347 24.7787C34.1477 24.6597 33.9975 24.5039 33.8842 24.3112C33.7765 24.1129 33.7227 23.9004 33.7227 23.6737C33.7227 23.4414 33.7765 23.2289 33.8842 23.0362C33.9975 22.8436 34.1477 22.6906 34.3347 22.5772C34.5273 22.4639 34.737 22.4072 34.9637 22.4072C35.2017 22.4072 35.4142 22.4639 35.6012 22.5772C35.7882 22.6906 35.9355 22.8436 36.0432 23.0362C36.1565 23.2289 36.2132 23.4414 36.2132 23.6737C36.2132 23.9004 36.1565 24.1129 36.0432 24.3112C35.9355 24.5039 35.7882 24.6597 35.6012 24.7787C35.4142 24.8921 35.2017 24.9487 34.9637 24.9487Z" fill="#2E6BD1"/>
<path d="M23.7215 24.9487C23.4948 24.9487 23.2851 24.8921 23.0925 24.7787C22.9055 24.6597 22.7553 24.5039 22.642 24.3112C22.5343 24.1129 22.4805 23.9004 22.4805 23.6737C22.4805 23.4414 22.5343 23.2289 22.642 23.0362C22.7553 22.8436 22.9055 22.6906 23.0925 22.5772C23.2851 22.4639 23.4948 22.4072 23.7215 22.4072C23.9595 22.4072 24.172 22.4639 24.359 22.5772C24.546 22.6906 24.6933 22.8436 24.801 23.0362C24.9143 23.2289 24.971 23.4414 24.971 23.6737C24.971 23.9004 24.9143 24.1129 24.801 24.3112C24.6933 24.5039 24.546 24.6597 24.359 24.7787C24.172 24.8921 23.9595 24.9487 23.7215 24.9487Z" fill="#2E6BD1"/>
<path d="M12.4812 24.9487C12.2546 24.9487 12.0449 24.8921 11.8522 24.7787C11.6652 24.6597 11.5151 24.5039 11.4017 24.3112C11.2941 24.1129 11.2402 23.9004 11.2402 23.6737C11.2402 23.4414 11.2941 23.2289 11.4017 23.0362C11.5151 22.8436 11.6652 22.6906 11.8522 22.5772C12.0449 22.4639 12.2546 22.4072 12.4812 22.4072C12.7192 22.4072 12.9317 22.4639 13.1187 22.5772C13.3057 22.6906 13.4531 22.8436 13.5607 23.0362C13.6741 23.2289 13.7307 23.4414 13.7307 23.6737C13.7307 23.9004 13.6741 24.1129 13.5607 24.3112C13.4531 24.5039 13.3057 24.6597 13.1187 24.7787C12.9317 24.8921 12.7192 24.9487 12.4812 24.9487Z" fill="#2E6BD1"/>
<path d="M1.241 24.9487C1.01433 24.9487 0.804667 24.8921 0.612 24.7787C0.425 24.6597 0.274833 24.5039 0.1615 24.3112C0.0538333 24.1129 0 23.9004 0 23.6737C0 23.4414 0.0538333 23.2289 0.1615 23.0362C0.274833 22.8436 0.425 22.6906 0.612 22.5772C0.804667 22.4639 1.01433 22.4072 1.241 22.4072C1.479 22.4072 1.6915 22.4639 1.8785 22.5772C2.0655 22.6906 2.21283 22.8436 2.3205 23.0362C2.43383 23.2289 2.4905 23.4414 2.4905 23.6737C2.4905 23.9004 2.43383 24.1129 2.3205 24.3112C2.21283 24.5039 2.0655 24.6597 1.8785 24.7787C1.6915 24.8921 1.479 24.9487 1.241 24.9487Z" fill="#2E6BD1"/>
</svg>
