<svg width="229" height="36" viewBox="0 0 229 36" fill="none" xmlns="http://www.w3.org/2000/svg">
<path d="M226.871 2.97355C226.654 2.97355 226.454 2.91942 226.27 2.81115C226.091 2.69747 225.948 2.5486 225.839 2.36455C225.736 2.17508 225.685 1.97208 225.685 1.75554C225.685 1.5336 225.736 1.33059 225.839 1.14654C225.948 0.962484 226.091 0.816323 226.27 0.708056C226.454 0.599788 226.654 0.545654 226.871 0.545654C227.098 0.545654 227.301 0.599788 227.48 0.708056C227.658 0.816323 227.799 0.962484 227.902 1.14654C228.01 1.33059 228.064 1.5336 228.064 1.75554C228.064 1.97208 228.01 2.17508 227.902 2.36455C227.799 2.5486 227.658 2.69747 227.48 2.81115C227.301 2.91942 227.098 2.97355 226.871 2.97355Z" fill="#212121"/>
<path d="M216.132 2.97355C215.916 2.97355 215.716 2.91942 215.531 2.81115C215.353 2.69747 215.209 2.5486 215.101 2.36455C214.998 2.17508 214.947 1.97208 214.947 1.75554C214.947 1.5336 214.998 1.33059 215.101 1.14654C215.209 0.962484 215.353 0.816323 215.531 0.708056C215.716 0.599788 215.916 0.545654 216.132 0.545654C216.36 0.545654 216.563 0.599788 216.741 0.708056C216.92 0.816323 217.061 0.962484 217.164 1.14654C217.272 1.33059 217.326 1.5336 217.326 1.75554C217.326 1.97208 217.272 2.17508 217.164 2.36455C217.061 2.5486 216.92 2.69747 216.741 2.81115C216.563 2.91942 216.36 2.97355 216.132 2.97355Z" fill="#212121"/>
<path d="M205.394 2.97355C205.178 2.97355 204.978 2.91942 204.794 2.81115C204.615 2.69747 204.472 2.5486 204.363 2.36455C204.26 2.17508 204.209 1.97208 204.209 1.75554C204.209 1.5336 204.26 1.33059 204.363 1.14654C204.472 0.962484 204.615 0.816323 204.794 0.708056C204.978 0.599788 205.178 0.545654 205.394 0.545654C205.622 0.545654 205.825 0.599788 206.004 0.708056C206.182 0.816323 206.323 0.962484 206.426 1.14654C206.534 1.33059 206.588 1.5336 206.588 1.75554C206.588 1.97208 206.534 2.17508 206.426 2.36455C206.323 2.5486 206.182 2.69747 206.004 2.81115C205.825 2.91942 205.622 2.97355 205.394 2.97355Z" fill="#212121"/>
<path d="M194.656 2.97355C194.44 2.97355 194.239 2.91942 194.055 2.81115C193.877 2.69747 193.733 2.5486 193.625 2.36455C193.522 2.17508 193.471 1.97208 193.471 1.75554C193.471 1.5336 193.522 1.33059 193.625 1.14654C193.733 0.962484 193.877 0.816323 194.055 0.708056C194.239 0.599788 194.44 0.545654 194.656 0.545654C194.884 0.545654 195.087 0.599788 195.265 0.708056C195.444 0.816323 195.585 0.962484 195.688 1.14654C195.796 1.33059 195.85 1.5336 195.85 1.75554C195.85 1.97208 195.796 2.17508 195.688 2.36455C195.585 2.5486 195.444 2.69747 195.265 2.81115C195.087 2.91942 194.884 2.97355 194.656 2.97355Z" fill="#212121"/>
<path d="M183.918 2.97355C183.702 2.97355 183.502 2.91942 183.318 2.81115C183.139 2.69747 182.995 2.5486 182.887 2.36455C182.784 2.17508 182.733 1.97208 182.733 1.75554C182.733 1.5336 182.784 1.33059 182.887 1.14654C182.995 0.962484 183.139 0.816323 183.318 0.708056C183.502 0.599788 183.702 0.545654 183.918 0.545654C184.146 0.545654 184.349 0.599788 184.527 0.708056C184.706 0.816323 184.847 0.962484 184.95 1.14654C185.058 1.33059 185.112 1.5336 185.112 1.75554C185.112 1.97208 185.058 2.17508 184.95 2.36455C184.847 2.5486 184.706 2.69747 184.527 2.81115C184.349 2.91942 184.146 2.97355 183.918 2.97355Z" fill="#212121"/>
<path d="M173.18 2.97355C172.964 2.97355 172.763 2.91942 172.579 2.81115C172.401 2.69747 172.257 2.5486 172.149 2.36455C172.046 2.17508 171.995 1.97208 171.995 1.75554C171.995 1.5336 172.046 1.33059 172.149 1.14654C172.257 0.962484 172.401 0.816323 172.579 0.708056C172.763 0.599788 172.964 0.545654 173.18 0.545654C173.407 0.545654 173.611 0.599788 173.789 0.708056C173.968 0.816323 174.109 0.962484 174.211 1.14654C174.32 1.33059 174.374 1.5336 174.374 1.75554C174.374 1.97208 174.32 2.17508 174.211 2.36455C174.109 2.5486 173.968 2.69747 173.789 2.81115C173.611 2.91942 173.407 2.97355 173.18 2.97355Z" fill="#212121"/>
<path d="M162.441 2.97355C162.225 2.97355 162.025 2.91942 161.841 2.81115C161.662 2.69747 161.518 2.5486 161.41 2.36455C161.307 2.17508 161.256 1.97208 161.256 1.75554C161.256 1.5336 161.307 1.33059 161.41 1.14654C161.518 0.962484 161.662 0.816323 161.841 0.708056C162.025 0.599788 162.225 0.545654 162.441 0.545654C162.669 0.545654 162.872 0.599788 163.05 0.708056C163.229 0.816323 163.37 0.962484 163.473 1.14654C163.581 1.33059 163.635 1.5336 163.635 1.75554C163.635 1.97208 163.581 2.17508 163.473 2.36455C163.37 2.5486 163.229 2.69747 163.05 2.81115C162.872 2.91942 162.669 2.97355 162.441 2.97355Z" fill="#212121"/>
<path d="M151.704 2.97355C151.487 2.97355 151.287 2.91942 151.103 2.81115C150.924 2.69747 150.781 2.5486 150.672 2.36455C150.569 2.17508 150.518 1.97208 150.518 1.75554C150.518 1.5336 150.569 1.33059 150.672 1.14654C150.781 0.962484 150.924 0.816323 151.103 0.708056C151.287 0.599788 151.487 0.545654 151.704 0.545654C151.931 0.545654 152.134 0.599788 152.313 0.708056C152.491 0.816323 152.632 0.962484 152.735 1.14654C152.843 1.33059 152.897 1.5336 152.897 1.75554C152.897 1.97208 152.843 2.17508 152.735 2.36455C152.632 2.5486 152.491 2.69747 152.313 2.81115C152.134 2.91942 151.931 2.97355 151.704 2.97355Z" fill="#212121"/>
<path d="M140.965 2.97355C140.749 2.97355 140.549 2.91942 140.364 2.81115C140.186 2.69747 140.042 2.5486 139.934 2.36455C139.831 2.17508 139.78 1.97208 139.78 1.75554C139.78 1.5336 139.831 1.33059 139.934 1.14654C140.042 0.962484 140.186 0.816323 140.364 0.708056C140.549 0.599788 140.749 0.545654 140.965 0.545654C141.193 0.545654 141.396 0.599788 141.574 0.708056C141.753 0.816323 141.894 0.962484 141.997 1.14654C142.105 1.33059 142.159 1.5336 142.159 1.75554C142.159 1.97208 142.105 2.17508 141.997 2.36455C141.894 2.5486 141.753 2.69747 141.574 2.81115C141.396 2.91942 141.193 2.97355 140.965 2.97355Z" fill="#212121"/>
<path d="M130.227 2.97355C130.011 2.97355 129.811 2.91942 129.627 2.81115C129.448 2.69747 129.305 2.5486 129.196 2.36455C129.093 2.17508 129.042 1.97208 129.042 1.75554C129.042 1.5336 129.093 1.33059 129.196 1.14654C129.305 0.962484 129.448 0.816323 129.627 0.708056C129.811 0.599788 130.011 0.545654 130.227 0.545654C130.455 0.545654 130.658 0.599788 130.837 0.708056C131.015 0.816323 131.156 0.962484 131.259 1.14654C131.367 1.33059 131.421 1.5336 131.421 1.75554C131.421 1.97208 131.367 2.17508 131.259 2.36455C131.156 2.5486 131.015 2.69747 130.837 2.81115C130.658 2.91942 130.455 2.97355 130.227 2.97355Z" fill="#212121"/>
<path d="M119.489 2.97355C119.273 2.97355 119.072 2.91942 118.888 2.81115C118.71 2.69747 118.566 2.5486 118.458 2.36455C118.355 2.17508 118.304 1.97208 118.304 1.75554C118.304 1.5336 118.355 1.33059 118.458 1.14654C118.566 0.962484 118.71 0.816323 118.888 0.708056C119.072 0.599788 119.273 0.545654 119.489 0.545654C119.717 0.545654 119.92 0.599788 120.098 0.708056C120.277 0.816323 120.418 0.962484 120.521 1.14654C120.629 1.33059 120.683 1.5336 120.683 1.75554C120.683 1.97208 120.629 2.17508 120.521 2.36455C120.418 2.5486 120.277 2.69747 120.098 2.81115C119.92 2.91942 119.717 2.97355 119.489 2.97355Z" fill="#212121"/>
<path d="M108.751 2.97355C108.535 2.97355 108.335 2.91942 108.151 2.81115C107.972 2.69747 107.828 2.5486 107.72 2.36455C107.617 2.17508 107.566 1.97208 107.566 1.75554C107.566 1.5336 107.617 1.33059 107.72 1.14654C107.828 0.962484 107.972 0.816323 108.151 0.708056C108.335 0.599788 108.535 0.545654 108.751 0.545654C108.979 0.545654 109.182 0.599788 109.36 0.708056C109.539 0.816323 109.68 0.962484 109.783 1.14654C109.891 1.33059 109.945 1.5336 109.945 1.75554C109.945 1.97208 109.891 2.17508 109.783 2.36455C109.68 2.5486 109.539 2.69747 109.36 2.81115C109.182 2.91942 108.979 2.97355 108.751 2.97355Z" fill="#212121"/>
<path d="M98.0132 2.97355C97.7967 2.97355 97.5963 2.91942 97.4123 2.81115C97.2336 2.69747 97.0902 2.5486 96.9819 2.36455C96.8791 2.17508 96.8276 1.97208 96.8276 1.75554C96.8276 1.5336 96.8791 1.33059 96.9819 1.14654C97.0902 0.962484 97.2336 0.816323 97.4123 0.708056C97.5963 0.599788 97.7967 0.545654 98.0132 0.545654C98.2406 0.545654 98.4435 0.599788 98.6222 0.708056C98.8008 0.816323 98.9416 0.962484 99.0444 1.14654C99.1527 1.33059 99.2068 1.5336 99.2068 1.75554C99.2068 1.97208 99.1527 2.17508 99.0444 2.36455C98.9416 2.5486 98.8008 2.69747 98.6222 2.81115C98.4435 2.91942 98.2406 2.97355 98.0132 2.97355Z" fill="#212121"/>
<path d="M87.2744 2.97355C87.0579 2.97355 86.8576 2.91942 86.6735 2.81115C86.4949 2.69747 86.3514 2.5486 86.2431 2.36455C86.1403 2.17508 86.0889 1.97208 86.0889 1.75554C86.0889 1.5336 86.1403 1.33059 86.2431 1.14654C86.3514 0.962484 86.4949 0.816323 86.6735 0.708056C86.8576 0.599788 87.0579 0.545654 87.2744 0.545654C87.5018 0.545654 87.7047 0.599788 87.8834 0.708056C88.062 0.816323 88.2028 0.962484 88.3056 1.14654C88.4139 1.33059 88.468 1.5336 88.468 1.75554C88.468 1.97208 88.4139 2.17508 88.3056 2.36455C88.2028 2.5486 88.062 2.69747 87.8834 2.81115C87.7047 2.91942 87.5018 2.97355 87.2744 2.97355Z" fill="#212121"/>
<path d="M76.5366 2.97355C76.3201 2.97355 76.1198 2.91942 75.9357 2.81115C75.7571 2.69747 75.6136 2.5486 75.5054 2.36455C75.4025 2.17508 75.3511 1.97208 75.3511 1.75554C75.3511 1.5336 75.4025 1.33059 75.5054 1.14654C75.6136 0.962484 75.7571 0.816323 75.9357 0.708056C76.1198 0.599788 76.3201 0.545654 76.5366 0.545654C76.764 0.545654 76.9669 0.599788 77.1456 0.708056C77.3242 0.816323 77.465 0.962484 77.5678 1.14654C77.6761 1.33059 77.7302 1.5336 77.7302 1.75554C77.7302 1.97208 77.6761 2.17508 77.5678 2.36455C77.465 2.5486 77.3242 2.69747 77.1456 2.81115C76.9669 2.91942 76.764 2.97355 76.5366 2.97355Z" fill="#212121"/>
<path d="M65.7983 2.97355C65.5818 2.97355 65.3815 2.91942 65.1974 2.81115C65.0188 2.69747 64.8753 2.5486 64.7671 2.36455C64.6642 2.17508 64.6128 1.97208 64.6128 1.75554C64.6128 1.5336 64.6642 1.33059 64.7671 1.14654C64.8753 0.962484 65.0188 0.816323 65.1974 0.708056C65.3815 0.599788 65.5818 0.545654 65.7983 0.545654C66.0257 0.545654 66.2287 0.599788 66.4073 0.708056C66.5859 0.816323 66.7267 0.962484 66.8296 1.14654C66.9378 1.33059 66.992 1.5336 66.992 1.75554C66.992 1.97208 66.9378 2.17508 66.8296 2.36455C66.7267 2.5486 66.5859 2.69747 66.4073 2.81115C66.2287 2.91942 66.0257 2.97355 65.7983 2.97355Z" fill="#212121"/>
<path d="M55.0606 2.97355C54.844 2.97355 54.6437 2.91942 54.4596 2.81115C54.281 2.69747 54.1375 2.5486 54.0293 2.36455C53.9264 2.17508 53.875 1.97208 53.875 1.75554C53.875 1.5336 53.9264 1.33059 54.0293 1.14654C54.1375 0.962484 54.281 0.816323 54.4596 0.708056C54.6437 0.599788 54.844 0.545654 55.0606 0.545654C55.2879 0.545654 55.4909 0.599788 55.6695 0.708056C55.8482 0.816323 55.9889 0.962484 56.0918 1.14654C56.2 1.33059 56.2542 1.5336 56.2542 1.75554C56.2542 1.97208 56.2 2.17508 56.0918 2.36455C55.9889 2.5486 55.8482 2.69747 55.6695 2.81115C55.4909 2.91942 55.2879 2.97355 55.0606 2.97355Z" fill="#212121"/>
<path d="M44.3228 2.97355C44.1062 2.97355 43.9059 2.91942 43.7219 2.81115C43.5432 2.69747 43.3998 2.5486 43.2915 2.36455C43.1886 2.17508 43.1372 1.97208 43.1372 1.75554C43.1372 1.5336 43.1886 1.33059 43.2915 1.14654C43.3998 0.962484 43.5432 0.816323 43.7219 0.708056C43.9059 0.599788 44.1062 0.545654 44.3228 0.545654C44.5501 0.545654 44.7531 0.599788 44.9317 0.708056C45.1104 0.816323 45.2511 0.962484 45.354 1.14654C45.4622 1.33059 45.5164 1.5336 45.5164 1.75554C45.5164 1.97208 45.4622 2.17508 45.354 2.36455C45.2511 2.5486 45.1104 2.69747 44.9317 2.81115C44.7531 2.91942 44.5501 2.97355 44.3228 2.97355Z" fill="#212121"/>
<path d="M33.584 2.97355C33.3675 2.97355 33.1671 2.91942 32.9831 2.81115C32.8044 2.69747 32.661 2.5486 32.5527 2.36455C32.4499 2.17508 32.3984 1.97208 32.3984 1.75554C32.3984 1.5336 32.4499 1.33059 32.5527 1.14654C32.661 0.962484 32.8044 0.816323 32.9831 0.708056C33.1671 0.599788 33.3675 0.545654 33.584 0.545654C33.8114 0.545654 34.0143 0.599788 34.193 0.708056C34.3716 0.816323 34.5124 0.962484 34.6152 1.14654C34.7235 1.33059 34.7776 1.5336 34.7776 1.75554C34.7776 1.97208 34.7235 2.17508 34.6152 2.36455C34.5124 2.5486 34.3716 2.69747 34.193 2.81115C34.0143 2.91942 33.8114 2.97355 33.584 2.97355Z" fill="#212121"/>
<path d="M22.8457 2.97355C22.6292 2.97355 22.4289 2.91942 22.2448 2.81115C22.0662 2.69747 21.9227 2.5486 21.8144 2.36455C21.7116 2.17508 21.6602 1.97208 21.6602 1.75554C21.6602 1.5336 21.7116 1.33059 21.8144 1.14654C21.9227 0.962484 22.0662 0.816323 22.2448 0.708056C22.4289 0.599788 22.6292 0.545654 22.8457 0.545654C23.0731 0.545654 23.276 0.599788 23.4547 0.708056C23.6333 0.816323 23.7741 0.962484 23.8769 1.14654C23.9852 1.33059 24.0393 1.5336 24.0393 1.75554C24.0393 1.97208 23.9852 2.17508 23.8769 2.36455C23.7741 2.5486 23.6333 2.69747 23.4547 2.81115C23.276 2.91942 23.0731 2.97355 22.8457 2.97355Z" fill="#212121"/>
<path d="M12.1074 2.97355C11.8909 2.97355 11.6906 2.91942 11.5065 2.81115C11.3279 2.69747 11.1844 2.5486 11.0762 2.36455C10.9733 2.17508 10.9219 1.97208 10.9219 1.75554C10.9219 1.5336 10.9733 1.33059 11.0762 1.14654C11.1844 0.962484 11.3279 0.816323 11.5065 0.708056C11.6906 0.599788 11.8909 0.545654 12.1074 0.545654C12.3348 0.545654 12.5377 0.599788 12.7164 0.708056C12.895 0.816323 13.0358 0.962484 13.1386 1.14654C13.2469 1.33059 13.301 1.5336 13.301 1.75554C13.301 1.97208 13.2469 2.17508 13.1386 2.36455C13.0358 2.5486 12.895 2.69747 12.7164 2.81115C12.5377 2.91942 12.3348 2.97355 12.1074 2.97355Z" fill="#212121"/>
<path d="M226.871 24.3788C226.654 24.3788 226.454 24.3247 226.27 24.2164C226.091 24.1027 225.948 23.9539 225.839 23.7698C225.736 23.5804 225.685 23.3774 225.685 23.1608C225.685 22.9389 225.736 22.7359 225.839 22.5518C225.948 22.3678 226.091 22.2216 226.27 22.1133C226.454 22.0051 226.654 21.9509 226.871 21.9509C227.098 21.9509 227.301 22.0051 227.48 22.1133C227.658 22.2216 227.799 22.3678 227.902 22.5518C228.01 22.7359 228.064 22.9389 228.064 23.1608C228.064 23.3774 228.01 23.5804 227.902 23.7698C227.799 23.9539 227.658 24.1027 227.48 24.2164C227.301 24.3247 227.098 24.3788 226.871 24.3788Z" fill="#212121"/>
<path d="M216.132 24.3788C215.916 24.3788 215.716 24.3247 215.531 24.2164C215.353 24.1027 215.209 23.9539 215.101 23.7698C214.998 23.5804 214.947 23.3774 214.947 23.1608C214.947 22.9389 214.998 22.7359 215.101 22.5518C215.209 22.3678 215.353 22.2216 215.531 22.1133C215.716 22.0051 215.916 21.9509 216.132 21.9509C216.36 21.9509 216.563 22.0051 216.741 22.1133C216.92 22.2216 217.061 22.3678 217.164 22.5518C217.272 22.7359 217.326 22.9389 217.326 23.1608C217.326 23.3774 217.272 23.5804 217.164 23.7698C217.061 23.9539 216.92 24.1027 216.741 24.2164C216.563 24.3247 216.36 24.3788 216.132 24.3788Z" fill="#212121"/>
<path d="M205.394 24.3788C205.178 24.3788 204.978 24.3247 204.794 24.2164C204.615 24.1027 204.472 23.9539 204.363 23.7698C204.26 23.5804 204.209 23.3774 204.209 23.1608C204.209 22.9389 204.26 22.7359 204.363 22.5518C204.472 22.3678 204.615 22.2216 204.794 22.1133C204.978 22.0051 205.178 21.9509 205.394 21.9509C205.622 21.9509 205.825 22.0051 206.004 22.1133C206.182 22.2216 206.323 22.3678 206.426 22.5518C206.534 22.7359 206.588 22.9389 206.588 23.1608C206.588 23.3774 206.534 23.5804 206.426 23.7698C206.323 23.9539 206.182 24.1027 206.004 24.2164C205.825 24.3247 205.622 24.3788 205.394 24.3788Z" fill="#212121"/>
<path d="M194.656 24.3788C194.44 24.3788 194.239 24.3247 194.055 24.2164C193.877 24.1027 193.733 23.9539 193.625 23.7698C193.522 23.5804 193.471 23.3774 193.471 23.1608C193.471 22.9389 193.522 22.7359 193.625 22.5518C193.733 22.3678 193.877 22.2216 194.055 22.1133C194.239 22.0051 194.44 21.9509 194.656 21.9509C194.884 21.9509 195.087 22.0051 195.265 22.1133C195.444 22.2216 195.585 22.3678 195.688 22.5518C195.796 22.7359 195.85 22.9389 195.85 23.1608C195.85 23.3774 195.796 23.5804 195.688 23.7698C195.585 23.9539 195.444 24.1027 195.265 24.2164C195.087 24.3247 194.884 24.3788 194.656 24.3788Z" fill="#212121"/>
<path d="M183.918 24.3788C183.702 24.3788 183.502 24.3247 183.318 24.2164C183.139 24.1027 182.995 23.9539 182.887 23.7698C182.784 23.5804 182.733 23.3774 182.733 23.1608C182.733 22.9389 182.784 22.7359 182.887 22.5518C182.995 22.3678 183.139 22.2216 183.318 22.1133C183.502 22.0051 183.702 21.9509 183.918 21.9509C184.146 21.9509 184.349 22.0051 184.527 22.1133C184.706 22.2216 184.847 22.3678 184.95 22.5518C185.058 22.7359 185.112 22.9389 185.112 23.1608C185.112 23.3774 185.058 23.5804 184.95 23.7698C184.847 23.9539 184.706 24.1027 184.527 24.2164C184.349 24.3247 184.146 24.3788 183.918 24.3788Z" fill="#212121"/>
<path d="M173.18 24.3788C172.964 24.3788 172.763 24.3247 172.579 24.2164C172.401 24.1027 172.257 23.9539 172.149 23.7698C172.046 23.5804 171.995 23.3774 171.995 23.1608C171.995 22.9389 172.046 22.7359 172.149 22.5518C172.257 22.3678 172.401 22.2216 172.579 22.1133C172.763 22.0051 172.964 21.9509 173.18 21.9509C173.407 21.9509 173.611 22.0051 173.789 22.1133C173.968 22.2216 174.109 22.3678 174.211 22.5518C174.32 22.7359 174.374 22.9389 174.374 23.1608C174.374 23.3774 174.32 23.5804 174.211 23.7698C174.109 23.9539 173.968 24.1027 173.789 24.2164C173.611 24.3247 173.407 24.3788 173.18 24.3788Z" fill="#212121"/>
<path d="M162.441 24.3788C162.225 24.3788 162.025 24.3247 161.841 24.2164C161.662 24.1027 161.518 23.9539 161.41 23.7698C161.307 23.5804 161.256 23.3774 161.256 23.1608C161.256 22.9389 161.307 22.7359 161.41 22.5518C161.518 22.3678 161.662 22.2216 161.841 22.1133C162.025 22.0051 162.225 21.9509 162.441 21.9509C162.669 21.9509 162.872 22.0051 163.05 22.1133C163.229 22.2216 163.37 22.3678 163.473 22.5518C163.581 22.7359 163.635 22.9389 163.635 23.1608C163.635 23.3774 163.581 23.5804 163.473 23.7698C163.37 23.9539 163.229 24.1027 163.05 24.2164C162.872 24.3247 162.669 24.3788 162.441 24.3788Z" fill="#212121"/>
<path d="M151.704 24.3788C151.487 24.3788 151.287 24.3247 151.103 24.2164C150.924 24.1027 150.781 23.9539 150.672 23.7698C150.569 23.5804 150.518 23.3774 150.518 23.1608C150.518 22.9389 150.569 22.7359 150.672 22.5518C150.781 22.3678 150.924 22.2216 151.103 22.1133C151.287 22.0051 151.487 21.9509 151.704 21.9509C151.931 21.9509 152.134 22.0051 152.313 22.1133C152.491 22.2216 152.632 22.3678 152.735 22.5518C152.843 22.7359 152.897 22.9389 152.897 23.1608C152.897 23.3774 152.843 23.5804 152.735 23.7698C152.632 23.9539 152.491 24.1027 152.313 24.2164C152.134 24.3247 151.931 24.3788 151.704 24.3788Z" fill="#212121"/>
<path d="M140.965 24.3788C140.749 24.3788 140.549 24.3247 140.364 24.2164C140.186 24.1027 140.042 23.9539 139.934 23.7698C139.831 23.5804 139.78 23.3774 139.78 23.1608C139.78 22.9389 139.831 22.7359 139.934 22.5518C140.042 22.3678 140.186 22.2216 140.364 22.1133C140.549 22.0051 140.749 21.9509 140.965 21.9509C141.193 21.9509 141.396 22.0051 141.574 22.1133C141.753 22.2216 141.894 22.3678 141.997 22.5518C142.105 22.7359 142.159 22.9389 142.159 23.1608C142.159 23.3774 142.105 23.5804 141.997 23.7698C141.894 23.9539 141.753 24.1027 141.574 24.2164C141.396 24.3247 141.193 24.3788 140.965 24.3788Z" fill="#212121"/>
<path d="M130.227 24.3788C130.011 24.3788 129.811 24.3247 129.627 24.2164C129.448 24.1027 129.305 23.9539 129.196 23.7698C129.093 23.5804 129.042 23.3774 129.042 23.1608C129.042 22.9389 129.093 22.7359 129.196 22.5518C129.305 22.3678 129.448 22.2216 129.627 22.1133C129.811 22.0051 130.011 21.9509 130.227 21.9509C130.455 21.9509 130.658 22.0051 130.837 22.1133C131.015 22.2216 131.156 22.3678 131.259 22.5518C131.367 22.7359 131.421 22.9389 131.421 23.1608C131.421 23.3774 131.367 23.5804 131.259 23.7698C131.156 23.9539 131.015 24.1027 130.837 24.2164C130.658 24.3247 130.455 24.3788 130.227 24.3788Z" fill="#212121"/>
<path d="M119.489 24.3788C119.273 24.3788 119.072 24.3247 118.888 24.2164C118.71 24.1027 118.566 23.9539 118.458 23.7698C118.355 23.5804 118.304 23.3774 118.304 23.1608C118.304 22.9389 118.355 22.7359 118.458 22.5518C118.566 22.3678 118.71 22.2216 118.888 22.1133C119.072 22.0051 119.273 21.9509 119.489 21.9509C119.717 21.9509 119.92 22.0051 120.098 22.1133C120.277 22.2216 120.418 22.3678 120.521 22.5518C120.629 22.7359 120.683 22.9389 120.683 23.1608C120.683 23.3774 120.629 23.5804 120.521 23.7698C120.418 23.9539 120.277 24.1027 120.098 24.2164C119.92 24.3247 119.717 24.3788 119.489 24.3788Z" fill="#212121"/>
<path d="M108.751 24.3788C108.535 24.3788 108.335 24.3247 108.151 24.2164C107.972 24.1027 107.828 23.9539 107.72 23.7698C107.617 23.5804 107.566 23.3774 107.566 23.1608C107.566 22.9389 107.617 22.7359 107.72 22.5518C107.828 22.3678 107.972 22.2216 108.151 22.1133C108.335 22.0051 108.535 21.9509 108.751 21.9509C108.979 21.9509 109.182 22.0051 109.36 22.1133C109.539 22.2216 109.68 22.3678 109.783 22.5518C109.891 22.7359 109.945 22.9389 109.945 23.1608C109.945 23.3774 109.891 23.5804 109.783 23.7698C109.68 23.9539 109.539 24.1027 109.36 24.2164C109.182 24.3247 108.979 24.3788 108.751 24.3788Z" fill="#212121"/>
<path d="M98.0132 24.3788C97.7967 24.3788 97.5963 24.3247 97.4123 24.2164C97.2336 24.1027 97.0902 23.9539 96.9819 23.7698C96.8791 23.5804 96.8276 23.3774 96.8276 23.1608C96.8276 22.9389 96.8791 22.7359 96.9819 22.5518C97.0902 22.3678 97.2336 22.2216 97.4123 22.1133C97.5963 22.0051 97.7967 21.9509 98.0132 21.9509C98.2406 21.9509 98.4435 22.0051 98.6222 22.1133C98.8008 22.2216 98.9416 22.3678 99.0444 22.5518C99.1527 22.7359 99.2068 22.9389 99.2068 23.1608C99.2068 23.3774 99.1527 23.5804 99.0444 23.7698C98.9416 23.9539 98.8008 24.1027 98.6222 24.2164C98.4435 24.3247 98.2406 24.3788 98.0132 24.3788Z" fill="#212121"/>
<path d="M87.2744 24.3788C87.0579 24.3788 86.8576 24.3247 86.6735 24.2164C86.4949 24.1027 86.3514 23.9539 86.2431 23.7698C86.1403 23.5804 86.0889 23.3774 86.0889 23.1608C86.0889 22.9389 86.1403 22.7359 86.2431 22.5518C86.3514 22.3678 86.4949 22.2216 86.6735 22.1133C86.8576 22.0051 87.0579 21.9509 87.2744 21.9509C87.5018 21.9509 87.7047 22.0051 87.8834 22.1133C88.062 22.2216 88.2028 22.3678 88.3056 22.5518C88.4139 22.7359 88.468 22.9389 88.468 23.1608C88.468 23.3774 88.4139 23.5804 88.3056 23.7698C88.2028 23.9539 88.062 24.1027 87.8834 24.2164C87.7047 24.3247 87.5018 24.3788 87.2744 24.3788Z" fill="#212121"/>
<path d="M76.5366 24.3788C76.3201 24.3788 76.1198 24.3247 75.9357 24.2164C75.7571 24.1027 75.6136 23.9539 75.5054 23.7698C75.4025 23.5804 75.3511 23.3774 75.3511 23.1608C75.3511 22.9389 75.4025 22.7359 75.5054 22.5518C75.6136 22.3678 75.7571 22.2216 75.9357 22.1133C76.1198 22.0051 76.3201 21.9509 76.5366 21.9509C76.764 21.9509 76.9669 22.0051 77.1456 22.1133C77.3242 22.2216 77.465 22.3678 77.5678 22.5518C77.6761 22.7359 77.7302 22.9389 77.7302 23.1608C77.7302 23.3774 77.6761 23.5804 77.5678 23.7698C77.465 23.9539 77.3242 24.1027 77.1456 24.2164C76.9669 24.3247 76.764 24.3788 76.5366 24.3788Z" fill="#212121"/>
<path d="M65.7983 24.3788C65.5818 24.3788 65.3815 24.3247 65.1974 24.2164C65.0188 24.1027 64.8753 23.9539 64.7671 23.7698C64.6642 23.5804 64.6128 23.3774 64.6128 23.1608C64.6128 22.9389 64.6642 22.7359 64.7671 22.5518C64.8753 22.3678 65.0188 22.2216 65.1974 22.1133C65.3815 22.0051 65.5818 21.9509 65.7983 21.9509C66.0257 21.9509 66.2287 22.0051 66.4073 22.1133C66.5859 22.2216 66.7267 22.3678 66.8296 22.5518C66.9378 22.7359 66.992 22.9389 66.992 23.1608C66.992 23.3774 66.9378 23.5804 66.8296 23.7698C66.7267 23.9539 66.5859 24.1027 66.4073 24.2164C66.2287 24.3247 66.0257 24.3788 65.7983 24.3788Z" fill="#212121"/>
<path d="M55.0606 24.3788C54.844 24.3788 54.6437 24.3247 54.4596 24.2164C54.281 24.1027 54.1375 23.9539 54.0293 23.7698C53.9264 23.5804 53.875 23.3774 53.875 23.1608C53.875 22.9389 53.9264 22.7359 54.0293 22.5518C54.1375 22.3678 54.281 22.2216 54.4596 22.1133C54.6437 22.0051 54.844 21.9509 55.0606 21.9509C55.2879 21.9509 55.4909 22.0051 55.6695 22.1133C55.8482 22.2216 55.9889 22.3678 56.0918 22.5518C56.2 22.7359 56.2542 22.9389 56.2542 23.1608C56.2542 23.3774 56.2 23.5804 56.0918 23.7698C55.9889 23.9539 55.8482 24.1027 55.6695 24.2164C55.4909 24.3247 55.2879 24.3788 55.0606 24.3788Z" fill="#212121"/>
<path d="M44.3228 24.3788C44.1062 24.3788 43.9059 24.3247 43.7219 24.2164C43.5432 24.1027 43.3998 23.9539 43.2915 23.7698C43.1886 23.5804 43.1372 23.3774 43.1372 23.1608C43.1372 22.9389 43.1886 22.7359 43.2915 22.5518C43.3998 22.3678 43.5432 22.2216 43.7219 22.1133C43.9059 22.0051 44.1062 21.9509 44.3228 21.9509C44.5501 21.9509 44.7531 22.0051 44.9317 22.1133C45.1104 22.2216 45.2511 22.3678 45.354 22.5518C45.4622 22.7359 45.5164 22.9389 45.5164 23.1608C45.5164 23.3774 45.4622 23.5804 45.354 23.7698C45.2511 23.9539 45.1104 24.1027 44.9317 24.2164C44.7531 24.3247 44.5501 24.3788 44.3228 24.3788Z" fill="#212121"/>
<path d="M33.584 24.3788C33.3675 24.3788 33.1671 24.3247 32.9831 24.2164C32.8044 24.1027 32.661 23.9539 32.5527 23.7698C32.4499 23.5804 32.3984 23.3774 32.3984 23.1608C32.3984 22.9389 32.4499 22.7359 32.5527 22.5518C32.661 22.3678 32.8044 22.2216 32.9831 22.1133C33.1671 22.0051 33.3675 21.9509 33.584 21.9509C33.8114 21.9509 34.0143 22.0051 34.193 22.1133C34.3716 22.2216 34.5124 22.3678 34.6152 22.5518C34.7235 22.7359 34.7776 22.9389 34.7776 23.1608C34.7776 23.3774 34.7235 23.5804 34.6152 23.7698C34.5124 23.9539 34.3716 24.1027 34.193 24.2164C34.0143 24.3247 33.8114 24.3788 33.584 24.3788Z" fill="#212121"/>
<path d="M22.8457 24.3788C22.6292 24.3788 22.4289 24.3247 22.2448 24.2164C22.0662 24.1027 21.9227 23.9539 21.8144 23.7698C21.7116 23.5804 21.6602 23.3774 21.6602 23.1608C21.6602 22.9389 21.7116 22.7359 21.8144 22.5518C21.9227 22.3678 22.0662 22.2216 22.2448 22.1133C22.4289 22.0051 22.6292 21.9509 22.8457 21.9509C23.0731 21.9509 23.276 22.0051 23.4547 22.1133C23.6333 22.2216 23.7741 22.3678 23.8769 22.5518C23.9852 22.7359 24.0393 22.9389 24.0393 23.1608C24.0393 23.3774 23.9852 23.5804 23.8769 23.7698C23.7741 23.9539 23.6333 24.1027 23.4547 24.2164C23.276 24.3247 23.0731 24.3788 22.8457 24.3788Z" fill="#212121"/>
<path d="M12.1074 24.3788C11.8909 24.3788 11.6906 24.3247 11.5065 24.2164C11.3279 24.1027 11.1844 23.9539 11.0762 23.7698C10.9733 23.5804 10.9219 23.3774 10.9219 23.1608C10.9219 22.9389 10.9733 22.7359 11.0762 22.5518C11.1844 22.3678 11.3279 22.2216 11.5065 22.1133C11.6906 22.0051 11.8909 21.9509 12.1074 21.9509C12.3348 21.9509 12.5377 22.0051 12.7164 22.1133C12.895 22.2216 13.0358 22.3678 13.1386 22.5518C13.2469 22.7359 13.301 22.9389 13.301 23.1608C13.301 23.3774 13.2469 23.5804 13.1386 23.7698C13.0358 23.9539 12.895 24.1027 12.7164 24.2164C12.5377 24.3247 12.3348 24.3788 12.1074 24.3788Z" fill="#212121"/>
<path d="M226.687 13.6767C226.47 13.6767 226.27 13.6225 226.086 13.5143C225.908 13.4006 225.764 13.2517 225.656 13.0677C225.553 12.8782 225.501 12.6752 225.501 12.4587C225.501 12.2367 225.553 12.0337 225.656 11.8497C225.764 11.6656 225.908 11.5194 226.086 11.4112C226.27 11.3029 226.47 11.2488 226.687 11.2488C226.914 11.2488 227.117 11.3029 227.296 11.4112C227.475 11.5194 227.615 11.6656 227.718 11.8497C227.827 12.0337 227.881 12.2367 227.881 12.4587C227.881 12.6752 227.827 12.8782 227.718 13.0677C227.615 13.2517 227.475 13.4006 227.296 13.5143C227.117 13.6225 226.914 13.6767 226.687 13.6767Z" fill="#212121"/>
<path d="M215.949 13.6767C215.732 13.6767 215.532 13.6225 215.348 13.5143C215.169 13.4006 215.026 13.2517 214.917 13.0677C214.815 12.8782 214.763 12.6752 214.763 12.4587C214.763 12.2367 214.815 12.0337 214.917 11.8497C215.026 11.6656 215.169 11.5194 215.348 11.4112C215.532 11.3029 215.732 11.2488 215.949 11.2488C216.176 11.2488 216.379 11.3029 216.558 11.4112C216.736 11.5194 216.877 11.6656 216.98 11.8497C217.088 12.0337 217.142 12.2367 217.142 12.4587C217.142 12.6752 217.088 12.8782 216.98 13.0677C216.877 13.2517 216.736 13.4006 216.558 13.5143C216.379 13.6225 216.176 13.6767 215.949 13.6767Z" fill="#212121"/>
<path d="M205.21 13.6767C204.993 13.6767 204.793 13.6225 204.609 13.5143C204.43 13.4006 204.287 13.2517 204.179 13.0677C204.076 12.8782 204.024 12.6752 204.024 12.4587C204.024 12.2367 204.076 12.0337 204.179 11.8497C204.287 11.6656 204.43 11.5194 204.609 11.4112C204.793 11.3029 204.993 11.2488 205.21 11.2488C205.437 11.2488 205.64 11.3029 205.819 11.4112C205.998 11.5194 206.138 11.6656 206.241 11.8497C206.35 12.0337 206.404 12.2367 206.404 12.4587C206.404 12.6752 206.35 12.8782 206.241 13.0677C206.138 13.2517 205.998 13.4006 205.819 13.5143C205.64 13.6225 205.437 13.6767 205.21 13.6767Z" fill="#212121"/>
<path d="M194.472 13.6767C194.256 13.6767 194.055 13.6225 193.871 13.5143C193.693 13.4006 193.549 13.2517 193.441 13.0677C193.338 12.8782 193.287 12.6752 193.287 12.4587C193.287 12.2367 193.338 12.0337 193.441 11.8497C193.549 11.6656 193.693 11.5194 193.871 11.4112C194.055 11.3029 194.256 11.2488 194.472 11.2488C194.699 11.2488 194.903 11.3029 195.081 11.4112C195.26 11.5194 195.401 11.6656 195.503 11.8497C195.612 12.0337 195.666 12.2367 195.666 12.4587C195.666 12.6752 195.612 12.8782 195.503 13.0677C195.401 13.2517 195.26 13.4006 195.081 13.5143C194.903 13.6225 194.699 13.6767 194.472 13.6767Z" fill="#212121"/>
<path d="M183.734 13.6767C183.518 13.6767 183.318 13.6225 183.134 13.5143C182.955 13.4006 182.811 13.2517 182.703 13.0677C182.6 12.8782 182.549 12.6752 182.549 12.4587C182.549 12.2367 182.6 12.0337 182.703 11.8497C182.811 11.6656 182.955 11.5194 183.134 11.4112C183.318 11.3029 183.518 11.2488 183.734 11.2488C183.962 11.2488 184.165 11.3029 184.343 11.4112C184.522 11.5194 184.663 11.6656 184.766 11.8497C184.874 12.0337 184.928 12.2367 184.928 12.4587C184.928 12.6752 184.874 12.8782 184.766 13.0677C184.663 13.2517 184.522 13.4006 184.343 13.5143C184.165 13.6225 183.962 13.6767 183.734 13.6767Z" fill="#212121"/>
<path d="M172.996 13.6767C172.78 13.6767 172.579 13.6225 172.395 13.5143C172.217 13.4006 172.073 13.2517 171.965 13.0677C171.862 12.8782 171.811 12.6752 171.811 12.4587C171.811 12.2367 171.862 12.0337 171.965 11.8497C172.073 11.6656 172.217 11.5194 172.395 11.4112C172.579 11.3029 172.78 11.2488 172.996 11.2488C173.223 11.2488 173.426 11.3029 173.605 11.4112C173.784 11.5194 173.925 11.6656 174.027 11.8497C174.136 12.0337 174.19 12.2367 174.19 12.4587C174.19 12.6752 174.136 12.8782 174.027 13.0677C173.925 13.2517 173.784 13.4006 173.605 13.5143C173.426 13.6225 173.223 13.6767 172.996 13.6767Z" fill="#212121"/>
<path d="M162.258 13.6767C162.042 13.6767 161.842 13.6225 161.657 13.5143C161.479 13.4006 161.335 13.2517 161.227 13.0677C161.124 12.8782 161.073 12.6752 161.073 12.4587C161.073 12.2367 161.124 12.0337 161.227 11.8497C161.335 11.6656 161.479 11.5194 161.657 11.4112C161.842 11.3029 162.042 11.2488 162.258 11.2488C162.486 11.2488 162.689 11.3029 162.867 11.4112C163.046 11.5194 163.187 11.6656 163.29 11.8497C163.398 12.0337 163.452 12.2367 163.452 12.4587C163.452 12.6752 163.398 12.8782 163.29 13.0677C163.187 13.2517 163.046 13.4006 162.867 13.5143C162.689 13.6225 162.486 13.6767 162.258 13.6767Z" fill="#212121"/>
<path d="M151.519 13.6767C151.303 13.6767 151.103 13.6225 150.919 13.5143C150.74 13.4006 150.597 13.2517 150.488 13.0677C150.385 12.8782 150.334 12.6752 150.334 12.4587C150.334 12.2367 150.385 12.0337 150.488 11.8497C150.597 11.6656 150.74 11.5194 150.919 11.4112C151.103 11.3029 151.303 11.2488 151.519 11.2488C151.747 11.2488 151.95 11.3029 152.129 11.4112C152.307 11.5194 152.448 11.6656 152.551 11.8497C152.659 12.0337 152.713 12.2367 152.713 12.4587C152.713 12.6752 152.659 12.8782 152.551 13.0677C152.448 13.2517 152.307 13.4006 152.129 13.5143C151.95 13.6225 151.747 13.6767 151.519 13.6767Z" fill="#212121"/>
<path d="M140.782 13.6767C140.565 13.6767 140.365 13.6225 140.181 13.5143C140.002 13.4006 139.859 13.2517 139.75 13.0677C139.648 12.8782 139.596 12.6752 139.596 12.4587C139.596 12.2367 139.648 12.0337 139.75 11.8497C139.859 11.6656 140.002 11.5194 140.181 11.4112C140.365 11.3029 140.565 11.2488 140.782 11.2488C141.009 11.2488 141.212 11.3029 141.391 11.4112C141.569 11.5194 141.71 11.6656 141.813 11.8497C141.921 12.0337 141.975 12.2367 141.975 12.4587C141.975 12.6752 141.921 12.8782 141.813 13.0677C141.71 13.2517 141.569 13.4006 141.391 13.5143C141.212 13.6225 141.009 13.6767 140.782 13.6767Z" fill="#212121"/>
<path d="M130.043 13.6767C129.827 13.6767 129.627 13.6225 129.443 13.5143C129.264 13.4006 129.12 13.2517 129.012 13.0677C128.909 12.8782 128.858 12.6752 128.858 12.4587C128.858 12.2367 128.909 12.0337 129.012 11.8497C129.12 11.6656 129.264 11.5194 129.443 11.4112C129.627 11.3029 129.827 11.2488 130.043 11.2488C130.271 11.2488 130.474 11.3029 130.652 11.4112C130.831 11.5194 130.972 11.6656 131.075 11.8497C131.183 12.0337 131.237 12.2367 131.237 12.4587C131.237 12.6752 131.183 12.8782 131.075 13.0677C130.972 13.2517 130.831 13.4006 130.652 13.5143C130.474 13.6225 130.271 13.6767 130.043 13.6767Z" fill="#212121"/>
<path d="M119.305 13.6767C119.089 13.6767 118.888 13.6225 118.704 13.5143C118.526 13.4006 118.382 13.2517 118.274 13.0677C118.171 12.8782 118.12 12.6752 118.12 12.4587C118.12 12.2367 118.171 12.0337 118.274 11.8497C118.382 11.6656 118.526 11.5194 118.704 11.4112C118.888 11.3029 119.089 11.2488 119.305 11.2488C119.532 11.2488 119.736 11.3029 119.914 11.4112C120.093 11.5194 120.234 11.6656 120.336 11.8497C120.445 12.0337 120.499 12.2367 120.499 12.4587C120.499 12.6752 120.445 12.8782 120.336 13.0677C120.234 13.2517 120.093 13.4006 119.914 13.5143C119.736 13.6225 119.532 13.6767 119.305 13.6767Z" fill="#212121"/>
<path d="M108.567 13.6767C108.351 13.6767 108.151 13.6225 107.967 13.5143C107.788 13.4006 107.644 13.2517 107.536 13.0677C107.433 12.8782 107.382 12.6752 107.382 12.4587C107.382 12.2367 107.433 12.0337 107.536 11.8497C107.644 11.6656 107.788 11.5194 107.967 11.4112C108.151 11.3029 108.351 11.2488 108.567 11.2488C108.795 11.2488 108.998 11.3029 109.176 11.4112C109.355 11.5194 109.496 11.6656 109.599 11.8497C109.707 12.0337 109.761 12.2367 109.761 12.4587C109.761 12.6752 109.707 12.8782 109.599 13.0677C109.496 13.2517 109.355 13.4006 109.176 13.5143C108.998 13.6225 108.795 13.6767 108.567 13.6767Z" fill="#212121"/>
<path d="M97.8296 13.6767C97.6131 13.6767 97.4127 13.6225 97.2287 13.5143C97.05 13.4006 96.9066 13.2517 96.7983 13.0677C96.6955 12.8782 96.644 12.6752 96.644 12.4587C96.644 12.2367 96.6955 12.0337 96.7983 11.8497C96.9066 11.6656 97.05 11.5194 97.2287 11.4112C97.4127 11.3029 97.6131 11.2488 97.8296 11.2488C98.057 11.2488 98.2599 11.3029 98.4386 11.4112C98.6172 11.5194 98.758 11.6656 98.8608 11.8497C98.9691 12.0337 99.0232 12.2367 99.0232 12.4587C99.0232 12.6752 98.9691 12.8782 98.8608 13.0677C98.758 13.2517 98.6172 13.4006 98.4386 13.5143C98.2599 13.6225 98.057 13.6767 97.8296 13.6767Z" fill="#212121"/>
<path d="M87.0908 13.6767C86.8743 13.6767 86.674 13.6225 86.4899 13.5143C86.3113 13.4006 86.1678 13.2517 86.0596 13.0677C85.9567 12.8782 85.9053 12.6752 85.9053 12.4587C85.9053 12.2367 85.9567 12.0337 86.0596 11.8497C86.1678 11.6656 86.3113 11.5194 86.4899 11.4112C86.674 11.3029 86.8743 11.2488 87.0908 11.2488C87.3182 11.2488 87.5211 11.3029 87.6998 11.4112C87.8784 11.5194 88.0192 11.6656 88.122 11.8497C88.2303 12.0337 88.2844 12.2367 88.2844 12.4587C88.2844 12.6752 88.2303 12.8782 88.122 13.0677C88.0192 13.2517 87.8784 13.4006 87.6998 13.5143C87.5211 13.6225 87.3182 13.6767 87.0908 13.6767Z" fill="#212121"/>
<path d="M76.3525 13.6767C76.136 13.6767 75.9357 13.6225 75.7516 13.5143C75.573 13.4006 75.4295 13.2517 75.3213 13.0677C75.2184 12.8782 75.167 12.6752 75.167 12.4587C75.167 12.2367 75.2184 12.0337 75.3213 11.8497C75.4295 11.6656 75.573 11.5194 75.7516 11.4112C75.9357 11.3029 76.136 11.2488 76.3525 11.2488C76.5799 11.2488 76.7829 11.3029 76.9615 11.4112C77.1401 11.5194 77.2809 11.6656 77.3838 11.8497C77.492 12.0337 77.5462 12.2367 77.5462 12.4587C77.5462 12.6752 77.492 12.8782 77.3838 13.0677C77.2809 13.2517 77.1401 13.4006 76.9615 13.5143C76.7829 13.6225 76.5799 13.6767 76.3525 13.6767Z" fill="#212121"/>
<path d="M65.6148 13.6767C65.3982 13.6767 65.1979 13.6225 65.0138 13.5143C64.8352 13.4006 64.6917 13.2517 64.5835 13.0677C64.4806 12.8782 64.4292 12.6752 64.4292 12.4587C64.4292 12.2367 64.4806 12.0337 64.5835 11.8497C64.6917 11.6656 64.8352 11.5194 65.0138 11.4112C65.1979 11.3029 65.3982 11.2488 65.6148 11.2488C65.8421 11.2488 66.0451 11.3029 66.2237 11.4112C66.4024 11.5194 66.5431 11.6656 66.646 11.8497C66.7542 12.0337 66.8084 12.2367 66.8084 12.4587C66.8084 12.6752 66.7542 12.8782 66.646 13.0677C66.5431 13.2517 66.4024 13.4006 66.2237 13.5143C66.0451 13.6225 65.8421 13.6767 65.6148 13.6767Z" fill="#212121"/>
<path d="M54.8765 13.6767C54.6599 13.6767 54.4596 13.6225 54.2756 13.5143C54.0969 13.4006 53.9535 13.2517 53.8452 13.0677C53.7423 12.8782 53.6909 12.6752 53.6909 12.4587C53.6909 12.2367 53.7423 12.0337 53.8452 11.8497C53.9535 11.6656 54.0969 11.5194 54.2756 11.4112C54.4596 11.3029 54.6599 11.2488 54.8765 11.2488C55.1038 11.2488 55.3068 11.3029 55.4854 11.4112C55.6641 11.5194 55.8048 11.6656 55.9077 11.8497C56.016 12.0337 56.0701 12.2367 56.0701 12.4587C56.0701 12.6752 56.016 12.8782 55.9077 13.0677C55.8048 13.2517 55.6641 13.4006 55.4854 13.5143C55.3068 13.6225 55.1038 13.6767 54.8765 13.6767Z" fill="#212121"/>
<path d="M44.1387 13.6767C43.9221 13.6767 43.7218 13.6225 43.5378 13.5143C43.3591 13.4006 43.2157 13.2517 43.1074 13.0677C43.0046 12.8782 42.9531 12.6752 42.9531 12.4587C42.9531 12.2367 43.0046 12.0337 43.1074 11.8497C43.2157 11.6656 43.3591 11.5194 43.5378 11.4112C43.7218 11.3029 43.9221 11.2488 44.1387 11.2488C44.366 11.2488 44.569 11.3029 44.7476 11.4112C44.9263 11.5194 45.067 11.6656 45.1699 11.8497C45.2782 12.0337 45.3323 12.2367 45.3323 12.4587C45.3323 12.6752 45.2782 12.8782 45.1699 13.0677C45.067 13.2517 44.9263 13.4006 44.7476 13.5143C44.569 13.6225 44.366 13.6767 44.1387 13.6767Z" fill="#212121"/>
<path d="M33.4004 13.6767C33.1839 13.6767 32.9835 13.6225 32.7995 13.5143C32.6208 13.4006 32.4774 13.2517 32.3691 13.0677C32.2663 12.8782 32.2148 12.6752 32.2148 12.4587C32.2148 12.2367 32.2663 12.0337 32.3691 11.8497C32.4774 11.6656 32.6208 11.5194 32.7995 11.4112C32.9835 11.3029 33.1839 11.2488 33.4004 11.2488C33.6278 11.2488 33.8307 11.3029 34.0094 11.4112C34.188 11.5194 34.3288 11.6656 34.4316 11.8497C34.5399 12.0337 34.594 12.2367 34.594 12.4587C34.594 12.6752 34.5399 12.8782 34.4316 13.0677C34.3288 13.2517 34.188 13.4006 34.0094 13.5143C33.8307 13.6225 33.6278 13.6767 33.4004 13.6767Z" fill="#212121"/>
<path d="M22.6621 13.6767C22.4456 13.6767 22.2453 13.6225 22.0612 13.5143C21.8826 13.4006 21.7391 13.2517 21.6308 13.0677C21.528 12.8782 21.4766 12.6752 21.4766 12.4587C21.4766 12.2367 21.528 12.0337 21.6308 11.8497C21.7391 11.6656 21.8826 11.5194 22.0612 11.4112C22.2453 11.3029 22.4456 11.2488 22.6621 11.2488C22.8895 11.2488 23.0924 11.3029 23.2711 11.4112C23.4497 11.5194 23.5905 11.6656 23.6933 11.8497C23.8016 12.0337 23.8557 12.2367 23.8557 12.4587C23.8557 12.6752 23.8016 12.8782 23.6933 13.0677C23.5905 13.2517 23.4497 13.4006 23.2711 13.5143C23.0924 13.6225 22.8895 13.6767 22.6621 13.6767Z" fill="#212121"/>
<path d="M11.9238 13.6767C11.7073 13.6767 11.507 13.6225 11.3229 13.5143C11.1443 13.4006 11.0008 13.2517 10.8926 13.0677C10.7897 12.8782 10.7383 12.6752 10.7383 12.4587C10.7383 12.2367 10.7897 12.0337 10.8926 11.8497C11.0008 11.6656 11.1443 11.5194 11.3229 11.4112C11.507 11.3029 11.7073 11.2488 11.9238 11.2488C12.1512 11.2488 12.3542 11.3029 12.5328 11.4112C12.7114 11.5194 12.8522 11.6656 12.9551 11.8497C13.0633 12.0337 13.1174 12.2367 13.1174 12.4587C13.1174 12.6752 13.0633 12.8782 12.9551 13.0677C12.8522 13.2517 12.7114 13.4006 12.5328 13.5143C12.3542 13.6225 12.1512 13.6767 11.9238 13.6767Z" fill="#212121"/>
<path d="M226.687 35.082C226.47 35.082 226.27 35.0278 226.086 34.9196C225.908 34.8059 225.764 34.657 225.656 34.4729C225.553 34.2835 225.501 34.0805 225.501 33.8639C225.501 33.642 225.553 33.439 225.656 33.2549C225.764 33.0709 225.908 32.9247 226.086 32.8165C226.27 32.7082 226.47 32.6541 226.687 32.6541C226.914 32.6541 227.117 32.7082 227.296 32.8165C227.475 32.9247 227.615 33.0709 227.718 33.2549C227.827 33.439 227.881 33.642 227.881 33.8639C227.881 34.0805 227.827 34.2835 227.718 34.4729C227.615 34.657 227.475 34.8059 227.296 34.9196C227.117 35.0278 226.914 35.082 226.687 35.082Z" fill="#212121"/>
<path d="M215.949 35.082C215.732 35.082 215.532 35.0278 215.348 34.9196C215.169 34.8059 215.026 34.657 214.917 34.4729C214.815 34.2835 214.763 34.0805 214.763 33.8639C214.763 33.642 214.815 33.439 214.917 33.2549C215.026 33.0709 215.169 32.9247 215.348 32.8165C215.532 32.7082 215.732 32.6541 215.949 32.6541C216.176 32.6541 216.379 32.7082 216.558 32.8165C216.736 32.9247 216.877 33.0709 216.98 33.2549C217.088 33.439 217.142 33.642 217.142 33.8639C217.142 34.0805 217.088 34.2835 216.98 34.4729C216.877 34.657 216.736 34.8059 216.558 34.9196C216.379 35.0278 216.176 35.082 215.949 35.082Z" fill="#212121"/>
<path d="M205.21 35.082C204.993 35.082 204.793 35.0278 204.609 34.9196C204.43 34.8059 204.287 34.657 204.179 34.4729C204.076 34.2835 204.024 34.0805 204.024 33.8639C204.024 33.642 204.076 33.439 204.179 33.2549C204.287 33.0709 204.43 32.9247 204.609 32.8165C204.793 32.7082 204.993 32.6541 205.21 32.6541C205.437 32.6541 205.64 32.7082 205.819 32.8165C205.998 32.9247 206.138 33.0709 206.241 33.2549C206.35 33.439 206.404 33.642 206.404 33.8639C206.404 34.0805 206.35 34.2835 206.241 34.4729C206.138 34.657 205.998 34.8059 205.819 34.9196C205.64 35.0278 205.437 35.082 205.21 35.082Z" fill="#212121"/>
<path d="M194.472 35.082C194.256 35.082 194.055 35.0278 193.871 34.9196C193.693 34.8059 193.549 34.657 193.441 34.4729C193.338 34.2835 193.287 34.0805 193.287 33.8639C193.287 33.642 193.338 33.439 193.441 33.2549C193.549 33.0709 193.693 32.9247 193.871 32.8165C194.055 32.7082 194.256 32.6541 194.472 32.6541C194.699 32.6541 194.903 32.7082 195.081 32.8165C195.26 32.9247 195.401 33.0709 195.503 33.2549C195.612 33.439 195.666 33.642 195.666 33.8639C195.666 34.0805 195.612 34.2835 195.503 34.4729C195.401 34.657 195.26 34.8059 195.081 34.9196C194.903 35.0278 194.699 35.082 194.472 35.082Z" fill="#212121"/>
<path d="M183.734 35.082C183.518 35.082 183.318 35.0278 183.134 34.9196C182.955 34.8059 182.811 34.657 182.703 34.4729C182.6 34.2835 182.549 34.0805 182.549 33.8639C182.549 33.642 182.6 33.439 182.703 33.2549C182.811 33.0709 182.955 32.9247 183.134 32.8165C183.318 32.7082 183.518 32.6541 183.734 32.6541C183.962 32.6541 184.165 32.7082 184.343 32.8165C184.522 32.9247 184.663 33.0709 184.766 33.2549C184.874 33.439 184.928 33.642 184.928 33.8639C184.928 34.0805 184.874 34.2835 184.766 34.4729C184.663 34.657 184.522 34.8059 184.343 34.9196C184.165 35.0278 183.962 35.082 183.734 35.082Z" fill="#212121"/>
<path d="M172.996 35.082C172.78 35.082 172.579 35.0278 172.395 34.9196C172.217 34.8059 172.073 34.657 171.965 34.4729C171.862 34.2835 171.811 34.0805 171.811 33.8639C171.811 33.642 171.862 33.439 171.965 33.2549C172.073 33.0709 172.217 32.9247 172.395 32.8165C172.579 32.7082 172.78 32.6541 172.996 32.6541C173.223 32.6541 173.426 32.7082 173.605 32.8165C173.784 32.9247 173.925 33.0709 174.027 33.2549C174.136 33.439 174.19 33.642 174.19 33.8639C174.19 34.0805 174.136 34.2835 174.027 34.4729C173.925 34.657 173.784 34.8059 173.605 34.9196C173.426 35.0278 173.223 35.082 172.996 35.082Z" fill="#212121"/>
<path d="M162.258 35.082C162.042 35.082 161.842 35.0278 161.657 34.9196C161.479 34.8059 161.335 34.657 161.227 34.4729C161.124 34.2835 161.073 34.0805 161.073 33.8639C161.073 33.642 161.124 33.439 161.227 33.2549C161.335 33.0709 161.479 32.9247 161.657 32.8165C161.842 32.7082 162.042 32.6541 162.258 32.6541C162.486 32.6541 162.689 32.7082 162.867 32.8165C163.046 32.9247 163.187 33.0709 163.29 33.2549C163.398 33.439 163.452 33.642 163.452 33.8639C163.452 34.0805 163.398 34.2835 163.29 34.4729C163.187 34.657 163.046 34.8059 162.867 34.9196C162.689 35.0278 162.486 35.082 162.258 35.082Z" fill="#212121"/>
<path d="M151.519 35.082C151.303 35.082 151.103 35.0278 150.919 34.9196C150.74 34.8059 150.597 34.657 150.488 34.4729C150.385 34.2835 150.334 34.0805 150.334 33.8639C150.334 33.642 150.385 33.439 150.488 33.2549C150.597 33.0709 150.74 32.9247 150.919 32.8165C151.103 32.7082 151.303 32.6541 151.519 32.6541C151.747 32.6541 151.95 32.7082 152.129 32.8165C152.307 32.9247 152.448 33.0709 152.551 33.2549C152.659 33.439 152.713 33.642 152.713 33.8639C152.713 34.0805 152.659 34.2835 152.551 34.4729C152.448 34.657 152.307 34.8059 152.129 34.9196C151.95 35.0278 151.747 35.082 151.519 35.082Z" fill="#212121"/>
<path d="M140.782 35.082C140.565 35.082 140.365 35.0278 140.181 34.9196C140.002 34.8059 139.859 34.657 139.75 34.4729C139.648 34.2835 139.596 34.0805 139.596 33.8639C139.596 33.642 139.648 33.439 139.75 33.2549C139.859 33.0709 140.002 32.9247 140.181 32.8165C140.365 32.7082 140.565 32.6541 140.782 32.6541C141.009 32.6541 141.212 32.7082 141.391 32.8165C141.569 32.9247 141.71 33.0709 141.813 33.2549C141.921 33.439 141.975 33.642 141.975 33.8639C141.975 34.0805 141.921 34.2835 141.813 34.4729C141.71 34.657 141.569 34.8059 141.391 34.9196C141.212 35.0278 141.009 35.082 140.782 35.082Z" fill="#212121"/>
<path d="M130.043 35.082C129.827 35.082 129.627 35.0278 129.443 34.9196C129.264 34.8059 129.12 34.657 129.012 34.4729C128.909 34.2835 128.858 34.0805 128.858 33.8639C128.858 33.642 128.909 33.439 129.012 33.2549C129.12 33.0709 129.264 32.9247 129.443 32.8165C129.627 32.7082 129.827 32.6541 130.043 32.6541C130.271 32.6541 130.474 32.7082 130.652 32.8165C130.831 32.9247 130.972 33.0709 131.075 33.2549C131.183 33.439 131.237 33.642 131.237 33.8639C131.237 34.0805 131.183 34.2835 131.075 34.4729C130.972 34.657 130.831 34.8059 130.652 34.9196C130.474 35.0278 130.271 35.082 130.043 35.082Z" fill="#212121"/>
<path d="M119.305 35.082C119.089 35.082 118.888 35.0278 118.704 34.9196C118.526 34.8059 118.382 34.657 118.274 34.4729C118.171 34.2835 118.12 34.0805 118.12 33.8639C118.12 33.642 118.171 33.439 118.274 33.2549C118.382 33.0709 118.526 32.9247 118.704 32.8165C118.888 32.7082 119.089 32.6541 119.305 32.6541C119.532 32.6541 119.736 32.7082 119.914 32.8165C120.093 32.9247 120.234 33.0709 120.336 33.2549C120.445 33.439 120.499 33.642 120.499 33.8639C120.499 34.0805 120.445 34.2835 120.336 34.4729C120.234 34.657 120.093 34.8059 119.914 34.9196C119.736 35.0278 119.532 35.082 119.305 35.082Z" fill="#212121"/>
<path d="M108.567 35.082C108.351 35.082 108.151 35.0278 107.967 34.9196C107.788 34.8059 107.644 34.657 107.536 34.4729C107.433 34.2835 107.382 34.0805 107.382 33.8639C107.382 33.642 107.433 33.439 107.536 33.2549C107.644 33.0709 107.788 32.9247 107.967 32.8165C108.151 32.7082 108.351 32.6541 108.567 32.6541C108.795 32.6541 108.998 32.7082 109.176 32.8165C109.355 32.9247 109.496 33.0709 109.599 33.2549C109.707 33.439 109.761 33.642 109.761 33.8639C109.761 34.0805 109.707 34.2835 109.599 34.4729C109.496 34.657 109.355 34.8059 109.176 34.9196C108.998 35.0278 108.795 35.082 108.567 35.082Z" fill="#212121"/>
<path d="M97.8296 35.082C97.6131 35.082 97.4127 35.0278 97.2287 34.9196C97.05 34.8059 96.9066 34.657 96.7983 34.4729C96.6955 34.2835 96.644 34.0805 96.644 33.8639C96.644 33.642 96.6955 33.439 96.7983 33.2549C96.9066 33.0709 97.05 32.9247 97.2287 32.8165C97.4127 32.7082 97.6131 32.6541 97.8296 32.6541C98.057 32.6541 98.2599 32.7082 98.4386 32.8165C98.6172 32.9247 98.758 33.0709 98.8608 33.2549C98.9691 33.439 99.0232 33.642 99.0232 33.8639C99.0232 34.0805 98.9691 34.2835 98.8608 34.4729C98.758 34.657 98.6172 34.8059 98.4386 34.9196C98.2599 35.0278 98.057 35.082 97.8296 35.082Z" fill="#212121"/>
<path d="M87.0908 35.082C86.8743 35.082 86.674 35.0278 86.4899 34.9196C86.3113 34.8059 86.1678 34.657 86.0596 34.4729C85.9567 34.2835 85.9053 34.0805 85.9053 33.8639C85.9053 33.642 85.9567 33.439 86.0596 33.2549C86.1678 33.0709 86.3113 32.9247 86.4899 32.8165C86.674 32.7082 86.8743 32.6541 87.0908 32.6541C87.3182 32.6541 87.5211 32.7082 87.6998 32.8165C87.8784 32.9247 88.0192 33.0709 88.122 33.2549C88.2303 33.439 88.2844 33.642 88.2844 33.8639C88.2844 34.0805 88.2303 34.2835 88.122 34.4729C88.0192 34.657 87.8784 34.8059 87.6998 34.9196C87.5211 35.0278 87.3182 35.082 87.0908 35.082Z" fill="#212121"/>
<path d="M76.3525 35.082C76.136 35.082 75.9357 35.0278 75.7516 34.9196C75.573 34.8059 75.4295 34.657 75.3213 34.4729C75.2184 34.2835 75.167 34.0805 75.167 33.8639C75.167 33.642 75.2184 33.439 75.3213 33.2549C75.4295 33.0709 75.573 32.9247 75.7516 32.8165C75.9357 32.7082 76.136 32.6541 76.3525 32.6541C76.5799 32.6541 76.7829 32.7082 76.9615 32.8165C77.1401 32.9247 77.2809 33.0709 77.3838 33.2549C77.492 33.439 77.5462 33.642 77.5462 33.8639C77.5462 34.0805 77.492 34.2835 77.3838 34.4729C77.2809 34.657 77.1401 34.8059 76.9615 34.9196C76.7829 35.0278 76.5799 35.082 76.3525 35.082Z" fill="#212121"/>
<path d="M65.6148 35.082C65.3982 35.082 65.1979 35.0278 65.0138 34.9196C64.8352 34.8059 64.6917 34.657 64.5835 34.4729C64.4806 34.2835 64.4292 34.0805 64.4292 33.8639C64.4292 33.642 64.4806 33.439 64.5835 33.2549C64.6917 33.0709 64.8352 32.9247 65.0138 32.8165C65.1979 32.7082 65.3982 32.6541 65.6148 32.6541C65.8421 32.6541 66.0451 32.7082 66.2237 32.8165C66.4024 32.9247 66.5431 33.0709 66.646 33.2549C66.7542 33.439 66.8084 33.642 66.8084 33.8639C66.8084 34.0805 66.7542 34.2835 66.646 34.4729C66.5431 34.657 66.4024 34.8059 66.2237 34.9196C66.0451 35.0278 65.8421 35.082 65.6148 35.082Z" fill="#212121"/>
<path d="M54.8765 35.082C54.6599 35.082 54.4596 35.0278 54.2756 34.9196C54.0969 34.8059 53.9535 34.657 53.8452 34.4729C53.7423 34.2835 53.6909 34.0805 53.6909 33.8639C53.6909 33.642 53.7423 33.439 53.8452 33.2549C53.9535 33.0709 54.0969 32.9247 54.2756 32.8165C54.4596 32.7082 54.6599 32.6541 54.8765 32.6541C55.1038 32.6541 55.3068 32.7082 55.4854 32.8165C55.6641 32.9247 55.8048 33.0709 55.9077 33.2549C56.016 33.439 56.0701 33.642 56.0701 33.8639C56.0701 34.0805 56.016 34.2835 55.9077 34.4729C55.8048 34.657 55.6641 34.8059 55.4854 34.9196C55.3068 35.0278 55.1038 35.082 54.8765 35.082Z" fill="#212121"/>
<path d="M44.1387 35.082C43.9221 35.082 43.7218 35.0278 43.5378 34.9196C43.3591 34.8059 43.2157 34.657 43.1074 34.4729C43.0046 34.2835 42.9531 34.0805 42.9531 33.8639C42.9531 33.642 43.0046 33.439 43.1074 33.2549C43.2157 33.0709 43.3591 32.9247 43.5378 32.8165C43.7218 32.7082 43.9221 32.6541 44.1387 32.6541C44.366 32.6541 44.569 32.7082 44.7476 32.8165C44.9263 32.9247 45.067 33.0709 45.1699 33.2549C45.2782 33.439 45.3323 33.642 45.3323 33.8639C45.3323 34.0805 45.2782 34.2835 45.1699 34.4729C45.067 34.657 44.9263 34.8059 44.7476 34.9196C44.569 35.0278 44.366 35.082 44.1387 35.082Z" fill="#212121"/>
<path d="M33.4004 35.082C33.1839 35.082 32.9835 35.0278 32.7995 34.9196C32.6208 34.8059 32.4774 34.657 32.3691 34.4729C32.2663 34.2835 32.2148 34.0805 32.2148 33.8639C32.2148 33.642 32.2663 33.439 32.3691 33.2549C32.4774 33.0709 32.6208 32.9247 32.7995 32.8165C32.9835 32.7082 33.1839 32.6541 33.4004 32.6541C33.6278 32.6541 33.8307 32.7082 34.0094 32.8165C34.188 32.9247 34.3288 33.0709 34.4316 33.2549C34.5399 33.439 34.594 33.642 34.594 33.8639C34.594 34.0805 34.5399 34.2835 34.4316 34.4729C34.3288 34.657 34.188 34.8059 34.0094 34.9196C33.8307 35.0278 33.6278 35.082 33.4004 35.082Z" fill="#212121"/>
<path d="M22.6621 35.082C22.4456 35.082 22.2453 35.0278 22.0612 34.9196C21.8826 34.8059 21.7391 34.657 21.6308 34.4729C21.528 34.2835 21.4766 34.0805 21.4766 33.8639C21.4766 33.642 21.528 33.439 21.6308 33.2549C21.7391 33.0709 21.8826 32.9247 22.0612 32.8165C22.2453 32.7082 22.4456 32.6541 22.6621 32.6541C22.8895 32.6541 23.0924 32.7082 23.2711 32.8165C23.4497 32.9247 23.5905 33.0709 23.6933 33.2549C23.8016 33.439 23.8557 33.642 23.8557 33.8639C23.8557 34.0805 23.8016 34.2835 23.6933 34.4729C23.5905 34.657 23.4497 34.8059 23.2711 34.9196C23.0924 35.0278 22.8895 35.082 22.6621 35.082Z" fill="#212121"/>
<path d="M11.9238 35.082C11.7073 35.082 11.507 35.0278 11.3229 34.9196C11.1443 34.8059 11.0008 34.657 10.8926 34.4729C10.7897 34.2835 10.7383 34.0805 10.7383 33.8639C10.7383 33.642 10.7897 33.439 10.8926 33.2549C11.0008 33.0709 11.1443 32.9247 11.3229 32.8165C11.507 32.7082 11.7073 32.6541 11.9238 32.6541C12.1512 32.6541 12.3542 32.7082 12.5328 32.8165C12.7114 32.9247 12.8522 33.0709 12.9551 33.2549C13.0633 33.439 13.1174 33.642 13.1174 33.8639C13.1174 34.0805 13.0633 34.2835 12.9551 34.4729C12.8522 34.657 12.7114 34.8059 12.5328 34.9196C12.3542 35.0278 12.1512 35.082 11.9238 35.082Z" fill="#212121"/>
<path d="M1.36964 2.97355C1.1531 2.97355 0.952781 2.91942 0.768726 2.81115C0.590085 2.69747 0.44663 2.5486 0.338362 2.36455C0.235508 2.17508 0.184082 1.97208 0.184082 1.75554C0.184082 1.5336 0.235508 1.33059 0.338362 1.14654C0.44663 0.962484 0.590085 0.816323 0.768726 0.708056C0.952781 0.599788 1.1531 0.545654 1.36964 0.545654C1.597 0.545654 1.79996 0.599788 1.9786 0.708056C2.15724 0.816323 2.298 0.962484 2.40086 1.14654C2.50912 1.33059 2.56324 1.5336 2.56324 1.75554C2.56324 1.97208 2.50912 2.17508 2.40086 2.36455C2.298 2.5486 2.15724 2.69747 1.9786 2.81115C1.79996 2.91942 1.597 2.97355 1.36964 2.97355Z" fill="#212121"/>
<path d="M1.18556 13.6772C0.969021 13.6772 0.768699 13.623 0.584644 13.5148C0.406003 13.4011 0.262548 13.2522 0.15428 13.0682C0.0514261 12.8787 0 12.6757 0 12.4592C0 12.2372 0.0514261 12.0342 0.15428 11.8502C0.262548 11.6661 0.406003 11.5199 0.584644 11.4117C0.768699 11.3034 0.969021 11.2493 1.18556 11.2493C1.41292 11.2493 1.61587 11.3034 1.79451 11.4117C1.97316 11.5199 2.11392 11.6661 2.21677 11.8502C2.32504 12.0342 2.37916 12.2372 2.37916 12.4592C2.37916 12.6757 2.32504 12.8787 2.21677 13.0682C2.11392 13.2522 1.97316 13.4011 1.79451 13.5148C1.61587 13.623 1.41292 13.6772 1.18556 13.6772Z" fill="#212121"/>
<path d="M1.36964 24.3788C1.1531 24.3788 0.952781 24.3247 0.768726 24.2164C0.590085 24.1027 0.44663 23.9539 0.338362 23.7698C0.235508 23.5804 0.184082 23.3774 0.184082 23.1608C0.184082 22.9389 0.235508 22.7359 0.338362 22.5518C0.44663 22.3678 0.590085 22.2216 0.768726 22.1133C0.952781 22.0051 1.1531 21.9509 1.36964 21.9509C1.597 21.9509 1.79996 22.0051 1.9786 22.1133C2.15724 22.2216 2.298 22.3678 2.40086 22.5518C2.50912 22.7359 2.56324 22.9389 2.56324 23.1608C2.56324 23.3774 2.50912 23.5804 2.40086 23.7698C2.298 23.9539 2.15724 24.1027 1.9786 24.2164C1.79996 24.3247 1.597 24.3788 1.36964 24.3788Z" fill="#212121"/>
<path d="M1.18556 35.082C0.969021 35.082 0.768699 35.0278 0.584644 34.9196C0.406003 34.8059 0.262548 34.657 0.15428 34.4729C0.0514261 34.2835 0 34.0805 0 33.8639C0 33.642 0.0514261 33.439 0.15428 33.2549C0.262548 33.0709 0.406003 32.9247 0.584644 32.8165C0.768699 32.7082 0.969021 32.6541 1.18556 32.6541C1.41292 32.6541 1.61587 32.7082 1.79451 32.8165C1.97316 32.9247 2.11392 33.0709 2.21677 33.2549C2.32504 33.439 2.37916 33.642 2.37916 33.8639C2.37916 34.0805 2.32504 34.2835 2.21677 34.4729C2.11392 34.657 1.97316 34.8059 1.79451 34.9196C1.61587 35.0278 1.41292 35.082 1.18556 35.082Z" fill="#212121"/>
</svg>
