<svg width="3" height="36" viewBox="0 0 3 36" fill="none" xmlns="http://www.w3.org/2000/svg">
<path d="M1.36964 2.97355C1.1531 2.97355 0.952781 2.91942 0.768726 2.81115C0.590085 2.69747 0.44663 2.5486 0.338362 2.36455C0.235508 2.17508 0.184082 1.97208 0.184082 1.75554C0.184082 1.5336 0.235508 1.33059 0.338362 1.14654C0.44663 0.962484 0.590085 0.816323 0.768726 0.708056C0.952781 0.599788 1.1531 0.545654 1.36964 0.545654C1.597 0.545654 1.79996 0.599788 1.9786 0.708056C2.15724 0.816323 2.298 0.962484 2.40086 1.14654C2.50912 1.33059 2.56324 1.5336 2.56324 1.75554C2.56324 1.97208 2.50912 2.17508 2.40086 2.36455C2.298 2.5486 2.15724 2.69747 1.9786 2.81115C1.79996 2.91942 1.597 2.97355 1.36964 2.97355Z" fill="#212121"/>
<path d="M1.18556 13.6772C0.969021 13.6772 0.768699 13.623 0.584644 13.5148C0.406003 13.4011 0.262548 13.2522 0.15428 13.0682C0.0514261 12.8787 0 12.6757 0 12.4592C0 12.2372 0.0514261 12.0342 0.15428 11.8502C0.262548 11.6661 0.406003 11.5199 0.584644 11.4117C0.768699 11.3034 0.969021 11.2493 1.18556 11.2493C1.41292 11.2493 1.61587 11.3034 1.79451 11.4117C1.97316 11.5199 2.11392 11.6661 2.21677 11.8502C2.32504 12.0342 2.37916 12.2372 2.37916 12.4592C2.37916 12.6757 2.32504 12.8787 2.21677 13.0682C2.11392 13.2522 1.97316 13.4011 1.79451 13.5148C1.61587 13.623 1.41292 13.6772 1.18556 13.6772Z" fill="#212121"/>
<path d="M1.36964 24.3788C1.1531 24.3788 0.952781 24.3247 0.768726 24.2164C0.590085 24.1027 0.44663 23.9539 0.338362 23.7698C0.235508 23.5804 0.184082 23.3774 0.184082 23.1608C0.184082 22.9389 0.235508 22.7359 0.338362 22.5518C0.44663 22.3678 0.590085 22.2216 0.768726 22.1133C0.952781 22.0051 1.1531 21.9509 1.36964 21.9509C1.597 21.9509 1.79996 22.0051 1.9786 22.1133C2.15724 22.2216 2.298 22.3678 2.40086 22.5518C2.50912 22.7359 2.56324 22.9389 2.56324 23.1608C2.56324 23.3774 2.50912 23.5804 2.40086 23.7698C2.298 23.9539 2.15724 24.1027 1.9786 24.2164C1.79996 24.3247 1.597 24.3788 1.36964 24.3788Z" fill="#212121"/>
<path d="M1.18556 35.082C0.969021 35.082 0.768699 35.0278 0.584644 34.9196C0.406003 34.8059 0.262548 34.657 0.15428 34.4729C0.0514261 34.2835 0 34.0805 0 33.8639C0 33.642 0.0514261 33.439 0.15428 33.2549C0.262548 33.0709 0.406003 32.9247 0.584644 32.8165C0.768699 32.7082 0.969021 32.6541 1.18556 32.6541C1.41292 32.6541 1.61587 32.7082 1.79451 32.8165C1.97316 32.9247 2.11392 33.0709 2.21677 33.2549C2.32504 33.439 2.37916 33.642 2.37916 33.8639C2.37916 34.0805 2.32504 34.2835 2.21677 34.4729C2.11392 34.657 1.97316 34.8059 1.79451 34.9196C1.61587 35.0278 1.41292 35.082 1.18556 35.082Z" fill="#212121"/>
</svg>
