<svg width="19" height="23" viewBox="0 0 19 23" fill="none" xmlns="http://www.w3.org/2000/svg">
<path d="M7.3463 22.0158C6.94642 22.0161 6.5504 21.9377 6.18086 21.7849C5.81132 21.6321 5.4755 21.408 5.19259 21.1254L0.892795 16.818C0.609765 16.5353 0.385235 16.1996 0.232043 15.83C0.0788504 15.4605 0 15.0644 0 14.6643C0 14.2643 0.0788504 13.8682 0.232043 13.4986C0.385235 13.1291 0.609765 12.7933 0.892795 12.5106L11.6537 1.7497C12.2341 1.19608 13.0053 0.887207 13.8074 0.887207C14.6095 0.887207 15.3807 1.19608 15.9611 1.7497L18.1072 3.90341C18.3902 4.18612 18.6148 4.52185 18.768 4.8914C18.9212 5.26095 19 5.65707 19 6.05711C19 6.45715 18.9212 6.85327 18.768 7.22282C18.6148 7.59237 18.3902 7.9281 18.1072 8.21081L9.5 16.818C8.9288 17.3892 8.15409 17.7101 7.3463 17.7101C6.5385 17.7101 5.76379 17.3892 5.19259 16.818C4.6214 16.2468 4.3005 15.4721 4.3005 14.6643C4.3005 13.8565 4.6214 13.0818 5.19259 12.5106L12.194 5.51678L13.3051 6.59744L6.3113 13.5913C6.0257 13.8769 5.86525 14.2642 5.86525 14.6681C5.86525 15.072 6.0257 15.4594 6.3113 15.745C6.5969 16.0306 6.98426 16.191 7.38815 16.191C7.79205 16.191 8.17941 16.0306 8.465 15.745L17.0342 7.13016C17.1757 6.9888 17.2879 6.82094 17.3645 6.63616C17.4411 6.45139 17.4806 6.25333 17.4806 6.05331C17.4806 5.85329 17.4411 5.65523 17.3645 5.47045C17.2879 5.28568 17.1757 5.11781 17.0342 4.97645L14.8805 2.83036C14.7391 2.68885 14.5712 2.57658 14.3865 2.49999C14.2017 2.42339 14.0036 2.38396 13.8036 2.38396C13.6036 2.38396 13.4055 2.42339 13.2207 2.49999C13.036 2.57658 12.8681 2.68885 12.7268 2.83036L1.96584 13.5913C1.82433 13.7326 1.71206 13.9005 1.63547 14.0853C1.55887 14.27 1.51944 14.4681 1.51944 14.6681C1.51944 14.8681 1.55887 15.0662 1.63547 15.251C1.71206 15.4358 1.82433 15.6036 1.96584 15.745L6.27325 20.0448C6.41461 20.1863 6.58247 20.2985 6.76725 20.3751C6.95202 20.4517 7.15008 20.4912 7.3501 20.4912C7.55012 20.4912 7.74818 20.4517 7.93296 20.3751C8.11773 20.2985 8.2856 20.1863 8.42695 20.0448L17.5593 10.9125L18.6323 11.9779L9.5 21.1102C9.21834 21.3956 8.88309 21.6224 8.51349 21.7779C8.14389 21.9333 7.74724 22.0141 7.3463 22.0158Z" fill="#2E6BD1"/>
</svg>
