<svg width="254" height="46" viewBox="0 0 254 46" fill="none" xmlns="http://www.w3.org/2000/svg">
<path d="M245.26 18.4585H242.752V9.68253L246.496 5.92139H254V18.4585H251.51V8.42882H247.749L245.26 10.9362V18.4585Z" fill="white"/>
<path d="M232.404 12.2079H238.655V8.42882H234.894L232.404 10.9542V12.2079ZM232.404 18.4585H229.897V9.70044L233.64 5.92139H241.145V18.4585H238.655V14.7153H232.404V18.4585Z" fill="white"/>
<path d="M219.553 18.4585H217.046V5.92139H219.553V14.2675L225.804 5.92139H228.293V18.4585H225.804V10.0945L219.553 18.4585Z" fill="white"/>
<path d="M206.519 18.4585H204.011V9.68253L207.754 5.92139H215.259V18.4585H212.769V8.42882H209.008L206.519 10.9362V18.4585Z" fill="white"/>
<path d="M193.667 18.4585H191.16V5.92139H193.667V14.2675L199.918 5.92139H202.407V18.4585H199.918V10.0945L193.667 18.4585Z" fill="white"/>
<path d="M175.775 5.92159H180.79V4.04102H183.298V5.92159H188.295L189.548 7.19321V15.3603L188.295 16.5961H183.298V18.4587H180.79V16.5961H175.775L174.54 15.3603V7.19321L175.775 5.92159ZM177.047 14.0886H180.79V8.42902H177.047V14.0886ZM183.298 14.0886H187.059V8.42902H183.298V14.0886Z" fill="white"/>
<path d="M155.753 3.43174V0.924316H158.261V2.55414H162.022V0.924316H164.529V3.43174L163.275 4.68546H157.025L155.753 3.43174ZM157.025 18.4584H154.517V5.92126H157.025V14.2674L163.275 5.92126H165.765V18.4584H163.275V10.0943L157.025 18.4584Z" fill="white"/>
<path d="M143.994 18.4585H141.487V5.92139H143.994V14.2675L150.245 5.92139H152.735V18.4585H150.245V10.0945L143.994 18.4585Z" fill="white"/>
<path d="M131.139 18.4585H128.632V5.92139H131.139V10.9542H134.882L137.39 8.44673V5.92139H139.879V9.70044L137.39 12.2079L139.879 14.7153V18.4585H137.39V15.9511L134.882 13.4616H131.139V18.4585Z" fill="white"/>
<path d="M125.788 18.4585H117.012L115.776 17.2227V7.19301L117.012 5.92139H125.788L127.024 7.19301V9.68253H124.534V8.42882H118.284V15.9511H124.534V14.7153H127.024V17.2227L125.788 18.4585Z" fill="white"/>
<path d="M105.253 15.9511H111.504V13.4616H105.253V15.9511ZM105.253 10.9542H111.504V8.42882H105.253V10.9542ZM112.758 18.4585H102.746V5.92139H112.758L113.993 7.19301V10.9542L112.758 12.2079L113.993 13.4616V17.2227L112.758 18.4585Z" fill="white"/>
<path d="M101.141 18.4585H90.5024V5.92139H101.141V8.42882H93.0099V10.9542H100.514V13.4616H93.0099V15.9511H101.141V18.4585Z" fill="white"/>
<path d="M80.1544 12.2079H86.4051V8.42882H80.1544V12.2079ZM80.1544 18.4585H77.647V5.92139H87.6588L88.8946 7.19301V13.4616L87.6588 14.7153H80.1544V18.4585Z" fill="white"/>
<path d="M67.124 18.4585H64.6166V5.92139H67.124V14.2675L73.3747 5.92139H75.8642V18.4585H73.3747V10.0945L67.124 18.4585Z" fill="white"/>
<path d="M54.2685 18.4585H51.7611V5.92139H54.2685V10.9542H58.0118L60.5192 8.44673V5.92139H63.0087V9.70044L60.5192 12.2079L63.0087 14.7153V18.4585H60.5192V15.9511L58.0118 13.4616H54.2685V18.4585Z" fill="white"/>
<path d="M41.234 12.2079H47.4847V8.42882H43.7235L41.234 10.9542V12.2079ZM41.234 18.4585H38.7266V9.70044L42.4698 5.92139H49.9742V18.4585H47.4847V14.7153H41.234V18.4585Z" fill="white"/>
<path d="M28.3785 18.4585H25.8711V9.68253L29.6143 5.92139H37.1187V18.4585H34.6292V8.42882H30.868L28.3785 10.9362V18.4585Z" fill="white"/>
<path d="M15.5231 12.2079H21.7737V8.42882H18.0126L15.5231 10.9542V12.2079ZM15.5231 18.4585H13.0156V9.70044L16.7589 5.92139H24.2632V18.4585H21.7737V14.7153H15.5231V18.4585Z" fill="white"/>
<path d="M2.84666 15.9511H9.09732V13.4616H2.84666V15.9511ZM10.351 18.4585H0.339233V5.92139H10.9779V8.42882H2.84666V10.9542H10.351L11.5868 12.2079V17.2227L10.351 18.4585Z" fill="white"/>
<path d="M251.033 37.627L249.336 40.8869H248.045L249.607 37.627L248.045 34.3672H249.336L251.033 37.627ZM253.92 37.627L252.222 40.8869H250.932L252.494 37.627L250.932 34.3672H252.222L253.92 37.627Z" fill="white"/>
<path d="M246.031 42.0755H244.503V33.8579H246.031V42.0755ZM240.191 42.0755H236.49V33.8579H238.052V36.8291H240.327C241.334 36.8291 242.064 36.948 242.517 37.1857C242.97 37.4234 243.196 37.8931 243.196 38.5949V40.2927C243.196 41.4812 242.194 42.0755 240.191 42.0755ZM241.702 40.089V39.0533C241.702 38.5779 241.6 38.261 241.396 38.1025C241.204 37.9327 240.78 37.8478 240.123 37.8478H238.035V41.0907H240.089C240.293 41.0907 240.463 41.0851 240.598 41.0737C240.746 41.0511 240.915 41.0171 241.108 40.9719C241.3 40.9153 241.447 40.8134 241.549 40.6663C241.651 40.5078 241.702 40.3154 241.702 40.089Z" fill="white"/>
<path d="M233.634 42.0755H232.224V35.2501H232.14L229.61 42.0755H228.065L225.433 35.2501H225.348V42.0755H223.905V33.8579H226.367L228.863 40.5474H228.931L231.257 33.8579H233.634V42.0755Z" fill="white"/>
<path d="M221.475 38.3066H215.957V39.546C215.957 40.1233 216.16 40.5364 216.568 40.7855C216.987 41.0232 217.615 41.142 218.452 41.142C219.188 41.142 220.088 41.0062 221.152 40.7345V41.906C220.088 42.1324 219.03 42.2456 217.977 42.2456C216.924 42.2456 216.064 42.0475 215.396 41.6514C214.74 41.2439 214.411 40.6044 214.411 39.7328V36.4899C214.411 35.4825 214.7 34.7638 215.277 34.3337C215.855 33.9035 216.777 33.6885 218.045 33.6885C219.233 33.6885 220.099 33.8979 220.643 34.3167C221.197 34.7242 221.475 35.4486 221.475 36.4899V38.3066ZM219.946 37.3049V36.0145C219.946 35.5165 219.794 35.1769 219.488 34.9958C219.194 34.8034 218.701 34.7072 218.011 34.7072C217.309 34.7072 216.788 34.7977 216.449 34.9788C216.121 35.1486 215.957 35.4938 215.957 36.0145V37.3049H219.946Z" fill="white"/>
<path d="M213.324 34.9785H210.115V42.0755H208.587V34.9785H205.361V33.8579H213.324V34.9785Z" fill="white"/>
<path d="M204.344 42.0079C203.597 42.1664 202.72 42.2456 201.713 42.2456C201.215 42.2456 200.824 42.2343 200.541 42.2116C200.27 42.2003 199.953 42.1494 199.59 42.0588C199.24 41.957 198.968 41.8155 198.775 41.6344C198.594 41.4533 198.436 41.1929 198.3 40.8534C198.164 40.5025 198.096 40.0724 198.096 39.563V36.5409C198.096 36.0881 198.136 35.6976 198.215 35.3693C198.306 35.0411 198.442 34.7751 198.623 34.5714C198.804 34.3676 198.99 34.2035 199.183 34.079C199.375 33.9545 199.636 33.8696 199.964 33.8243C200.304 33.7677 200.598 33.7338 200.847 33.7224C201.107 33.6998 201.452 33.6885 201.882 33.6885C202.664 33.6885 203.445 33.7734 204.226 33.9432V35.0637C203.343 34.8373 202.499 34.7242 201.696 34.7242C200.824 34.7242 200.264 34.8147 200.015 34.9958C199.777 35.1769 199.658 35.6184 199.658 36.3201V39.7158C199.658 40.3157 199.8 40.7119 200.083 40.9043C200.366 41.0854 200.96 41.176 201.866 41.176C202.669 41.176 203.495 41.0684 204.344 40.8534V42.0079Z" fill="white"/>
<path d="M190.241 42.0755H188.255V33.8579H189.698V40.4965L193.773 33.8579H195.759V42.0755H194.316V35.2841L190.241 42.0755Z" fill="white"/>
<path d="M186.321 42.0079C185.574 42.1664 184.697 42.2456 183.69 42.2456C183.192 42.2456 182.801 42.2343 182.518 42.2116C182.246 42.2003 181.93 42.1494 181.567 42.0588C181.216 41.957 180.945 41.8155 180.752 41.6344C180.571 41.4533 180.413 41.1929 180.277 40.8534C180.141 40.5025 180.073 40.0724 180.073 39.563V36.5409C180.073 36.0881 180.113 35.6976 180.192 35.3693C180.283 35.0411 180.418 34.7751 180.6 34.5714C180.781 34.3676 180.967 34.2035 181.16 34.079C181.352 33.9545 181.613 33.8696 181.941 33.8243C182.28 33.7677 182.575 33.7338 182.824 33.7224C183.084 33.6998 183.429 33.6885 183.859 33.6885C184.64 33.6885 185.421 33.7734 186.202 33.9432V35.0637C185.32 34.8373 184.476 34.7242 183.673 34.7242C182.801 34.7242 182.241 34.8147 181.992 34.9958C181.754 35.1769 181.635 35.6184 181.635 36.3201V39.7158C181.635 40.3157 181.777 40.7119 182.06 40.9043C182.343 41.0854 182.937 41.176 183.842 41.176C184.646 41.176 185.472 41.0684 186.321 40.8534V42.0079Z" fill="white"/>
<path d="M174.137 38.3066H168.619V39.546C168.619 40.1233 168.823 40.5364 169.23 40.7855C169.649 41.0232 170.277 41.142 171.115 41.142C171.851 41.142 172.751 41.0062 173.815 40.7345V41.906C172.751 42.1324 171.692 42.2456 170.64 42.2456C169.587 42.2456 168.727 42.0475 168.059 41.6514C167.402 41.2439 167.074 40.6044 167.074 39.7328V36.4899C167.074 35.4825 167.363 34.7638 167.94 34.3337C168.517 33.9035 169.44 33.6885 170.708 33.6885C171.896 33.6885 172.762 33.8979 173.305 34.3167C173.86 34.7242 174.137 35.4486 174.137 36.4899V38.3066ZM172.609 37.3049V36.0145C172.609 35.5165 172.456 35.1769 172.151 34.9958C171.856 34.8034 171.364 34.7072 170.674 34.7072C169.972 34.7072 169.451 34.7977 169.112 34.9788C168.783 35.1486 168.619 35.4938 168.619 36.0145V37.3049H172.609Z" fill="white"/>
<path d="M164.721 42.0755H163.193V33.8579H164.721V42.0755ZM158.88 42.0755H155.179V33.8579H156.741V36.8291H159.016C160.023 36.8291 160.754 36.948 161.206 37.1857C161.659 37.4234 161.885 37.8931 161.885 38.5949V40.2927C161.885 41.4812 160.884 42.0755 158.88 42.0755ZM160.391 40.089V39.0533C160.391 38.5779 160.289 38.261 160.086 38.1025C159.893 37.9327 159.469 37.8478 158.812 37.8478H156.724V41.0907H158.778C158.982 41.0907 159.152 41.0851 159.288 41.0737C159.435 41.0511 159.605 41.0171 159.797 40.9719C159.99 40.9153 160.137 40.8134 160.239 40.6663C160.34 40.5078 160.391 40.3154 160.391 40.089Z" fill="white"/>
<path d="M152.73 39.4099V39.9022C152.73 40.7172 152.47 41.2831 151.949 41.6001C151.44 41.917 150.511 42.0755 149.164 42.0755H145.446V33.8579H149.046C149.77 33.8579 150.353 33.9032 150.794 33.9937C151.247 34.073 151.57 34.2145 151.762 34.4182C151.966 34.6219 152.096 34.8257 152.153 35.0294C152.209 35.2332 152.238 35.5105 152.238 35.8614V36.15C152.238 36.6028 152.119 36.9367 151.881 37.1517C151.643 37.3555 151.27 37.5139 150.76 37.6271V37.695C152.073 37.9101 152.73 38.4817 152.73 39.4099ZM150.777 36.0991V35.9972C150.777 35.5671 150.676 35.2784 150.472 35.1313C150.268 34.9841 149.821 34.9106 149.13 34.9106H146.974V37.3215H149.181C149.861 37.3215 150.296 37.2366 150.489 37.0668C150.681 36.897 150.777 36.5745 150.777 36.0991ZM151.168 39.8513V39.308C151.168 39.0137 151.043 38.776 150.794 38.5949C150.557 38.4138 150.07 38.3232 149.334 38.3232H146.974V40.9719H149.249C150.042 40.9719 150.557 40.8926 150.794 40.7342C151.043 40.5757 151.168 40.2814 151.168 39.8513Z" fill="white"/>
<path d="M142.961 36.6257V39.4781C142.961 39.9875 142.899 40.4176 142.775 40.7685C142.65 41.1194 142.492 41.391 142.299 41.5834C142.107 41.7759 141.829 41.923 141.467 42.0249C141.116 42.1267 140.777 42.189 140.448 42.2116C140.132 42.2343 139.707 42.2456 139.175 42.2456C138.496 42.2456 137.964 42.223 137.579 42.1777C137.206 42.1324 136.826 42.0249 136.442 41.8551C136.068 41.674 135.796 41.391 135.627 41.0062C135.468 40.6213 135.389 40.112 135.389 39.4781V36.6257C135.389 36.0824 135.451 35.624 135.576 35.2505C135.712 34.877 135.87 34.5883 136.051 34.3846C136.243 34.1809 136.521 34.028 136.883 33.9262C137.245 33.813 137.579 33.7451 137.885 33.7224C138.202 33.6998 138.632 33.6885 139.175 33.6885C139.718 33.6885 140.143 33.6998 140.448 33.7224C140.765 33.7451 141.105 33.813 141.467 33.9262C141.829 34.028 142.101 34.1809 142.282 34.3846C142.475 34.5883 142.633 34.877 142.758 35.2505C142.893 35.624 142.961 36.0824 142.961 36.6257ZM141.399 39.6988V36.3711C141.399 35.6127 141.246 35.143 140.941 34.9619C140.635 34.7808 140.047 34.6902 139.175 34.6902C138.304 34.6902 137.715 34.7808 137.409 34.9619C137.104 35.143 136.951 35.6127 136.951 36.3711V39.6988C136.951 40.061 136.991 40.3497 137.07 40.5647C137.149 40.7798 137.296 40.9383 137.511 41.0401C137.726 41.1307 137.947 41.1873 138.173 41.2099C138.4 41.2326 138.734 41.2439 139.175 41.2439C139.617 41.2439 139.95 41.2326 140.177 41.2099C140.403 41.1873 140.624 41.1307 140.839 41.0401C141.054 40.9383 141.201 40.7798 141.28 40.5647C141.36 40.3497 141.399 40.061 141.399 39.6988Z" fill="white"/>
<path d="M134.301 34.9785H131.092V42.0755H129.564V34.9785H126.338V33.8579H134.301V34.9785Z" fill="white"/>
<path d="M124.596 42.0755H123.068V33.8579H124.596V42.0755ZM118.755 42.0755H115.054V33.8579H116.616V36.8291H118.891C119.899 36.8291 120.629 36.948 121.082 37.1857C121.534 37.4234 121.761 37.8931 121.761 38.5949V40.2927C121.761 41.4812 120.759 42.0755 118.755 42.0755ZM120.267 40.089V39.0533C120.267 38.5779 120.165 38.261 119.961 38.1025C119.769 37.9327 119.344 37.8478 118.688 37.8478H116.599V41.0907H118.654C118.857 41.0907 119.027 41.0851 119.163 41.0737C119.31 41.0511 119.48 41.0171 119.672 40.9719C119.865 40.9153 120.012 40.8134 120.114 40.6663C120.216 40.5078 120.267 40.3154 120.267 40.089Z" fill="white"/>
<path d="M112.421 39.4268C112.421 40.0381 112.325 40.5418 112.133 40.9379C111.94 41.3341 111.651 41.6227 111.267 41.8038C110.882 41.9849 110.497 42.1038 110.112 42.1604C109.727 42.217 109.252 42.2453 108.686 42.2453C108.222 42.2453 107.831 42.2283 107.514 42.1943C107.209 42.1717 106.881 42.1094 106.53 42.0076C106.179 41.8944 105.901 41.7416 105.698 41.5491C105.494 41.3454 105.324 41.0681 105.188 40.7172C105.053 40.355 104.985 39.9249 104.985 39.4268V33.1279C104.985 32.5959 105.07 32.1431 105.239 31.7696C105.409 31.3847 105.618 31.0904 105.867 30.8867C106.117 30.6716 106.439 30.5075 106.835 30.3943C107.243 30.2811 107.611 30.2132 107.939 30.1906C108.267 30.1566 108.658 30.1396 109.11 30.1396C109.801 30.1396 110.729 30.1906 111.895 30.2925V31.447C110.695 31.2998 109.693 31.2263 108.89 31.2263C108.007 31.2263 107.384 31.3395 107.022 31.5658C106.671 31.7809 106.496 32.2902 106.496 33.0939V34.4012C106.801 34.1975 107.231 34.0277 107.786 33.8919C108.352 33.7561 108.856 33.6881 109.297 33.6881C110.395 33.6881 111.187 33.9089 111.674 34.3503C112.172 34.7917 112.421 35.4426 112.421 36.3028V39.4268ZM110.91 39.5117V36.3198C110.91 35.7652 110.774 35.3803 110.503 35.1653C110.242 34.9502 109.722 34.8427 108.941 34.8427C108.488 34.8427 108.018 34.9276 107.531 35.0973C107.056 35.2558 106.711 35.4765 106.496 35.7595V39.5117C106.496 40.2475 106.654 40.7229 106.971 40.9379C107.299 41.1417 107.882 41.2435 108.72 41.2435C109.557 41.2435 110.129 41.1417 110.435 40.9379C110.752 40.7342 110.91 40.2588 110.91 39.5117Z" fill="white"/>
<path d="M98.4364 42.0755H97.0272V35.2501H96.9423L94.4125 42.0755H92.8675L90.2358 35.2501H90.1509V42.0755H88.7078V33.8579H91.1696L93.6655 40.5474H93.7334L96.0594 33.8579H98.4364V42.0755Z" fill="white"/>
<path d="M86.2228 36.6257V39.4781C86.2228 39.9875 86.1605 40.4176 86.036 40.7685C85.9115 41.1194 85.753 41.391 85.5606 41.5834C85.3682 41.7759 85.0909 41.923 84.7287 42.0249C84.3778 42.1267 84.0382 42.189 83.71 42.2116C83.393 42.2343 82.9686 42.2456 82.4366 42.2456C81.7574 42.2456 81.2255 42.223 80.8406 42.1777C80.4671 42.1324 80.0879 42.0249 79.7031 41.8551C79.3295 41.674 79.0579 41.391 78.8881 41.0062C78.7296 40.6213 78.6504 40.112 78.6504 39.4781V36.6257C78.6504 36.0824 78.7126 35.624 78.8372 35.2505C78.973 34.877 79.1314 34.5883 79.3125 34.3846C79.505 34.1809 79.7823 34.028 80.1445 33.9262C80.5067 33.813 80.8406 33.7451 81.1462 33.7224C81.4631 33.6998 81.8933 33.6885 82.4366 33.6885C82.9799 33.6885 83.4043 33.6998 83.71 33.7224C84.0269 33.7451 84.3665 33.813 84.7287 33.9262C85.0909 34.028 85.3625 34.1809 85.5436 34.3846C85.7361 34.5883 85.8945 34.877 86.019 35.2505C86.1549 35.624 86.2228 36.0824 86.2228 36.6257ZM84.6608 39.6988V36.3711C84.6608 35.6127 84.5079 35.143 84.2023 34.9619C83.8967 34.7808 83.3081 34.6902 82.4366 34.6902C81.565 34.6902 80.9764 34.7808 80.6708 34.9619C80.3652 35.143 80.2124 35.6127 80.2124 36.3711V39.6988C80.2124 40.061 80.252 40.3497 80.3313 40.5647C80.4105 40.7798 80.5576 40.9383 80.7727 41.0401C80.9878 41.1307 81.2085 41.1873 81.4349 41.2099C81.6612 41.2326 81.9951 41.2439 82.4366 41.2439C82.878 41.2439 83.2119 41.2326 83.4383 41.2099C83.6647 41.1873 83.8854 41.1307 84.1005 41.0401C84.3155 40.9383 84.4627 40.7798 84.5419 40.5647C84.6211 40.3497 84.6608 40.061 84.6608 39.6988Z" fill="white"/>
<path d="M76.6113 36.0145V39.3932C76.6113 39.8913 76.5377 40.3214 76.3905 40.6836C76.2434 41.0458 76.0566 41.3288 75.8303 41.5325C75.6152 41.7249 75.3266 41.8777 74.9644 41.9909C74.6021 42.1041 74.2626 42.172 73.9456 42.1947C73.6287 42.2286 73.2439 42.2456 72.7911 42.2456C72.3384 42.2456 71.8969 42.189 71.4668 42.0758C71.0367 41.9626 70.765 41.7872 70.6518 41.5495V45.4375H69.1238V33.8583H70.6518V34.7411C70.7763 34.0394 71.7102 33.6885 73.4533 33.6885C74.5512 33.6885 75.3492 33.9205 75.8472 34.3846C76.3566 34.8373 76.6113 35.3807 76.6113 36.0145ZM75.0492 39.58V36.5578C75.0492 35.7995 74.8851 35.3184 74.5569 35.1147C74.2286 34.8996 73.6457 34.7921 72.8081 34.7921C71.9592 34.7921 71.3706 34.8996 71.0423 35.1147C70.7254 35.3184 70.5669 35.7995 70.5669 36.5578V39.58C70.5669 40.2704 70.7311 40.7175 71.0593 40.9213C71.3989 41.1137 71.9875 41.2099 72.8251 41.2099C73.6627 41.2099 74.2399 41.1137 74.5569 40.9213C74.8851 40.7175 75.0492 40.2704 75.0492 39.58Z" fill="white"/>
<path d="M66.3708 42.0755H64.8428V34.9785H60.9547V42.0755H59.4266V33.8579H66.3708V42.0755Z" fill="white"/>
<path d="M56.9821 39.1216V39.9705C56.9821 40.378 56.8972 40.7289 56.7274 41.0232C56.569 41.3174 56.3709 41.5438 56.1332 41.7023C55.9068 41.8494 55.6069 41.9683 55.2333 42.0588C54.8598 42.1494 54.5202 42.2003 54.2146 42.2116C53.9203 42.2343 53.5581 42.2456 53.128 42.2456C52.2791 42.2456 51.266 42.1494 50.0889 41.957V40.7515C51.3 41.0005 52.313 41.125 53.128 41.125C53.4563 41.125 53.7166 41.1194 53.909 41.108C54.1128 41.0854 54.3448 41.0401 54.6051 40.9722C54.8655 40.893 55.0579 40.7628 55.1824 40.5817C55.3182 40.3893 55.3861 40.1459 55.3861 39.8516V39.3253C55.3861 39.0876 55.3182 38.8952 55.1824 38.748C55.0579 38.5896 54.8711 38.482 54.6221 38.4255C54.3844 38.3575 54.1693 38.3179 53.9769 38.3066C53.7845 38.284 53.5525 38.2727 53.2808 38.2727H51.4981V37.22H52.9922C53.2638 37.22 53.4902 37.2143 53.6713 37.203C53.8637 37.1804 54.0845 37.1408 54.3335 37.0842C54.5825 37.0162 54.7749 36.9031 54.9107 36.7446C55.0466 36.5861 55.1145 36.3824 55.1145 36.1334V35.624C55.1145 35.0354 54.4353 34.7411 53.0771 34.7411C52.0131 34.7411 51.0906 34.8091 50.3096 34.9449V33.8413C51.1585 33.7394 52.0753 33.6885 53.0601 33.6885C53.8751 33.6885 54.5089 33.7281 54.9617 33.8073C55.5276 33.8979 55.9521 34.0733 56.2351 34.3337C56.518 34.594 56.6595 34.9958 56.6595 35.5391V36.2013C56.6595 36.5748 56.518 36.8748 56.2351 37.1011C55.9634 37.3275 55.6295 37.4747 55.2333 37.5426V37.6105C56.3992 37.7916 56.9821 38.2953 56.9821 39.1216Z" fill="white"/>
<path d="M48.1689 42.0758H46.6918V41.2948C46.5673 41.9287 45.741 42.2456 44.2129 42.2456C43.081 42.2456 42.2944 42.0758 41.8529 41.7362C41.4228 41.3854 41.2078 40.6836 41.2078 39.6309C41.2078 38.7141 41.4115 38.0859 41.819 37.7463C42.2265 37.3954 43.0131 37.22 44.179 37.22H46.6409V35.9126C46.6409 35.4599 46.4994 35.1543 46.2164 34.9958C45.9447 34.8373 45.4241 34.7581 44.6544 34.7581C43.8168 34.7581 42.8773 34.826 41.836 34.9619V33.8413C42.9565 33.7394 43.9696 33.6885 44.8751 33.6885C46.256 33.6885 47.1502 33.8583 47.5577 34.1978C47.9652 34.5261 48.1689 35.2165 48.1689 36.2692V42.0758ZM46.6409 40.4459V38.1708H44.2809C43.5791 38.1708 43.1376 38.2613 42.9565 38.4424C42.7868 38.6235 42.7019 39.0367 42.7019 39.6819C42.7019 40.2704 42.7924 40.6836 42.9735 40.9213C43.1659 41.159 43.5621 41.2778 44.162 41.2778H44.4676C44.7619 41.2778 45.0053 41.2722 45.1977 41.2609C45.4014 41.2495 45.6278 41.2212 45.8768 41.176C46.1258 41.1194 46.3126 41.0345 46.4371 40.9213C46.5729 40.7968 46.6409 40.6383 46.6409 40.4459Z" fill="white"/>
<path d="M41.5367 32.2107H36.7997V42.0751H35.1528V31.0562H41.5367V32.2107Z" fill="white"/>
<path d="M30.1648 40.8869H28.8745L27.1766 37.627L28.8745 34.3672H30.1648L28.6028 37.627L30.1648 40.8869ZM33.0512 40.8869H31.7608L30.063 37.627L31.7608 34.3672H33.0512L31.4892 37.627L33.0512 40.8869Z" fill="white"/>
<path d="M21.4688 34.0277V39.2571C21.4688 39.857 21.3217 40.3663 21.0274 40.7851C20.7444 41.2039 20.3539 41.5152 19.8559 41.719C19.3579 41.9114 18.8655 42.0472 18.3788 42.1264C17.892 42.2057 17.3657 42.2453 16.7998 42.2453C13.721 42.2453 12.1816 41.2492 12.1816 39.2571V34.0447C12.1816 31.9394 13.721 30.8867 16.7998 30.8867C19.9125 30.8867 21.4688 31.9337 21.4688 34.0277ZM19.8729 39.2401V33.9938C19.8729 32.6355 18.8542 31.9564 16.8167 31.9564C16.3866 31.9564 16.0074 31.9847 15.6792 32.0413C15.3509 32.0865 15.034 32.1827 14.7284 32.3299C14.4228 32.4657 14.1851 32.6751 14.0153 32.9581C13.8455 33.2297 13.7606 33.575 13.7606 33.9938V39.2401C13.7606 40.5078 14.785 41.1417 16.8337 41.1417C18.8598 41.1417 19.8729 40.5078 19.8729 39.2401Z" fill="white"/>
<path d="M10.8006 42.0751H9.08575L7.82934 38.7304H3.10934L1.86992 42.0751H0.23999L4.62042 31.0562H6.52201L10.8006 42.0751ZM7.42186 37.5928L5.55424 32.6182H5.40143L3.5338 37.5928H7.42186Z" fill="white"/>
</svg>
