<svg width="265" height="19" viewBox="0 0 265 19" fill="none" xmlns="http://www.w3.org/2000/svg">
<path d="M255.843 18.583H253.227V9.42743L257.132 5.50363H264.961V18.583H262.364V8.1195H258.44L255.843 10.7354V18.583Z" fill="white"/>
<path d="M242.432 12.062H248.953V8.1195H245.029L242.432 10.754V12.062ZM242.432 18.583H239.816V9.44611L243.721 5.50363H251.55V18.583H248.953V14.6778H242.432V18.583Z" fill="white"/>
<path d="M229.025 18.583H226.409V5.50363H229.025V14.2107L235.546 5.50363H238.143V18.583H235.546V9.85718L229.025 18.583Z" fill="white"/>
<path d="M215.426 18.583H212.811V9.42743L216.716 5.50363H224.545V18.583H221.947V8.1195H218.024L215.426 10.7354V18.583Z" fill="white"/>
<path d="M202.019 18.583H199.403V5.50363H202.019V14.2107L208.54 5.50363H211.137V18.583H208.54V9.85718L202.019 18.583Z" fill="white"/>
<path d="M183.354 5.50395H188.585V3.54205H191.201V5.50395H196.414L197.722 6.83057V15.3508L196.414 16.6401H191.201V18.5833H188.585V16.6401H183.354L182.064 15.3508V6.83057L183.354 5.50395ZM184.68 14.0242H188.585V8.11982H184.68V14.0242ZM191.201 14.0242H195.125V8.11982H191.201V14.0242Z" fill="white"/>
<path d="M162.465 2.90654V0.29068H165.081V1.99099H169.005V0.29068H171.621V2.90654L170.313 4.21448H163.792L162.465 2.90654ZM163.792 18.583H161.176V5.50372H163.792V14.2108L170.313 5.50372H172.91V18.583H170.313V9.85727L163.792 18.583Z" fill="white"/>
<path d="M150.198 18.583H147.583V5.50363H150.198V14.2107L156.719 5.50363H159.317V18.583H156.719V9.85718L150.198 18.583Z" fill="white"/>
<path d="M136.787 18.583H134.171V5.50363H136.787V10.754H140.692L143.308 8.13818V5.50363H145.905V9.44611L143.308 12.062L145.905 14.6778V18.583H143.308V15.9671L140.692 13.3699H136.787V18.583Z" fill="white"/>
<path d="M131.204 18.583H122.049L120.759 17.2937V6.83025L122.049 5.50363H131.204L132.493 6.83025V9.42743H129.896V8.1195H123.375V15.9671H129.896V14.6778H132.493V17.2937L131.204 18.583Z" fill="white"/>
<path d="M109.782 15.9671H116.303V13.3699H109.782V15.9671ZM109.782 10.754H116.303V8.1195H109.782V10.754ZM117.611 18.583H107.166V5.50363H117.611L118.9 6.83025V10.754L117.611 12.062L118.9 13.3699V17.2937L117.611 18.583Z" fill="white"/>
<path d="M105.492 18.583H94.3928V5.50363H105.492V8.1195H97.0087V10.754H104.838V13.3699H97.0087V15.9671H105.492V18.583Z" fill="white"/>
<path d="M83.5972 12.062H90.1182V8.1195H83.5972V12.062ZM83.5972 18.583H80.9813V5.50363H91.4261L92.7153 6.83025V13.3699L91.4261 14.6778H83.5972V18.583Z" fill="white"/>
<path d="M70.0036 18.583H67.3877V5.50363H70.0036V14.2107L76.5245 5.50363H79.1217V18.583H76.5245V9.85718L70.0036 18.583Z" fill="white"/>
<path d="M56.5921 18.583H53.9762V5.50363H56.5921V10.754H60.4972L63.113 8.13818V5.50363H65.7102V9.44611L63.113 12.062L65.7102 14.6778V18.583H63.113V15.9671L60.4972 13.3699H56.5921V18.583Z" fill="white"/>
<path d="M42.9938 12.062H49.5148V8.1195H45.591L42.9938 10.754V12.062ZM42.9938 18.583H40.3779V9.44611L44.283 5.50363H52.1119V18.583H49.5148V14.6778H42.9938V18.583Z" fill="white"/>
<path d="M29.5823 18.583H26.9664V9.42743L30.8715 5.50363H38.7005V18.583H36.1033V8.1195H32.1795L29.5823 10.7354V18.583Z" fill="white"/>
<path d="M16.1708 12.062H22.6918V8.1195H18.768L16.1708 10.754V12.062ZM16.1708 18.583H13.5549V9.44611L17.46 5.50363H25.289V18.583H22.6918V14.6778H16.1708V18.583Z" fill="white"/>
<path d="M2.94643 15.9671H9.46741V13.3699H2.94643V15.9671ZM10.7753 18.583H0.330566V5.50363H11.4293V8.1195H2.94643V10.754H10.7753L12.0646 12.062V17.2937L10.7753 18.583Z" fill="white"/>
</svg>
