<svg width="71" height="70" viewBox="0 0 71 70" fill="none" xmlns="http://www.w3.org/2000/svg">
<path d="M43.1187 62.7309L43.1187 62.7309C42.7651 64.915 40.8777 66.5 38.6866 66.5H31.5785C29.3875 66.5 27.5001 64.9151 27.1464 62.7312L27.1463 62.7308L26.5213 58.8691C25.7585 58.5962 25.0096 58.2869 24.2763 57.9421L21.0757 60.2437L21.0747 60.2444C19.2948 61.5234 16.8437 61.3336 15.2839 59.7809L43.1187 62.7309ZM43.1187 62.7309L43.7437 58.869M43.1187 62.7309L43.7437 58.869M43.7437 58.869C44.5065 58.5961 45.2554 58.2869 45.9887 57.9421L49.1894 60.2437L49.1897 60.2439C50.9701 61.5239 53.4219 61.3337 54.9817 59.7806L60.0074 54.7786L60.0081 54.7779C61.5711 53.2213 61.7718 50.7574 60.473 48.9683C60.4729 48.9682 60.4728 48.9681 60.4727 48.968L58.1737 45.801C58.5157 45.0787 58.8228 44.341 59.0942 43.5898L62.9869 42.9657L62.9873 42.9656C65.1518 42.6184 66.7651 40.7523 66.7651 38.5373V31.4625C66.7651 29.2475 65.1518 27.3815 62.9873 27.0343L62.9868 27.0342L59.0943 26.4102C58.8229 25.659 58.5158 24.9214 58.1738 24.199L60.4727 21.0321C60.4728 21.032 60.4729 21.0319 60.4729 21.0318C61.7716 19.2429 61.5715 16.7785 60.0074 15.2217L60.0074 15.2216L54.9813 10.2191L54.9798 10.2176C53.4232 8.67013 50.9733 8.47314 49.1893 9.75631C49.189 9.75657 49.1886 9.75682 49.1882 9.75708L45.989 12.0578C45.2556 11.7129 44.5066 11.4036 43.7437 11.1307L43.1187 7.2691L43.1186 7.26879C42.765 5.085 40.8778 3.5 38.6866 3.5H31.5785C29.3876 3.5 27.5001 5.08473 27.1464 7.26883L27.1464 7.26913L26.5214 11.1306C25.7585 11.4035 25.0095 11.7128 24.2761 12.0576L21.0761 9.75644C21.076 9.75635 21.0758 9.75626 21.0757 9.75617C19.2933 8.47429 16.8421 8.66835 15.2841 10.2187L15.2838 10.219L10.2577 15.2217L10.2575 15.222C8.69408 16.7784 8.49313 19.2426 9.79214 21.0319C9.79218 21.0319 9.79223 21.032 9.79228 21.0321L12.0914 24.199C11.7494 24.9213 11.4423 25.659 11.1709 26.4102L7.27825 27.0342L7.27782 27.0343C5.11313 27.3816 3.5 29.2477 3.5 31.4626V38.5374C3.5 40.7522 5.1131 42.6184 7.27782 42.9657L7.27815 42.9657L11.1709 43.5899C11.4423 44.341 11.7494 45.0786 12.0914 45.801L9.79219 48.9681C8.49342 50.757 8.69362 53.2215 10.2578 54.7783C10.2578 54.7784 10.2579 54.7784 10.2579 54.7785L15.2832 59.7802L43.7437 58.869Z" stroke="white" stroke-width="7"/>
<circle cx="35.217" cy="35" r="9.5" stroke="white" stroke-width="7"/>
</svg>
