<svg width="71" height="71" viewBox="0 0 71 71" fill="none" xmlns="http://www.w3.org/2000/svg">
<path d="M33.3443 5.22718C34.5233 4.00908 36.4767 4.00908 37.6557 5.22718L44.023 11.8058C44.6 12.402 45.3981 12.7325 46.2276 12.719L55.3818 12.5696C57.0768 12.5419 58.4581 13.9232 58.4304 15.6182L58.281 24.7724C58.2675 25.6019 58.598 26.4 59.1942 26.977L65.7728 33.3443C66.9909 34.5233 66.9909 36.4767 65.7728 37.6557L59.1942 44.023C58.598 44.6 58.2675 45.3981 58.281 46.2276L58.4304 55.3818C58.4581 57.0768 57.0768 58.4581 55.3818 58.4304L46.2276 58.281C45.3981 58.2675 44.6 58.598 44.023 59.1942L37.6557 65.7728C36.4767 66.9909 34.5233 66.9909 33.3443 65.7728L26.977 59.1942C26.4 58.598 25.6019 58.2675 24.7724 58.281L15.6182 58.4304C13.9232 58.4581 12.5419 57.0768 12.5696 55.3818L12.719 46.2276C12.7325 45.3981 12.402 44.6 11.8058 44.023L5.22718 37.6557C4.00908 36.4767 4.00908 34.5233 5.22718 33.3443L11.8058 26.977C12.402 26.4 12.7325 25.6019 12.719 24.7724L12.5696 15.6182C12.5419 13.9232 13.9232 12.5419 15.6182 12.5696L24.7724 12.719C25.6019 12.7325 26.4 12.402 26.977 11.8058L33.3443 5.22718Z" stroke="white" stroke-width="7"/>
<path d="M27 35.3333L33.4286 42L45 30" stroke="white" stroke-width="7" stroke-linecap="round"/>
</svg>
