<svg width="12" height="16" viewBox="0 0 12 16" fill="none" xmlns="http://www.w3.org/2000/svg">
<path d="M0.5 6.15336C0.5 3.03288 2.988 0.499512 6 0.499512C9.012 0.499512 11.5 3.03288 11.5 6.15336C11.5 8.57181 10.2309 10.8468 8.8764 12.5758C7.61478 14.1862 6.32725 15.2618 6.08886 15.4534C6.04966 15.4732 6.02361 15.4855 6.00051 15.4944C6.00034 15.4944 6.00017 15.4945 6 15.4946C5.99983 15.4945 5.99966 15.4944 5.99949 15.4944C5.97639 15.4855 5.95034 15.4732 5.91114 15.4534C5.67275 15.2618 4.38522 14.1862 3.1236 12.5758C1.76912 10.8468 0.5 8.57181 0.5 6.15336ZM3.1 6.15336C3.1 7.77134 4.392 9.1149 6 9.1149C7.608 9.1149 8.9 7.77134 8.9 6.15336C8.9 4.53538 7.608 3.19182 6 3.19182C4.392 3.19182 3.1 4.53538 3.1 6.15336Z" stroke="#2E6BD1"/>
</svg>
