<svg width="12" height="17" viewBox="0 0 12 17" fill="none" xmlns="http://www.w3.org/2000/svg">
<path d="M0.5 6.53846C0.5 3.17713 3.01573 0.5 6 0.5C8.98427 0.5 11.5 3.17713 11.5 6.53846C11.5 9.12802 10.2221 11.5561 8.86757 13.3932C7.60434 15.1064 6.31561 16.2502 6.07725 16.4538C6.065 16.4603 6.05365 16.4663 6.04255 16.472C6.02507 16.4809 6.01122 16.4875 6 16.4924C5.98878 16.4875 5.97493 16.4809 5.95745 16.472C5.94635 16.4663 5.935 16.4603 5.92275 16.4538C5.68439 16.2502 4.39566 15.1064 3.13244 13.3932C1.77794 11.5561 0.5 9.12802 0.5 6.53846ZM3.1 6.53846C3.1 8.21175 4.36427 9.65385 6 9.65385C7.63573 9.65385 8.9 8.21175 8.9 6.53846C8.9 4.86518 7.63573 3.42308 6 3.42308C4.36427 3.42308 3.1 4.86518 3.1 6.53846Z" stroke="white"/>
</svg>
