<svg width="16" height="16" viewBox="0 0 16 16" fill="none" xmlns="http://www.w3.org/2000/svg">
<path d="M1 2.94396C1 9.60205 6.39747 14.9995 13.0556 14.9995C13.3559 14.9995 13.6538 14.9885 13.9487 14.9669C14.2871 14.9421 14.4563 14.9297 14.6103 14.8411C14.7379 14.7677 14.8589 14.6375 14.9228 14.5048C15 14.3448 15 14.158 15 13.7846V11.5934C15 11.2793 15 11.1223 14.9483 10.9877C14.9027 10.8688 14.8285 10.763 14.7324 10.6794C14.6235 10.5848 14.476 10.5312 14.1808 10.4238L11.6866 9.51688C11.3433 9.39205 11.1716 9.32959 11.0087 9.34017C10.865 9.3495 10.7268 9.39858 10.6094 9.4818C10.4762 9.57615 10.3822 9.73279 10.1943 10.0462L9.55556 11.1106C7.49452 10.1772 5.8237 8.50421 4.88889 6.44396L5.95336 5.80526C6.26672 5.61728 6.42337 5.52328 6.51771 5.39011C6.60093 5.27268 6.65001 5.13447 6.65934 4.99083C6.66992 4.82794 6.60747 4.65626 6.48263 4.31288L5.57567 1.81867C5.46833 1.52355 5.41467 1.37598 5.32009 1.26715C5.23656 1.171 5.1307 1.09685 5.01178 1.0512C4.87722 0.999512 4.72019 0.999512 4.40612 0.999512H2.21489C1.84148 0.999512 1.65473 0.999512 1.49467 1.07671C1.36206 1.14065 1.23185 1.26163 1.15843 1.3892C1.06977 1.54323 1.0574 1.71244 1.03259 2.05086C1.01097 2.34574 1 2.64356 1 2.94396Z" stroke="#2E6BD1" stroke-linecap="round" stroke-linejoin="round"/>
</svg>
