<svg width="18" height="18" viewBox="0 0 18 18" fill="none" xmlns="http://www.w3.org/2000/svg">
<path d="M1 3.22125C1 10.8305 7.16853 16.999 14.7778 16.999C15.1211 16.999 15.4615 16.9865 15.7985 16.9618C16.1852 16.9334 16.3786 16.9193 16.5546 16.818C16.7004 16.734 16.8387 16.5852 16.9118 16.4337C17 16.2508 17 16.0373 17 15.6106V13.1063C17 12.7474 17 12.5679 16.9409 12.4141C16.8888 12.2782 16.804 12.1572 16.6941 12.0618C16.5698 11.9537 16.4011 11.8924 16.0638 11.7697L13.2133 10.7332C12.8209 10.5905 12.6246 10.5191 12.4385 10.5312C12.2743 10.5419 12.1164 10.598 11.9822 10.6931C11.83 10.8009 11.7226 10.9799 11.5077 11.338L10.7778 12.5546C8.42231 11.4878 6.5128 9.57582 5.44444 7.22125L6.66098 6.49131C7.01911 6.27647 7.19813 6.16905 7.30596 6.01685C7.40107 5.88265 7.45716 5.72469 7.46782 5.56053C7.47991 5.37437 7.40853 5.17816 7.26587 4.78573L6.22933 1.93521C6.10667 1.59792 6.04533 1.42927 5.93724 1.30489C5.84178 1.19501 5.7208 1.11027 5.58489 1.05809C5.43111 0.999024 5.25164 0.999023 4.89271 0.999023H2.38844C1.96169 0.999023 1.74827 0.999024 1.56533 1.08725C1.41378 1.16032 1.26498 1.29859 1.18107 1.44438C1.07973 1.62042 1.0656 1.8138 1.03724 2.20056C1.01253 2.53757 1 2.87794 1 3.22125Z" stroke="white" stroke-linecap="round" stroke-linejoin="round"/>
</svg>
