<svg width="66" height="49" viewBox="0 0 66 49" fill="none" xmlns="http://www.w3.org/2000/svg">
<path d="M20.0596 36.2548V13.0099L42.5297 1L64.9998 13.3973V36.2548L42.5297 47.8773L20.0596 36.2548Z" fill="#FAFAFA" stroke="#2E6BD1"/>
<path d="M20.0596 13.0098L42.5297 24.6322L64.9998 13.3972" stroke="#2E6BD1"/>
<path d="M42.5312 24.6323V47.4899" stroke="#2E6BD1"/>
<path d="M28.585 8.74813L51.0551 20.3706V28.8938L57.2537 25.7944V17.2713L45.5 11.288M34.5 5.68848L40 8.48826" stroke="#2E6BD1" stroke-linecap="round"/>
<path d="M30.5215 35.8672L39.0446 40.1288" stroke="#2E6BD1" stroke-linecap="round"/>
<path d="M35.1699 33.543L39.0441 35.48" stroke="#2E6BD1" stroke-linecap="round"/>
<path d="M30.5 7.18848H17" stroke="#2E6BD1" stroke-linecap="square"/>
<path d="M19.2859 13.8672L12.4287 13.8672" stroke="#2E6BD1" stroke-linecap="round"/>
<path d="M25.0979 38.9668L11.9258 38.9668" stroke="#2E6BD1" stroke-linecap="round"/>
<path d="M19.2859 21.8672L1 21.8672" stroke="#2E6BD1" stroke-linecap="round"/>
</svg>
