<svg width="18" height="21" viewBox="0 0 18 21" fill="none" xmlns="http://www.w3.org/2000/svg">
<path d="M16.5 7.5H10.5V1.5H1.5V19.5H16.5V7.5ZM15.879 6L12 2.121V6H15.879ZM0.75 0H12L18 6V20.25C18 20.4489 17.921 20.6397 17.7803 20.7803C17.6397 20.921 17.4489 21 17.25 21H0.75C0.551088 21 0.360322 20.921 0.21967 20.7803C0.0790178 20.6397 0 20.4489 0 20.25V0.75C0 0.551088 0.0790178 0.360322 0.21967 0.21967C0.360322 0.0790176 0.551088 0 0.75 0ZM4.5 10.5H13.5V12H4.5V10.5ZM4.5 6H8.25V7.5H4.5V6ZM4.5 15H13.5V16.5H4.5V15Z" fill="#2E6BD1"/>
</svg>
