<?xml version="1.0" encoding="utf-8"?><svg viewBox="0 0 23 23" xmlns="http://www.w3.org/2000/svg" xmlns:xlink="http://www.w3.org/1999/xlink"><style>:root>svg{display:none}:root>svg:target{display:block}</style><svg fill="none" viewBox="0 0 12 16" id="sprite--addres" xmlns="http://www.w3.org/2000/svg"><path d="M.5 6.154C.5 3.034 2.988.5 6 .5s5.5 2.533 5.5 5.654c0 2.418-1.27 4.693-2.624 6.422a19.043 19.043 0 01-2.787 2.878.995.995 0 01-.09.04.995.995 0 01-.088-.04 19.043 19.043 0 01-2.787-2.878C1.769 10.847.5 8.572.5 6.154zm2.6 0c0 1.618 1.292 2.961 2.9 2.961 1.608 0 2.9-1.343 2.9-2.961 0-1.618-1.292-2.962-2.9-2.962-1.608 0-2.9 1.344-2.9 2.962z" stroke="#2E6BD1"/></svg><svg fill="none" viewBox="0 0 14 11" id="sprite--mail_icon" xmlns="http://www.w3.org/2000/svg"><rect x=".5" y=".5" width="13" height="10" rx=".5" stroke="#2E6BD1"/><path d="M1 1l6.24 5L13 1.385" stroke="#2E6BD1"/></svg><svg fill="none" viewBox="0 0 16 16" id="sprite--phone-ico" xmlns="http://www.w3.org/2000/svg"><path d="M1 2.944C1 9.603 6.397 15 13.056 15c.3 0 .598-.011.893-.033.338-.024.507-.037.661-.125a.825.825 0 00.313-.337c.077-.16.077-.347.077-.72v-2.191c0-.314 0-.471-.052-.606a.777.777 0 00-.216-.308c-.108-.095-.256-.148-.551-.256l-2.494-.907c-.344-.124-.515-.187-.678-.176a.778.778 0 00-.4.141c-.133.095-.227.251-.415.565l-.638 1.064a9.412 9.412 0 01-4.667-4.667l1.064-.638c.314-.188.47-.282.565-.415a.778.778 0 00.141-.4c.01-.163-.052-.334-.176-.678L5.576 1.82c-.108-.295-.161-.443-.256-.551a.778.778 0 00-.308-.216C4.877 1 4.72 1 4.406 1H2.215c-.374 0-.56 0-.72.077a.825.825 0 00-.337.313c-.088.154-.1.323-.125.661A12.01 12.01 0 001 2.944z" stroke="#2E6BD1" stroke-linecap="round" stroke-linejoin="round"/></svg><svg fill="none" viewBox="0 0 23 19" id="sprite--tg" xmlns="http://www.w3.org/2000/svg"><path d="M1.41 8.275l13.7-5.64c1.353-.587 5.94-2.467 5.94-2.467s2.116-.823 1.94 1.175c-.06.822-.53 3.7-1 6.814l-1.47 9.223s-.118 1.351-1.117 1.586c-1 .235-2.646-.822-2.94-1.057-.235-.176-4.41-2.82-5.939-4.112-.412-.353-.882-1.058.059-1.88 2.117-1.939 4.645-4.347 6.174-5.875.705-.705 1.411-2.35-1.529-.352l-8.29 5.58s-.942.588-2.706.06C2.468 10.8.41 10.095.41 10.095s-1.41-.882 1-1.821z" fill="#2E6BD1"/></svg><svg fill="none" viewBox="0 0 23 23" id="sprite--vk" xmlns="http://www.w3.org/2000/svg"><path fill-rule="evenodd" clip-rule="evenodd" d="M1.978 17.066L0 23l6.44-1.695c1.57.828 3.36 1.298 5.258 1.298C17.94 22.603 23 17.543 23 11.302 23 5.06 17.94 0 11.698 0 5.457 0 .397 5.06.397 11.302c0 2.106.577 4.076 1.581 5.764zm13.86-4.515s1.618.948 2.056 1.777a.91.91 0 01-.16 1.068l-.586.586c-1.859 1.859-3.958.944-5.817-.915l-1.699-1.7-1.699-1.698C6.074 9.809 5.16 7.71 7.018 5.852l.586-.586a.909.909 0 011.068-.16c.829.438 1.777 2.056 1.777 2.056.208.366.232.807-.14 1.016 0 0-.63.526-.721.66-.414.61-.398 1.176.173 1.747l1.327 1.327 1.327 1.327c.571.57 1.137.587 1.747.173.134-.09.66-.72.66-.72.208-.373.65-.35 1.016-.14z" fill="#2E6BD1"/></svg></svg>