<svg width="23" height="19" viewBox="0 0 23 19" fill="none" xmlns="http://www.w3.org/2000/svg">
<path d="M1.41007 8.27407L15.1104 2.63454C16.4628 2.04709 21.0492 0.16725 21.0492 0.16725C21.0492 0.16725 23.166 -0.655181 22.9896 1.34215C22.9308 2.16458 22.4604 5.04309 21.99 8.15658L20.52 17.3796C20.52 17.3796 20.4024 18.7307 19.4028 18.9657C18.4032 19.2007 16.7568 18.1432 16.4628 17.9083C16.2276 17.732 12.0528 15.0885 10.524 13.7961C10.1124 13.4436 9.64203 12.7387 10.5828 11.9163C12.6996 9.97768 15.228 7.56913 16.7568 6.04176C17.4624 5.33682 18.168 3.69195 15.228 5.68929L6.93724 11.2701C6.93724 11.2701 5.99645 11.8575 4.23246 11.3288C2.46847 10.8001 0.410477 10.0952 0.410477 10.0952C0.410477 10.0952 -1.00072 9.21399 1.41007 8.27407Z" fill="#2E6BD1"/>
</svg>
