<svg width="23" height="23" viewBox="0 0 23 23" fill="none" xmlns="http://www.w3.org/2000/svg">
<path fill-rule="evenodd" clip-rule="evenodd" d="M1.978 17.0659L0 22.9995L6.44 21.305C8.01074 22.1323 9.79919 22.603 11.6983 22.603C17.94 22.603 23 17.543 23 11.3012C23 5.05951 17.94 -0.000488281 11.6983 -0.000488281C5.45655 -0.000488281 0.396552 5.05951 0.396552 11.3012C0.396552 13.4077 0.974328 15.3778 1.978 17.0659ZM15.838 12.5506C15.838 12.5506 17.4557 13.4986 17.8943 14.3276C18.081 14.6799 18.016 15.1129 17.734 15.3956L17.148 15.9816C15.289 17.8405 13.1903 16.9252 11.3313 15.0663L9.63229 13.3673L7.93329 11.6683C6.07428 9.80934 5.15895 7.71071 7.01795 5.85174L7.60396 5.26575C7.88596 4.98375 8.31896 4.91842 8.67163 5.10508C9.50063 5.54374 10.4486 7.16138 10.4486 7.16138C10.6573 7.52738 10.6806 7.9687 10.3086 8.1777C10.3086 8.1777 9.6783 8.70336 9.58763 8.83702C9.17396 9.44768 9.18996 10.0133 9.76096 10.5843L11.088 11.9113L12.415 13.2383C12.986 13.8093 13.5516 13.8253 14.1623 13.4116C14.296 13.321 14.8216 12.6906 14.8216 12.6906C15.0303 12.3186 15.472 12.342 15.838 12.5506Z" fill="#2E6BD1"/>
</svg>
